<svg width="92" height="95" viewBox="0 0 92 95" fill="none" xmlns="http://www.w3.org/2000/svg">
<path opacity="0.2" d="M6.51152 26.03C-4.16982 44.8874 -1.70598 68.6826 13.8726 83.9906C28.4186 98.2839 51.4692 97.498 69.8531 88.2716C86.1295 80.1029 93.5636 62.6194 91.7266 44.9177C89.7063 25.4495 80.4543 5.4799 60.8096 1.12573C39.2345 -3.65631 17.1769 7.20087 6.51152 26.03Z" fill="#7C68E1"/>
<path d="M5.37315 69.8561C-4.72768 51.5942 -0.0162506 35.8887 14.7157 21.0641C28.4711 7.22214 47.3308 3.12907 64.7156 12.0641C80.1074 19.9748 90.2371 32.1838 88.5 49.3266C86.5895 68.1799 77.577 88.61 59 92.8267C38.5975 97.4577 15.4589 88.0907 5.37315 69.8561Z" fill="#7C68E1"/>
<g clip-path="url(#clip0_334_15263)">
<path d="M50.9394 75.4005C62.6862 75.4005 72.2088 65.8778 72.2088 54.131C72.2088 42.3842 62.6862 32.8616 50.9394 32.8616C39.1926 32.8616 29.6699 42.3842 29.6699 54.131C29.6699 65.8778 39.1926 75.4005 50.9394 75.4005Z" fill="#F1F1F4"/>
<path d="M51.9914 75.3746C51.6433 75.3917 51.2918 75.4004 50.9393 75.4004C39.1929 75.4004 29.6699 65.8775 29.6699 54.131C29.6699 42.3846 39.1929 32.8617 50.9393 32.8617C51.2918 32.8617 51.6432 32.8702 51.9914 32.8875C40.7318 33.4356 31.7732 42.7371 31.7732 54.131C31.7732 65.5249 40.7319 74.8264 51.9914 75.3746Z" fill="#DDDAEC"/>
<path d="M50.9396 71.0414C60.279 71.0414 67.85 63.4704 67.85 54.131C67.85 44.7917 60.279 37.2207 50.9396 37.2207C41.6003 37.2207 34.0293 44.7917 34.0293 54.131C34.0293 63.4704 41.6003 71.0414 50.9396 71.0414Z" fill="#DDDAEC"/>
<path d="M67.8491 54.131C67.8491 63.4702 60.2779 71.0414 50.9388 71.0414C50.568 71.0414 50.1993 71.0296 49.834 71.0059C58.6573 70.4363 65.6385 63.0983 65.6385 54.131C65.6385 45.1638 58.6573 37.8258 49.834 37.2561C50.1994 37.2325 50.568 37.2207 50.9388 37.2207C60.2778 37.2206 67.8491 44.7919 67.8491 54.131Z" fill="#D0CEE7"/>
<path d="M41.0605 69.1386C52.8073 69.1386 62.3299 59.6159 62.3299 47.8691C62.3299 36.1223 52.8073 26.5997 41.0605 26.5997C29.3137 26.5997 19.791 36.1223 19.791 47.8691C19.791 59.6159 29.3137 69.1386 41.0605 69.1386Z" fill="#F1F1F4"/>
<path d="M42.1124 69.1128C41.7643 69.13 41.4127 69.1386 41.0603 69.1386C29.3139 69.1386 19.791 59.6157 19.791 47.8693C19.791 36.1228 29.3139 26.6 41.0604 26.6C41.4128 26.6 41.7643 26.6086 42.1125 26.6259C30.8529 27.174 21.8943 36.4755 21.8943 47.8694C21.8943 59.2633 30.8529 68.5647 42.1124 69.1128Z" fill="#DDDAEC"/>
<path d="M41.0607 64.7795C50.4 64.7795 57.9711 57.2085 57.9711 47.8691C57.9711 38.5298 50.4 30.9588 41.0607 30.9588C31.7214 30.9588 24.1504 38.5298 24.1504 47.8691C24.1504 57.2085 31.7214 64.7795 41.0607 64.7795Z" fill="#DDDAEC"/>
<path d="M57.9722 47.8691C57.9722 57.2083 50.401 64.7795 41.0618 64.7795C40.6911 64.7795 40.3224 64.7677 39.957 64.744C48.7803 64.1744 55.7615 56.8364 55.7615 47.8691C55.7615 38.9019 48.7802 31.5639 39.957 30.9942C40.3225 30.9706 40.6911 30.9588 41.0618 30.9588C50.4009 30.9588 57.9722 38.5301 57.9722 47.8691Z" fill="#D0CEE7"/>
<path d="M39.3399 49.9359C43.2275 49.9359 46.3903 46.7731 46.3903 42.8855C46.3903 38.9979 43.2275 35.8352 39.3399 35.8352H33.9015C33.0112 35.8352 32.2894 36.5569 32.2894 37.4472V46.7119H30.6512C29.7609 46.7119 29.0391 47.4337 29.0391 48.324C29.0391 49.2143 29.7608 49.9361 30.6512 49.9361H32.2894V52.3927H30.6512C29.7609 52.3927 29.0391 53.1144 29.0391 54.0048C29.0391 54.895 29.7608 55.6169 30.6512 55.6169H32.2894V58.0121C32.2894 58.9023 33.0111 59.6242 33.9015 59.6242C34.7919 59.6242 35.5136 58.9024 35.5136 58.0121V55.6169H40.6041C41.4944 55.6169 42.2162 54.8951 42.2162 54.0048C42.2162 53.1145 41.4945 52.3927 40.6041 52.3927H35.5136V49.9361H39.3399V49.9359ZM35.5136 39.0592H39.3399C41.4497 39.0592 43.1662 40.7757 43.1662 42.8855C43.1662 44.9953 41.4497 46.7118 39.3399 46.7118H35.5136V39.0592Z" fill="#F1F1F4"/>
<path d="M48.2666 55.942C47.7485 55.4239 46.9083 55.4239 46.3901 55.942C45.872 55.4239 45.0318 55.4239 44.5136 55.942C43.9955 56.4602 43.9955 57.3004 44.5136 57.8185L46.3901 59.695L48.2666 57.8185C48.7849 57.3004 48.7849 56.4602 48.2666 55.942Z" fill="#F1F1F4"/>
<path d="M68.5142 40.7948C65.7165 37.1133 61.7623 34.3595 57.3624 33.0215C53.3248 28.5924 47.5117 25.8087 41.0605 25.8087C28.8963 25.8087 19 35.705 19 47.8691C19 57.7925 25.5864 66.2054 34.6169 68.9687C38.7952 73.5607 44.7306 76.1912 50.9391 76.1912C63.1035 76.1912 73 66.2952 73 54.1313C73 49.2683 71.4488 44.6567 68.5142 40.7948ZM20.582 47.8691C20.582 36.5773 29.7687 27.3907 41.0605 27.3907C52.3523 27.3907 61.5389 36.5773 61.5389 47.8691C61.5389 59.1609 52.3523 68.3476 41.0605 68.3476C29.7687 68.3476 20.582 59.161 20.582 47.8691ZM50.9391 74.6093C46.0178 74.6093 41.2805 72.8295 37.586 69.6552C38.7182 69.8351 39.8784 69.9296 41.0605 69.9296C41.6514 69.9296 42.2368 69.9056 42.8161 69.8598C45.3097 71.1497 48.1123 71.8323 50.9392 71.8323C52.9382 71.8323 54.901 71.5013 56.7736 70.8485C57.1862 70.7046 57.404 70.2536 57.2602 69.8411C57.1163 69.4286 56.6655 69.2108 56.2528 69.3546C54.5481 69.9489 52.7603 70.2502 50.9392 70.2502C49.1922 70.2502 47.456 69.9633 45.8108 69.413C55.6993 67.2344 63.1211 58.4028 63.1211 47.8691C63.1211 46.1887 62.9313 44.5517 62.5737 42.9779C63.6579 44.1099 64.5798 45.397 65.2924 46.7866C66.4647 49.0725 67.0591 51.5437 67.0591 54.1313C67.0591 57.0128 66.2899 59.8398 64.8347 62.307C63.4213 64.7032 61.4012 66.7054 58.9926 68.0971C58.6144 68.3156 58.4849 68.7994 58.7034 69.1777C58.85 69.4314 59.1158 69.5731 59.389 69.5731C59.5233 69.5731 59.6595 69.5389 59.784 69.4669C62.4281 67.9392 64.6458 65.7412 66.1974 63.1107C67.7961 60.4002 68.6411 57.2952 68.6411 54.1313C68.6411 51.2902 67.9881 48.5762 66.7002 46.0648C65.5066 43.7371 63.7791 41.6714 61.6978 40.0751C61.0701 38.4187 60.2489 36.857 59.2612 35.4177C62.3898 36.8171 65.1684 39.0065 67.2547 41.752C69.9783 45.3362 71.418 49.617 71.418 54.1315C71.418 65.4229 62.2312 74.6093 50.9391 74.6093Z" fill="black"/>
<path d="M58.7621 47.8691C58.7621 38.1086 50.8212 30.1678 41.0607 30.1678C31.3002 30.1678 23.3594 38.1086 23.3594 47.8691C23.3594 57.6296 31.3002 65.5705 41.0607 65.5705C50.8212 65.5705 58.7621 57.6296 58.7621 47.8691ZM24.9419 47.7434C25.0091 38.9758 32.1674 31.8176 40.935 31.7504C49.8807 31.6817 57.1801 38.939 57.1801 47.8691C57.1801 48.6963 57.1173 49.5091 56.9965 50.303C56.4567 48.6512 55.4049 47.2296 54.0285 46.2261C52.7466 44.9209 52.7482 42.8194 54.0348 41.517C54.3326 41.2153 54.3609 40.723 54.075 40.41C53.7689 40.0747 53.2485 40.0657 52.9309 40.3834C51.6759 41.6384 51.2393 43.4061 51.6203 45.0183C50.8685 44.7872 50.0712 44.6612 49.2453 44.6589C48.842 44.6577 48.4838 44.9531 48.4366 45.3537C48.38 45.8336 48.7534 46.2409 49.2219 46.2409C52.8592 46.2409 55.8183 49.2001 55.8183 52.8374C55.8183 52.9538 55.8152 53.0697 55.8093 53.185C54.8671 51.5377 53.0937 50.4242 51.0638 50.4242C50.3447 50.4242 49.6582 50.5652 49.0288 50.8188C48.0894 50.7221 47.3535 49.9282 47.3491 48.9648C47.3476 48.6548 47.1861 48.3587 46.901 48.2372C46.323 47.9911 45.7671 48.4086 45.7671 48.9559C45.7671 50.1787 46.4059 51.2548 47.367 51.8689C46.5413 52.6291 45.9492 53.6392 45.7133 54.7784C45.6274 54.768 45.5404 54.7623 45.4525 54.7623C44.8893 54.7623 44.3597 54.9807 43.9603 55.3774C43.1308 56.2013 43.1675 57.5902 43.9942 58.417L45.8187 60.2415C45.8967 60.3194 45.987 60.3857 46.0892 60.427C46.3964 60.5508 46.731 60.4736 46.9502 60.2543L48.8267 58.3778C49.6525 57.5521 49.6525 56.2084 48.8267 55.3827C48.4188 54.9748 47.8843 54.7688 47.3485 54.7639C47.8317 53.1701 49.3142 52.0064 51.0639 52.0064C53.0367 52.0064 54.6705 53.4857 54.9145 55.3932C54.9156 55.4022 54.9167 55.4128 54.9177 55.4245C54.9528 55.82 54.8504 56.2165 54.636 56.5506C51.7677 61.0204 46.7548 63.9885 41.0608 63.9885C32.1306 63.9885 24.8733 56.6891 24.9419 47.7434ZM45.8314 56.5013C45.9797 56.6496 46.1809 56.7331 46.3907 56.7331C46.6005 56.7331 46.8016 56.6497 46.95 56.5013C47.1589 56.2924 47.499 56.2924 47.7079 56.5013C47.9168 56.7103 47.9168 57.0502 47.7079 57.2592L46.3907 58.5764L45.0735 57.2592C44.9723 57.158 44.9166 57.0234 44.9166 56.8803C44.9166 56.7372 44.9723 56.6026 45.0735 56.5013C45.1747 56.4001 45.3093 56.3444 45.4524 56.3444C45.5956 56.3444 45.7301 56.4001 45.8314 56.5013Z" fill="black"/>
<path d="M43.0093 54.0049C43.0093 52.6796 41.931 51.6013 40.6057 51.6013H36.3068V50.7269H39.3411C43.665 50.7269 47.1827 47.2092 47.1827 42.8853C47.1827 38.5614 43.6649 35.0437 39.3411 35.0437H33.9031C32.5783 35.0437 31.5005 36.122 31.5005 37.4474V39.9122C31.5005 40.349 31.8547 40.7032 32.2916 40.7032C32.7284 40.7032 33.0826 40.349 33.0826 39.9122V37.4474C33.0826 36.9944 33.4507 36.6258 33.9031 36.6258H39.3411C42.7927 36.6258 45.6007 39.4338 45.6007 42.8853C45.6007 46.3369 42.7926 49.1449 39.3411 49.1449H35.5157C35.0789 49.1449 34.7247 49.4991 34.7247 49.9359V52.3923C34.7247 52.8291 35.0789 53.1833 35.5157 53.1833H40.6057C41.0587 53.1833 41.4273 53.5519 41.4273 54.0049C41.4273 54.4574 41.0587 54.8254 40.6057 54.8254H35.5157C35.0789 54.8254 34.7247 55.1796 34.7247 55.6165V58.0117C34.7247 58.4646 34.3561 58.8333 33.9031 58.8333C33.4507 58.8333 33.0826 58.4646 33.0826 58.0117V55.6165C33.0826 55.1796 32.7284 54.8254 32.2916 54.8254H30.6526C30.2001 54.8254 29.832 54.4574 29.832 54.0049C29.832 53.5519 30.2001 53.1833 30.6526 53.1833H32.2916C32.7284 53.1833 33.0826 52.8291 33.0826 52.3923V49.9359C33.0826 49.4991 32.7284 49.1449 32.2916 49.1449H30.6526C30.2001 49.1449 29.832 48.7768 29.832 48.3243C29.832 47.8714 30.2001 47.5027 30.6526 47.5027H32.2916C32.7284 47.5027 33.0826 47.1486 33.0826 46.7117V43.0741C33.0826 42.6373 32.7284 42.2831 32.2916 42.2831C31.8547 42.2831 31.5005 42.6373 31.5005 43.0741V45.9207H30.6526C29.3278 45.9207 28.25 46.9989 28.25 48.3243C28.25 49.6491 29.3278 50.7269 30.6526 50.7269H31.5005V51.6013H30.6526C29.3278 51.6013 28.25 52.6796 28.25 54.0049C28.25 55.3297 29.3278 56.4075 30.6526 56.4075H31.5005V58.0117C31.5005 59.337 32.5783 60.4153 33.9031 60.4153C35.2284 60.4153 36.3068 59.337 36.3068 58.0117V56.4075H40.6057C41.931 56.4075 43.0093 55.3297 43.0093 54.0049Z" fill="black"/>
<path d="M35.5137 47.5027H39.34C41.886 47.5027 43.9573 45.4314 43.9573 42.8854C43.9573 40.3394 41.886 38.2681 39.34 38.2681H35.5137C35.0768 38.2681 34.7227 38.6223 34.7227 39.0591V46.7117C34.7227 47.1487 35.0768 47.5027 35.5137 47.5027ZM36.3047 39.8502H39.34C41.0137 39.8502 42.3753 41.2119 42.3753 42.8855C42.3753 44.5592 41.0137 45.9208 39.34 45.9208H36.3047V39.8502Z" fill="black"/>
</g>
<defs>
<clipPath id="clip0_334_15263">
<rect width="54" height="54" fill="white" transform="translate(19 24)"/>
</clipPath>
</defs>
</svg>
