<svg width="104" height="100" viewBox="0 0 104 100" fill="none" xmlns="http://www.w3.org/2000/svg">
<path opacity="0.2" d="M97.2054 27.126C108.351 46.7774 105.78 71.5745 89.5243 87.527C74.3459 102.422 50.293 101.603 31.1098 91.9883C14.1258 83.4756 6.36843 65.256 8.28529 46.8089C10.3934 26.5211 20.0477 5.71063 40.5465 1.17313C63.0596 -3.81026 86.0763 7.50406 97.2054 27.126Z" fill="#63A3AF"/>
<path d="M94.8953 71.2688C106.37 50.4546 101.018 32.5541 84.2819 15.6575C68.6553 -0.119034 47.2299 -4.78416 27.4801 5.39967C9.99453 14.416 -1.75759 32.0214 0.215876 51.5601C2.38627 73.0484 15.459 93.9514 36.5631 98.7575C59.7411 104.036 83.4376 92.0519 94.8953 71.2688Z" fill="#63A3AF"/>
<path d="M72.9138 53.7391C75.1471 53.7391 76.9572 55.5492 76.9572 57.7826C76.9572 60.0146 75.1458 61.8261 72.9138 61.8261H71.1616L71.136 61.9325C72.9272 62.3463 74.2616 63.9516 74.2616 65.8695C74.2616 68.1015 72.4501 69.913 70.2181 69.913H67.5225C69.7558 69.913 71.5659 71.7231 71.5659 73.9565C71.5659 76.1898 69.7558 78 67.5225 78C65.9154 78 54.5604 78 53.0279 78C45.6459 78 43.6835 77.0942 36.5225 75.3043V48.3478C36.6651 48.2361 58.0877 44.3208 58.0877 31.3652V30.0174C58.0877 27.784 59.8978 25.9739 62.1312 25.9739C64.3618 25.9739 66.1706 27.78 66.1746 30.0106C66.2016 30.0106 67.0453 38.5194 63.479 45.6521H75.6094C77.8428 45.6521 79.6529 47.4623 79.6529 49.6956C79.6529 51.9276 77.8414 53.7391 75.6094 53.7391H72.9138Z" fill="#FFBFAB"/>
<path d="M36.5216 48.3478V75.3043C36.5216 76.7936 35.3153 77.9999 33.8259 77.9999H20.3477V45.6521H33.8259C35.3153 45.6521 36.5216 46.8584 36.5216 48.3478Z" fill="#7BD8E8"/>
<path d="M63.4779 17.8869V11.6869C63.4779 10.9427 62.8743 10.3391 62.1301 10.3391C61.3858 10.3391 60.7822 10.9427 60.7822 11.6869V17.8869C60.7822 18.6312 61.3858 19.2348 62.1301 19.2348C62.8743 19.2348 63.4779 18.6312 63.4779 17.8869Z" fill="black"/>
<path d="M31.1301 52.3914C30.3861 52.3914 29.7822 52.9952 29.7822 53.7392C29.7822 54.4832 30.3861 55.087 31.1301 55.087C31.8741 55.087 32.4779 54.4832 32.4779 53.7392C32.4779 52.9952 31.8741 52.3914 31.1301 52.3914Z" fill="black"/>
<path d="M75.6087 44.3042H65.5469C67.1046 40.3143 67.7351 35.6179 67.6135 31.4374C67.5903 30.6396 67.5597 30.1782 67.5184 29.8878C67.4487 26.9755 65.0574 24.626 62.1304 24.626C59.1577 24.626 56.7391 27.0445 56.7391 30.0173V31.3651C56.7391 39.8896 45.7929 44.6791 37.5321 46.7329C36.9075 45.305 35.4818 44.3042 33.8261 44.3042H20.3478C19.6036 44.3042 19 44.9078 19 45.6521V77.9999C19 78.7442 19.6036 79.3477 20.3478 79.3477H33.8261C35.4707 79.3477 36.8882 78.3602 37.5193 76.9474C38.2033 77.1229 38.8382 77.2886 39.4244 77.4418C44.1304 78.6708 46.7226 79.3477 53.0272 79.3477H67.5217C70.4945 79.3477 72.913 76.9292 72.913 73.9564C72.913 72.848 72.5765 71.8169 72.0006 70.9591C74.0827 70.2309 75.6087 68.2415 75.6087 65.8695C75.6087 64.765 75.2804 63.7306 74.7062 62.8689C76.7791 62.1395 78.3043 60.1547 78.3043 57.7825C78.3043 56.674 77.9678 55.643 77.3919 54.7852C79.474 54.057 81 52.0676 81 49.6955C81 46.7228 78.5815 44.3042 75.6087 44.3042ZM35.1739 75.3042C35.1739 76.0474 34.5693 76.6521 33.8261 76.6521H21.6957V46.9999H33.8261C34.5693 46.9999 35.1739 47.6045 35.1739 48.3477V75.3042ZM75.6087 52.3912C72.7177 52.3912 72.0286 52.3912 68.8696 52.3912C68.1253 52.3912 67.5217 52.9948 67.5217 53.739C67.5217 54.4833 68.1253 55.0868 68.8696 55.0868H72.913C74.3994 55.0868 75.6087 56.2961 75.6087 57.7825C75.6087 59.2713 74.4019 60.4782 72.913 60.4782H66.1739C65.4296 60.4782 64.8261 61.0817 64.8261 61.826C64.8261 62.5702 65.4296 63.1738 66.1739 63.1738H70.2174C71.6861 63.1738 72.913 64.3471 72.913 65.8695C72.913 67.3583 71.7062 68.5651 70.2174 68.5651C67.3264 68.5651 66.6373 68.5651 63.4783 68.5651C62.734 68.5651 62.1304 69.1687 62.1304 69.9129C62.1304 70.6572 62.734 71.2608 63.4783 71.2608H67.5217C69.0081 71.2608 70.2174 72.47 70.2174 73.9564C70.2174 75.4428 69.0081 76.6521 67.5217 76.6521H53.0272C47.0689 76.6521 44.7417 76.0443 40.1056 74.8336C39.4264 74.6562 38.6815 74.4617 37.8696 74.2547V49.4293C47.6235 47.106 59.4348 41.4349 59.4348 31.3651V30.0173C59.4348 28.5309 60.6441 27.3216 62.1304 27.3216C63.6141 27.3216 64.8233 28.529 64.8261 30.0131V30.0173C64.8261 30.603 65.5572 37.7919 62.6256 44.3042H58.087C57.3427 44.3042 56.7391 44.9078 56.7391 45.6521C56.7391 46.3963 57.3427 46.9999 58.087 46.9999C59.0281 46.9999 74.0724 46.9999 75.6087 46.9999C77.0951 46.9999 78.3043 48.2092 78.3043 49.6955C78.3043 51.1844 77.0975 52.3912 75.6087 52.3912Z" fill="black"/>
<path d="M31.1301 57.7827C30.3858 57.7827 29.7822 58.3863 29.7822 59.1305V69.9131C29.7822 70.6574 30.3858 71.261 31.1301 71.261C31.8743 71.261 32.4779 70.6574 32.4779 69.9131V59.1305C32.4779 58.3863 31.8743 57.7827 31.1301 57.7827Z" fill="black"/>
<path d="M44.6084 28.6696C44.6084 29.4139 45.212 30.0174 45.9562 30.0174H51.3475C52.0918 30.0174 52.6954 29.4139 52.6954 28.6696C52.6954 27.9253 52.0918 27.3218 51.3475 27.3218H45.9562C45.212 27.3218 44.6084 27.9253 44.6084 28.6696Z" fill="black"/>
<path d="M71.5654 28.6696C71.5654 29.4139 72.1689 30.0174 72.9132 30.0174H78.3045C79.0488 30.0174 79.6523 29.4139 79.6523 28.6696C79.6523 27.9253 79.0488 27.3218 78.3045 27.3218H72.9132C72.1689 27.3218 71.5654 27.9253 71.5654 28.6696Z" fill="black"/>
<path d="M72.6134 16.2801L68.8019 20.0917C68.2756 20.618 68.2756 21.4714 68.8019 21.9979C69.3285 22.5242 70.1815 22.5241 70.7081 21.9979L74.5196 18.1864C75.046 17.66 75.046 16.8066 74.5196 16.2801C73.9932 15.754 73.14 15.754 72.6134 16.2801Z" fill="black"/>
<path d="M55.4581 21.9979C55.9844 21.4716 55.9844 20.6181 55.4581 20.0917L51.6465 16.2801C51.1201 15.754 50.2669 15.754 49.7403 16.2801C49.214 16.8065 49.214 17.6599 49.7403 18.1864L53.5518 21.9979C54.0786 22.5242 54.9316 22.5241 55.4581 21.9979Z" fill="black"/>
</svg>
