<?xml version="1.0" encoding="UTF-8"?>
<svg width="95px" height="95px" viewBox="0 0 95 95" version="1.1" xmlns="http://www.w3.org/2000/svg" xmlns:xlink="http://www.w3.org/1999/xlink">
    <title>Untitled</title>
    <g id="Page-1" stroke="none" stroke-width="1" fill="none" fill-rule="evenodd">
        <g id="advantages_4" fill-rule="nonzero">
            <path d="M6.72383627,26.0299916 C-4.30578584,44.8873869 -1.76160365,68.682581 14.3249709,83.9905772 C29.3452945,98.2838737 53.1475406,97.4979739 72.1309125,88.2715762 C88.9380619,80.1028782 96.614577,62.6193825 94.7176751,44.9176869 C92.6314961,25.4494917 83.077802,5.47989668 62.7925173,1.12572776 C40.5138851,-3.65631106 17.7370192,7.20086625 6.72383627,26.0299916 Z" id="Path" fill="#66BB83" opacity="0.2"></path>
            <path d="M5.57398488,69.7650322 C-4.90341408,51.4344357 -0.0163614889,35.6697695 15.2647346,20.7893218 C29.5328789,6.89515575 49.0955904,2.78666621 67.1284237,11.7554168 C83.0939663,19.6959182 93.6012595,31.9508119 91.7994077,49.1581928 C89.8176921,68.0826179 80.4692435,88.5895824 61.1997698,92.8221677 C40.0367492,97.4706137 16.035638,88.0683261 5.57398488,69.7650322 Z" id="Path" fill="#66BB83"></path>
            <path d="M56.8620707,76 L70.8965867,76 C73.7151381,76 76,73.8021549 76,71.0909453 L76,26.9091542 C76,24.1979446 73.7151381,22 70.8965867,22 L7.1034547,22 C4.28490324,22 2,24.1979446 2,26.9091542 L2,71.0909453 C2,73.8021549 4.28490324,76 7.1034547,76 L46.6551407,76" id="Path" fill="#FFDC00"></path>
            <path d="M70.8571577,22 L67,22 C69.8403276,22 72.1428423,24.1979446 72.1428423,26.9091542 L72.1428423,71.0909453 C72.1428423,73.8021549 69.8403276,76 67,76 L70.8571577,76 C73.6974853,76 76,73.8021549 76,71.0909453 L76,26.9091542 C76,24.1979446 73.6974853,22 70.8571577,22 Z" id="Path" fill="#FEC108"></path>
            <path d="M49,67 L15.0322285,67 C12.2529915,67 10,64.761457 10,61.9999421 L10,37.0000579 C10,34.2386443 12.2529915,32 15.0322285,32 L49,32 L49,67 Z" id="Path" fill="#F5F5F5"></path>
            <polygon id="Path" fill="#CFD8DC" points="46 32 50 32 50 67 46 67"></polygon>
            <path d="M70.4704715,43.3000325 C70.8124137,43.6517213 71.0019744,44.1170249 71,44.5999636 C71.0020791,45.3472264 70.5525795,46.0266852 69.8504721,46.3375294 C69.1456417,46.653948 68.6927907,47.3356366 68.6879732,48.0874601 C68.6857739,48.3143856 68.7296556,48.5394867 68.8171048,48.7499932 C68.9023547,48.9611079 68.9461317,49.1858036 68.9462364,49.4125264 C68.9407905,50.4424578 68.0981359,51.2854975 67.0346065,51.3250245 C66.0020771,51.3616123 65.1737704,52.1633006 65.1358583,53.1625226 C65.1244428,53.6550897 64.9105849,54.1229271 64.5417271,54.4624537 C64.1738119,54.8147507 63.677184,55.0123856 63.1596102,55.012487 C62.92533,55.0123856 62.6932491,54.9699195 62.4749926,54.8875209 C62.2574691,54.8028926 62.0248646,54.7604264 61.7904797,54.7624534 C61.0134906,54.767217 60.3090791,55.2053584 59.9821132,55.8874523 C59.6609074,56.5670125 58.9588,57.002012 58.1867331,57 C57.6875917,57.0019107 57.2068827,56.8184649 56.8433662,56.4874517 C56.106698,55.8187362 54.9650403,55.80252 54.2083687,56.4499518 C54.1954869,56.4625193 54.1696187,56.4749855 54.156737,56.4874517 C53.7932204,56.8184649 53.3124067,57.0019107 52.81337,57 C52.0411984,57.002012 51.3391957,56.5670125 51.01799,55.8874523 C50.691024,55.2053584 49.9866126,54.767217 49.2096234,54.7624534 C48.9751338,54.7604264 48.7425293,54.8028926 48.5250058,54.8875209 C48.306854,54.9699195 48.0746684,55.0123856 47.840493,55.012487 C47.3229191,55.0123856 46.8262912,54.8147507 46.458376,54.4624537 C46.0894135,54.1229271 45.8756604,53.6550897 45.8642448,53.1625226 C45.8263327,52.1633006 44.9980261,51.3616123 43.9654966,51.3250245 C42.9019673,51.2854975 42.0592079,50.4424578 42.053762,49.4125264 C42.0539714,49.1858036 42.0977484,48.9611079 42.1829983,48.7499932 C42.2704476,48.5394867 42.3143293,48.3143856 42.31213,48.0874601 C42.3073124,47.3356366 41.8544615,46.653948 41.1496311,46.3375294 C40.4475236,46.0266852 39.9979193,45.3472264 40,44.5999636 C39.9981288,44.1170249 40.1876894,43.6517213 40.5296317,43.3000325 C41.2357188,42.5680738 41.2357188,41.4319262 40.5296317,40.6999675 C40.1876894,40.3482787 39.9981288,39.8829751 40,39.4000364 C39.9979193,38.6527736 40.4475236,37.9734162 41.1496311,37.6624706 C41.8544615,37.346052 42.3073124,36.6644648 42.31213,35.9125399 C42.3143293,35.6856144 42.2704476,35.4605133 42.1829983,35.2500068 C42.0977484,35.0388921 42.0539714,34.8141964 42.053762,34.5874736 C42.0592079,33.5575422 42.9019673,32.7145025 43.9654966,32.6749755 C44.9980261,32.6383877 45.8263327,31.8368007 45.8642448,30.8374774 C45.9049847,29.8083568 46.7762305,28.9927833 47.840493,28.987513 C48.0746684,28.9877157 48.306854,29.0300805 48.5250058,29.1124791 C48.7425293,29.1972088 48.9751338,29.2396749 49.2096234,29.2375466 C49.9866126,29.2328844 50.691024,28.7946416 51.01799,28.1125477 C51.3391957,27.4329875 52.0411984,26.997988 52.81337,27 C53.3124067,26.9980893 53.7932204,27.1815351 54.156737,27.5125483 C54.9130944,28.1958584 56.0870088,28.1958584 56.8433662,27.5125483 C57.3074232,27.0956906 57.94973,26.9192381 58.5708814,27.0379204 C59.1919281,27.156704 59.7167283,27.5562307 59.9821132,28.1125477 C60.3090791,28.7946416 61.0134906,29.2328844 61.7904797,29.2375466 C62.0248646,29.2396749 62.2574691,29.1972088 62.4749926,29.1124791 C62.6932491,29.0300805 62.92533,28.9877157 63.1596102,28.987513 C64.2238727,28.9927833 65.0951185,29.8083568 65.1358583,30.8374774 C65.1737704,31.8368007 66.0020771,32.6383877 67.0346065,32.6749755 C68.0981359,32.7145025 68.9407905,33.5575422 68.9462364,34.5874736 C68.9461317,34.8141964 68.9023547,35.0388921 68.8171048,35.2500068 C68.7296556,35.4605133 68.6857739,35.6856144 68.6879732,35.9125399 C68.6927907,36.6644648 69.1456417,37.346052 69.8504721,37.6624706 C70.5525795,37.9734162 71.0020791,38.6527736 71,39.4000364 C71.0019744,39.8829751 70.8124137,40.3482787 70.4704715,40.6999675 C69.7642796,41.4319262 69.7642796,42.5680738 70.4704715,43.3000325 Z" id="Path" fill="#E91E63"></path>
            <path d="M69.9415797,41.9991403 C69.9456609,41.5172888 70.134236,41.0539857 70.4707829,40.6991347 C70.8124575,40.3473243 71.0018697,39.8819941 71,39.3990277 C71.002079,38.6517221 70.5528266,37.9723257 69.8512687,37.6614636 C69.14699,37.3450269 68.6944935,36.6632993 68.6896797,35.9113313 C68.6874821,35.6843928 68.7313295,35.4592788 68.8187103,35.2487602 C68.9038935,35.0376334 68.9476362,34.8129248 68.9478455,34.5862905 C68.9424038,33.5561987 68.1003041,32.7131107 67.0376071,32.6736828 C66.0058859,32.6369915 65.1782275,31.8353585 65.1403451,30.8360793 C65.0996372,29.8067984 64.2290733,28.9911781 63.1656438,28.9859075 C62.9316516,28.9861103 62.6996477,29.0284775 62.4816667,29.1109821 C62.2643135,29.1956153 62.031891,29.2380839 61.7975849,29.2359554 C61.021204,29.231293 60.3173438,28.7930251 59.9906338,28.110892 C59.7254566,27.5545432 59.2011719,27.1549936 58.5805066,27.0363045 C57.9598413,26.917514 57.3180373,27.0939767 56.8543435,27.5108583 C56.6104098,27.7153968 56.3190707,27.8598306 56.0051277,27.9320982 C56.0464636,27.9895676 56.084346,28.049267 56.1186704,28.110892 C56.4453804,28.7930251 57.1492406,29.231293 57.9256216,29.2359554 C58.1599277,29.2380839 58.3923501,29.1956153 58.6097033,29.1109821 C58.8276844,29.0284775 59.0596882,28.9861103 59.2936804,28.9859075 C60.3571099,28.9911781 61.2276738,29.8067984 61.2683817,30.8360793 C61.3062642,31.8353585 62.1339225,32.6369915 63.1656438,32.6736828 C64.2283407,32.7131107 65.0704405,33.5561987 65.0758821,34.5862905 C65.0756728,34.8129248 65.0319301,35.0376334 64.9467469,35.2487602 C64.8593661,35.4592788 64.8155188,35.6843928 64.8177164,35.9113313 C64.8225302,36.6632993 65.2750266,37.3450269 65.9793054,37.6614636 C66.6808633,37.9723257 67.1301157,38.6517221 67.1280227,39.3990277 C67.1299064,39.8819941 66.9404941,40.3473243 66.5988195,40.6991347 C65.893285,41.4311353 65.893285,42.5672466 66.5988195,43.2992473 C66.9404941,43.6509563 67.1299064,44.1162865 67.1280227,44.5993543 C67.1301157,45.3465585 66.6808633,46.0260562 65.9793054,46.3369183 C65.2750266,46.6533551 64.8225302,47.3350827 64.8177164,48.0870507 C64.8155188,48.3138878 64.8593661,48.5390018 64.9467469,48.7495204 C65.0319301,48.9607485 65.0756728,49.1853558 65.0758821,49.4120915 C65.0704405,50.4420819 64.2283407,51.2852713 63.1656438,51.3246992 C62.1339225,51.3613905 61.3062642,52.1630234 61.2683817,53.1623027 C61.2569751,53.654898 61.0433893,54.1227622 60.6747156,54.4624097 C60.3070883,54.8146254 59.8108491,55.0122717 59.2936804,55.0123731 C59.0596882,55.0122717 58.8276844,54.9698031 58.6097033,54.8873998 C58.3923501,54.8027667 58.1599277,54.7602981 57.9256216,54.7624266 C57.1492406,54.767089 56.4453804,55.2053569 56.1186704,55.8874899 C56.082567,55.9487096 56.0429055,56.0080035 56,56.0649661 C56.3159313,56.1365242 56.609154,56.2815662 56.8543435,56.4875237 C57.2175755,56.8184545 57.6980129,57.0019108 58.196659,57 C58.9682262,57.0020121 59.6696794,56.5669876 59.9906338,55.8874899 C60.3173438,55.2053569 61.021204,54.767089 61.7975849,54.7624266 C62.031891,54.7602981 62.2643135,54.8027667 62.4816667,54.8873998 C62.6996477,54.9698031 62.9316516,55.0122717 63.1656438,55.0123731 C63.6828125,55.0122717 64.1790517,54.8146254 64.5466789,54.4624097 C64.9153526,54.1227622 65.1289385,53.654898 65.1403451,53.1623027 C65.1782275,52.1630234 66.0058859,51.3613905 67.0376071,51.3246992 C68.1003041,51.2852713 68.9424038,50.4420819 68.9478455,49.4120915 C68.9476362,49.1853558 68.9038935,48.9607485 68.8187103,48.7495204 C68.7313295,48.5390018 68.6874821,48.3138878 68.6896797,48.0870507 C68.6944935,47.3350827 69.14699,46.6533551 69.8512687,46.3369183 C70.5528266,46.0260562 71.002079,45.3465585 71,44.5993543 C71.0018697,44.1162865 70.8124575,43.6509563 70.4707829,43.2992473 C70.134236,42.9442949 69.9456609,42.4810931 69.9415797,41.9991403 Z" id="Path" fill="#AD1457"></path>
            <path d="M56,50 C60.9706254,50 65,46.1944031 65,41.5000492 C65,36.8055969 60.9706254,33 56,33 C51.0294789,33 47,36.8055969 47,41.5000492 C47,46.1944031 51.0294789,50 56,50 Z" id="Path" fill="#FFDC00"></path>
            <path d="M55.9386801,33 C55.2866548,33.0008966 54.6367254,33.0681409 54,33.2003649 C58.1441645,34.0609531 61.0944165,37.5123637 61.0944165,41.4998575 C61.0944165,45.4872529 58.1441645,48.938762 54,49.7993502 C57.3877649,50.502904 60.905369,49.3243087 63.0546841,46.7655823 C65.2041039,44.2067575 65.6066158,40.7186234 64.0908824,37.7864602 C62.5751489,34.8543955 59.408184,32.9948909 55.9386801,33 Z" id="Path" fill="#FEC108"></path>
            <path d="M57,69.0187266 L57,84 L52,79.0062759 L47,84 L47,54 C47.3560497,54.3517563 47.8366611,54.5491447 48.3374415,54.5493471 C48.564166,54.5491447 48.7888634,54.5068327 48.9999797,54.4244357 C49.2104879,54.3399129 49.4355908,54.2974997 49.662518,54.2996255 C50.4144487,54.3042818 51.0960412,54.7419779 51.4124622,55.423221 C51.7233089,56.1018322 52.402773,56.5363903 53.1500416,56.5343658 C53.632984,56.5361879 54.0982912,56.3529709 54.4499828,56.0224719 C54.4625504,56.0100213 54.487483,55.9974694 54.5000507,55.9850187 L54.5000507,71.5156392 L57,69.0187266 Z" id="Path" fill="#E91E63"></path>
            <path d="M65,54 L65,71 L60.0000507,66.1531869 L55,71 L55,55.9265822 C55.7323624,55.2988956 56.8370884,55.314713 57.5499914,55.9629328 C57.9017807,56.2837023 58.3670832,56.4615256 58.8500208,56.4597572 C59.5972818,56.4617221 60.2766376,56.0399568 60.5874811,55.3813231 C60.9040003,54.720135 61.5855859,54.2953241 62.337509,54.2908049 C62.5644339,54.2887417 62.7895345,54.3299063 63.0000405,54.4119408 C63.2111547,54.4919121 63.4358499,54.5329785 63.6624707,54.533175 C64.1633474,54.5329785 64.6439539,54.341401 65,54 Z" id="Path" fill="#E91E63"></path>
            <path d="M63.5734054,54.533175 C63.3315676,54.5329785 63.0918919,54.4919121 62.8667027,54.412039 C62.6421622,54.3299063 62.4020541,54.2887417 62.16,54.2908049 C61.7442162,54.2953241 61.3396757,54.4144952 61,54.6325006 L61,67.3649393 L65,71 L65,54 C64.6202162,54.3414992 64.1075676,54.5330767 63.5734054,54.533175 Z" id="Path" fill="#AD1457"></path>
            <path d="M70.6666324,21 L7.33336757,21 C3.83726486,21.0040915 1.00419027,23.7569638 1,27.1538961 L1,71.4617082 C1.00419027,74.8587403 3.83726486,77.6115128 7.33336757,77.6156043 L45.3333676,77.6156043 L45.3333676,83.7695004 C45.3334703,84.2671649 45.6420919,84.7158314 46.1153459,84.906335 C46.5886,85.0967389 47.1332324,84.9914579 47.4955676,84.63959 L51.6666324,80.5867225 L55.8378,84.63959 C56.2000324,84.9914579 56.7447676,85.0967389 57.2180216,84.906335 C57.6912757,84.7158314 57.9998973,84.2671649 58,83.7695004 L58,77.6156043 L70.6666324,77.6156043 C74.1627351,77.6115128 76.9957892,74.8587403 77,71.4617082 L77,27.1538961 C76.9957892,23.7569638 74.1627351,21.0040915 70.6666324,21 Z M41.926,45.0800984 C41.7302486,44.9923809 41.5894432,44.818842 41.5473351,44.6133695 C41.5053297,44.407897 41.5669514,44.1952395 41.7132,44.0413596 C42.846627,42.8444499 42.846627,41.0031809 41.7132,39.8062712 C41.5664378,39.6521918 41.5047135,39.4390353 41.547027,39.2331637 C41.5894432,39.027292 41.7308649,38.8536533 41.9272324,38.7662352 C43.4445622,38.0801626 44.1688216,36.3797006 43.5942,34.8523784 C43.5194324,34.6557875 43.5460324,34.4362442 43.6657838,34.261907 C43.7856378,34.0874699 43.9840595,33.9793948 44.1996324,33.971112 C45.8724541,33.902854 47.2124162,32.6007632 47.2827676,30.9754449 C47.2910865,30.7656813 47.4025189,30.5724833 47.5822486,30.4560256 C47.7620811,30.3396677 47.9884378,30.314021 48.1909676,30.3871688 C49.7630378,30.942214 51.5110378,30.2387776 52.2189676,28.7662414 C52.3085243,28.575638 52.4869189,28.4384234 52.6983838,28.3974088 C52.9099514,28.3564939 53.1288108,28.4167685 53.2867676,28.5594716 C54.5189946,29.66088 56.414373,29.66088 57.6466,28.5594716 C57.8049676,28.4168683 58.0241351,28.3567933 58.2358054,28.3980075 C58.4475784,28.4392218 58.625973,28.5766359 58.7156324,28.7674389 C59.4221243,30.2406736 61.1709459,30.9441101 62.7424,30.3871688 C62.9449297,30.314021 63.1712865,30.3396677 63.3510162,30.4560256 C63.5308486,30.5724833 63.6421784,30.7656813 63.6506,30.9754449 C63.7216703,32.6030584 65.0648162,33.9060474 66.74,33.9724093 C66.9554703,33.9802929 67.1539946,34.0880687 67.2738486,34.2622064 C67.3937027,34.4364438 67.4203027,34.6558873 67.3454324,34.8523784 C66.7704,36.38 67.4953784,38.0810608 69.0136324,38.7662352 C69.2094865,38.8540525 69.3501892,39.0274916 69.3922973,39.2329641 C69.4344054,39.4384366 69.3727838,39.6510941 69.2264324,39.8050737 C68.0931081,41.0019834 68.0931081,42.8431526 69.2264324,44.0400623 C69.3731946,44.1942415 69.4350216,44.4072982 69.3926054,44.6131699 C69.3502919,44.8190416 69.2088703,44.9926803 69.0124,45.0800984 C67.4950703,45.7661709 66.7708108,47.4667327 67.3454324,48.9939551 C67.4202,49.1906459 67.3936,49.4101891 67.2738486,49.5845264 C67.1539946,49.7588637 66.955573,49.8669388 66.74,49.8752216 C65.0624541,49.9405856 63.7178703,51.2470673 63.6506,52.8770758 C63.6421784,53.0868394 63.5308486,53.2800374 63.3510162,53.3964951 C63.1712865,53.512853 62.9449297,53.5384997 62.7424,53.4653519 C61.1703297,52.9097079 59.4218162,53.6133439 58.7144,55.0862793 C58.6281297,55.278679 58.4492216,55.417091 58.2368324,55.4555111 C58.0248541,55.4986214 57.8044541,55.4384466 57.6466,55.2943464 C56.4141676,54.193437 54.5192,54.193437 53.2867676,55.2943464 C53.1287081,55.438247 52.9085135,55.4984218 52.6964324,55.4555111 C52.4838378,55.4169912 52.3045189,55.2787788 52.2176324,55.0862793 C51.5116541,53.6126454 49.7624216,52.9090094 48.1909676,53.4665494 C47.9884378,53.539797 47.7620811,53.5141503 47.5822486,53.3976926 C47.4025189,53.2812349 47.2910865,53.0880369 47.2827676,52.8782733 C47.2154973,51.2478656 45.8713243,49.9405856 44.1933676,49.8739243 C43.9777946,49.8661405 43.7792703,49.7582649 43.6594162,49.5841272 C43.5396649,49.4098897 43.5129622,49.1904463 43.5878324,48.9939551 C44.1638919,47.4679302 43.4417892,45.767568 41.926,45.0800984 Z M55.8390324,68.1287429 L55.4666324,68.49059 L55.4666324,56.9213612 C55.6361946,56.920962 55.7995946,56.9829331 55.9239676,57.0949001 C56.5109135,57.6295876 57.2853946,57.9269689 58.0899676,57.9268691 C58.3051297,57.9264699 58.5197784,57.9059127 58.7308324,57.865397 C59.7387568,57.6741948 60.5887243,57.0199561 61.0108324,56.1102488 C61.1592378,55.7999943 61.5278378,55.6522018 61.8582324,55.7705556 C62.2436757,55.9032794 62.6517135,55.9630551 63.0603676,55.9465893 L63.0603676,68.49059 L60.1558324,65.6684618 C59.6612162,65.1879615 58.8594162,65.1879615 58.3648,65.6684618 L55.8390324,68.1287429 Z M55.4666324,80.7983821 L52.5622,77.9761541 C52.0675838,77.4957537 51.2657838,77.4957537 50.7711676,77.9761541 L47.8666324,80.7983821 L47.8666324,55.9440945 C48.2752865,55.9606601 48.6833243,55.9008844 49.0687676,55.7681606 C49.3984432,55.6491083 49.7669405,55.7965016 49.9148324,56.1065565 C50.338173,57.018559 51.191427,57.6736959 52.2024324,57.8629022 C52.4430649,57.9092059 52.6882162,57.9293639 52.9333676,57.9231768 L52.9333676,71.4617082 C52.9334703,71.9594726 53.2420919,72.4081391 53.7153459,72.5985429 C54.1886,72.7890465 54.7332324,72.6837656 55.0955676,72.3318977 L55.4666324,71.9712481 L55.4666324,80.7983821 Z M74.4666324,71.4617082 C74.4666324,73.5009653 72.7653622,75.1540259 70.6666324,75.1540259 L58,75.1540259 L58,69.5097695 L59.2666324,68.2789304 L63.4378,72.3318977 C63.8000324,72.6837656 64.3447676,72.7890465 64.8180216,72.5985429 C65.2912757,72.4081391 65.5998973,71.9594726 65.6,71.4617082 L65.6,54.6087728 C65.9535027,54.1264763 66.1555189,53.5548656 66.1814,52.9631966 C66.1969081,52.6218069 66.4785189,52.3486752 66.8299676,52.3343051 C67.8567892,52.2957853 68.8025784,51.7815552 69.3732973,50.9511829 C69.9441189,50.1208106 70.0708541,49.0749865 69.7141676,48.1385349 C69.5931838,47.8182014 69.7451838,47.4613439 70.0637676,47.3176429 C70.9979514,46.9006106 71.6698324,46.0736312 71.8704108,45.0938697 C72.0709892,44.1140085 71.7759243,43.1002178 71.0770324,42.3674424 C70.8389676,42.1159656 70.8389676,41.7291704 71.0770324,41.4776936 C71.776027,40.7452177 72.0709892,39.7315268 71.8704108,38.7518651 C71.6698324,37.7722034 70.9979514,36.9454236 70.0637676,36.5286907 C69.7442595,36.3858878 69.5914378,36.0284315 69.7128324,35.7077986 C70.0696216,34.771347 69.9428865,33.725523 69.3720649,32.8951507 C68.8012432,32.0648782 67.8555568,31.5505483 66.8286324,31.5120284 C66.4772865,31.4977581 66.195573,31.2245266 66.1801676,30.8831369 C66.1417568,29.8850136 65.6130432,28.9653272 64.7585568,28.4100824 C63.9040703,27.8548377 62.8273351,27.7313945 61.8633676,28.078173 C61.5335892,28.1992211 61.1637568,28.0512291 61.0172,27.7397771 C60.5880054,26.8319659 59.7369081,26.1791242 58.7284703,25.9842297 C57.7201351,25.7893352 56.6766757,26.0760387 55.9226324,26.7551258 C55.6642324,26.9863447 55.2665676,26.9863447 55.0081676,26.7551258 C54.2543297,26.0760387 53.2110757,25.7893352 52.2028432,25.9842297 C51.1946108,26.1791242 50.3437189,26.8319659 49.9148324,27.7397771 C49.7678649,28.0514286 49.3979297,28.1997201 49.0674324,28.0794703 C48.1034649,27.7326918 47.0267297,27.8560352 46.1722432,28.4112799 C45.3177568,28.9665247 44.7890432,29.8862111 44.7506324,30.8844342 C44.735227,31.2258239 44.4535135,31.4989556 44.1021676,31.5133257 C43.0752432,31.5517458 42.1295568,32.0660757 41.5587351,32.896448 C40.9879135,33.7267205 40.8611784,34.7725445 41.2179676,35.7089961 C41.3388486,36.0293296 41.1868486,36.3862869 40.8683676,36.529988 C39.9340811,36.9470203 39.2622,37.7739996 39.0616216,38.7537611 C38.8610432,39.7336224 39.1561081,40.7474131 39.855,41.4800887 C40.0930649,41.7315654 40.0930649,42.1184605 39.855,42.3699372 C39.1561081,43.1024132 38.8610432,44.1161041 39.0616216,45.0957658 C39.2622,46.0754275 39.9340811,46.9021075 40.8683676,47.3189402 C41.187773,47.4616433 41.3405946,47.8190996 41.2192,48.1398322 C40.8625135,49.0762838 40.9892486,50.1221079 41.5599676,50.9523804 C42.1307892,51.7827527 43.0764757,52.2970826 44.1034,52.3355026 C44.4547459,52.3498727 44.7364595,52.6230045 44.7519676,52.9644939 C44.7780541,53.5556639 44.9800703,54.1267757 45.3333676,54.6087728 L45.3333676,75.1540259 L7.33336757,75.1540259 C5.23463784,75.1540259 3.53333676,73.5009653 3.53333676,71.4617082 L3.53333676,27.1538961 C3.53333676,25.1147388 5.23463784,23.4615784 7.33336757,23.4615784 L70.6666324,23.4615784 C72.7653622,23.4615784 74.4666324,25.1147388 74.4666324,27.1538961 L74.4666324,71.4617082 Z" id="Shape" fill="#000000"></path>
            <path d="M15.4000415,65.5334 C13.2792176,65.5334 11.5600374,63.8768 11.5600374,61.8334 L11.5600374,37.1667 C11.5600374,35.1233 13.2792176,33.4667 15.4000415,33.4667 L38.4400664,33.4667 C39.1469385,33.4667 39.7200332,32.9145 39.7200332,32.2334 C39.7200332,31.5522 39.1469385,31 38.4400664,31 L15.4000415,31 C11.8671339,31.0041 9.00425514,33.7626 9,37.1667 L9,61.8334 C9.00425514,65.2374 11.8671339,67.996 15.4000415,68 L39.7200332,68 C40.4270091,68 41,67.4479 41,66.7667 C41,66.0856 40.4270091,65.5334 39.7200332,65.5334 L15.4000415,65.5334 Z" id="Path" fill="#000000"></path>
            <path d="M16.2499683,50 L33.7500317,50 C34.4403369,50 35,49.5522582 35,49 C35,48.4476607 34.4403369,48 33.7500317,48 L16.2499683,48 C15.5596631,48 15,48.4476607 15,49 C15,49.5522582 15.5596631,50 16.2499683,50 Z" id="Path" fill="#000000"></path>
            <path d="M16.2499683,45 L33.7500317,45 C34.4403369,45 35,44.5522763 35,43.9999595 C35,43.4477237 34.4403369,43 33.7500317,43 L16.2499683,43 C15.5596631,43 15,43.4477237 15,43.9999595 C15,44.5522763 15.5596631,45 16.2499683,45 Z" id="Path" fill="#000000"></path>
            <path d="M16.2499683,40 L33.7500317,40 C34.4403369,40 35,39.5522582 35,39 C35,38.4476607 34.4403369,38 33.7500317,38 L16.2499683,38 C15.5596631,38 15,38.4476607 15,39 C15,39.5522582 15.5596631,40 16.2499683,40 Z" id="Path" fill="#000000"></path>
            <path d="M15.1081834,62.2998928 C15.3141739,62.7252493 15.7801972,63.0001794 16.295016,63 C16.4731983,63.0006525 16.6494918,62.967729 16.8126681,62.9031119 C18.0108339,62.5017858 19.1120383,61.8961069 20.0559428,61.1189989 C20.4064309,60.8037658 20.7128457,60.4511627 20.9683663,60.0688528 C21.4626175,60.5698009 22.0434415,60.9953465 22.6883816,61.3291227 C23.5878979,61.8593045 24.7074662,61.9883495 25.7259806,61.6790768 C26.1163447,61.5424632 26.4695612,61.3315825 26.7612848,61.0607205 C27.3469359,61.3906177 27.9921908,61.6256234 28.6676676,61.7549522 L29.6460962,61.9638461 C31.643249,62.4911897 33.7182648,62.7391566 35.7988422,62.6989483 C36.2600385,62.6689577 36.6684516,62.4193824 36.8702446,62.0442627 C37.0720377,61.6691429 37.0365691,61.2254326 36.777061,60.8803035 C36.5176577,60.5351744 36.0736711,60.3411339 35.6124749,60.3711246 C33.7969672,60.3925059 31.9884903,60.164312 30.2492716,59.6943007 L29.2488063,59.480771 C28.0413012,59.2299659 27.7306889,58.7911751 27.6025613,58.481997 C27.3770527,57.9391377 26.7435506,57.6278782 26.1152953,57.7511521 C25.4869351,57.874426 25.0543866,58.3949578 25.0995093,58.9732004 C25.1139905,59.1824728 25.0041219,59.382852 24.8109337,59.4995033 C24.5086114,59.5341298 24.2029312,59.463174 23.95675,59.3011109 C22.9101126,58.7136914 22.1229834,57.8158638 21.7307305,56.7621226 C21.5080551,56.2194526 20.877911,55.9059225 20.2500754,56.0252228 C19.622135,56.1445232 19.1859137,56.6607031 19.225055,57.2381888 C19.2468818,58.072913 18.884221,58.8784035 18.2233305,59.4632686 C17.5047248,60.029969 16.6752012,60.4707465 15.777259,60.7631791 C15.4624493,60.8868314 15.2150088,61.118242 15.0895047,61.4065118 C14.9640005,61.694687 14.9707165,62.0161642 15.1081834,62.2998928 Z" id="Path" fill="#000000"></path>
            <path d="M56.0000507,52 C61.5228978,52 66,47.5228978 66,42.0000507 C66,36.4772035 61.5228978,32 56.0000507,32 C50.4772035,32 46,36.4772035 46,42.0000507 C46.0061824,47.5202627 50.4797373,51.9938176 56.0000507,52 Z M56.0000507,34.500038 C60.1421861,34.500038 63.5000633,37.8579153 63.5000633,42.0000507 C63.5000633,46.1421861 60.1421861,49.5000633 56.0000507,49.5000633 C51.8579153,49.5000633 48.500038,46.1421861 48.500038,42.0000507 C48.5041934,37.8596383 51.8596383,34.5040921 56.0000507,34.500038 Z" id="Shape" fill="#000000"></path>
        </g>
    </g>
</svg>