<svg width="92" height="95" viewBox="0 0 92 95" fill="none" xmlns="http://www.w3.org/2000/svg">
<path opacity="0.2" d="M6.51152 26.03C-4.16982 44.8874 -1.70598 68.6826 13.8726 83.9906C28.4186 98.2839 51.4692 97.498 69.8531 88.2716C86.1295 80.1029 93.5636 62.6194 91.7266 44.9177C89.7063 25.4495 80.4543 5.4799 60.8096 1.12573C39.2345 -3.65631 17.1769 7.20087 6.51152 26.03Z" fill="#58B5F0"/>
<path d="M5.37315 69.8561C-4.72768 51.5942 -0.0162506 35.8887 14.7157 21.0641C28.4711 7.22214 47.3308 3.12907 64.7156 12.0641C80.1074 19.9748 90.2371 32.1838 88.5 49.3266C86.5895 68.1799 77.577 88.61 59 92.8267C38.5975 97.4577 15.4589 88.0907 5.37315 69.8561Z" fill="#58B5F0"/>
<g clip-path="url(#clip0_334_15188)">
<path d="M51.2734 21.0547H22.1641C20.9991 21.0547 20.0547 21.9991 20.0547 23.1641V70.8358C20.0547 72.0008 20.9991 72.9452 22.1641 72.9452H60.1327C61.2977 72.9452 62.2421 72.0008 62.2421 70.8358V32.0234L51.2734 21.0547Z" fill="#EDF2FA"/>
<path d="M62.2509 54.7203L56.2595 58.8894L58.3732 51.903L52.5566 47.4931H59.8543L62.2509 40.4497L64.6475 47.4931H71.9452L66.1287 51.903L68.2423 58.8894L62.2509 54.7203Z" fill="#2E9DE3"/>
<path d="M62.2422 32.0234L51.2734 21.0547V29.914C51.2734 31.0791 52.2178 32.0234 53.3828 32.0234H62.2422Z" fill="#FF5D5D"/>
<path d="M72.9451 47.157C72.8007 46.7276 72.3983 46.4384 71.9454 46.4384H65.4028L63.2495 40.1101C63.104 39.6826 62.7025 39.3951 62.251 39.3951C61.7995 39.3951 61.398 39.6826 61.2525 40.1101L59.0993 46.4384H52.5568C52.1038 46.4384 51.7014 46.7276 51.557 47.157C51.4126 47.5864 51.5586 48.0599 51.9195 48.3336L57.1513 52.3001L55.2501 58.5841C55.1202 59.0139 55.2765 59.4789 55.6397 59.7428C56.0029 60.0067 56.4935 60.0117 56.8621 59.7552L62.2511 56.0053L67.6401 59.7552C67.8213 59.8814 68.0319 59.9442 68.2426 59.9442C68.4603 59.9442 68.6778 59.8769 68.8625 59.7428C69.2257 59.4789 69.3821 59.0139 69.2521 58.5841L67.3509 52.3001L72.5827 48.3336C72.9435 48.0599 73.0894 47.5863 72.9451 47.157ZM65.4916 51.0625C65.1401 51.329 64.9916 51.7861 65.1193 52.2084L66.3544 56.2907L62.8535 53.8546C62.6725 53.7285 62.4618 53.6656 62.2511 53.6656C62.0404 53.6656 61.8298 53.7285 61.6487 53.8546L58.1479 56.2907L59.3829 52.2084C59.5106 51.7862 59.3621 51.329 59.0106 51.0625L55.6936 48.5478H59.8545C60.3061 48.5478 60.7076 48.2603 60.853 47.8328L62.2511 43.724L63.6492 47.8328C63.7946 48.2603 64.1962 48.5478 64.6477 48.5478H68.8085L65.4916 51.0625Z" fill="black"/>
<path d="M62.2421 59.9726C61.6596 59.9726 61.1874 60.4448 61.1874 61.0273V70.8358C61.1874 71.4174 60.7143 71.8905 60.1327 71.8905H22.1641C21.5825 71.8905 21.1094 71.4174 21.1094 70.8358V23.1641C21.1094 22.5825 21.5825 22.1094 22.1641 22.1094H50.2187V29.914C50.2187 31.6587 51.6381 33.0781 53.3827 33.0781H61.1874V36.1367C61.1874 36.7192 61.6596 37.1914 62.2421 37.1914C62.8246 37.1914 63.2968 36.7192 63.2968 36.1367V32.0234C63.2959 32.0234 63.2951 32.0233 63.2943 32.0233C63.2942 31.749 63.1895 31.4793 62.9879 31.2776L52.0191 20.3089C51.8175 20.1073 51.5478 20.0026 51.2735 20.0025C51.2735 20.0017 51.2734 20.0009 51.2734 20H22.1641C20.4194 20 19 21.4194 19 23.1641V70.8358C19 72.5805 20.4194 73.9999 22.1641 73.9999H60.1327C61.8774 73.9999 63.2968 72.5805 63.2968 70.8358V61.0273C63.2968 60.4448 62.8246 59.9726 62.2421 59.9726ZM53.3827 30.9687C52.8012 30.9687 52.3281 30.4956 52.3281 29.914V23.6009L59.6959 30.9687H53.3827Z" fill="black"/>
<path d="M29.3359 38.5625H46C46.5825 38.5625 47.0547 38.0903 47.0547 37.5078C47.0547 36.9253 46.5825 36.4531 46 36.4531H29.3359C28.7534 36.4531 28.2812 36.9253 28.2812 37.5078C28.2812 38.0903 28.7534 38.5625 29.3359 38.5625Z" fill="black"/>
<path d="M29.3359 44.0468H46.0447C46.6272 44.0468 47.0994 43.5747 47.0994 42.9921C47.0994 42.4096 46.6272 41.9375 46.0447 41.9375H29.3359C28.7534 41.9375 28.2812 42.4096 28.2812 42.9921C28.2812 43.5747 28.7534 44.0468 29.3359 44.0468Z" fill="black"/>
<path d="M29.3359 33.0781H45.9552C46.5378 33.0781 47.0099 32.6059 47.0099 32.0234C47.0099 31.4409 46.5378 30.9687 45.9552 30.9687H29.3359C28.7534 30.9687 28.2812 31.4409 28.2812 32.0234C28.2812 32.6059 28.7534 33.0781 29.3359 33.0781Z" fill="black"/>
<path d="M45.2993 47.7308C45.1031 47.927 44.9902 48.1991 44.9902 48.4765C44.9902 48.7539 45.1031 49.026 45.2993 49.2222C45.4954 49.4183 45.7675 49.5312 46.0449 49.5312C46.3234 49.5312 46.5944 49.4183 46.7916 49.2222C46.9878 49.026 47.1007 48.7539 47.1007 48.4765C47.1007 48.1991 46.9878 47.927 46.7916 47.7308C46.5944 47.5347 46.3234 47.4218 46.0449 47.4218C45.7675 47.4218 45.4954 47.5347 45.2993 47.7308Z" fill="black"/>
<path d="M29.3359 49.5312H41.238C41.8205 49.5312 42.2926 49.059 42.2926 48.4765C42.2926 47.894 41.8205 47.4218 41.238 47.4218H29.3359C28.7534 47.4218 28.2812 47.894 28.2812 48.4765C28.2812 49.059 28.7534 49.5312 29.3359 49.5312Z" fill="black"/>
<path d="M52.062 52.9062H29.3359C28.7534 52.9062 28.2812 53.3784 28.2812 53.9609C28.2812 54.5434 28.7534 55.0156 29.3359 55.0156H52.062C52.6445 55.0156 53.1167 54.5434 53.1167 53.9609C53.1167 53.3784 52.6445 52.9062 52.062 52.9062Z" fill="black"/>
<path d="M52.0625 58.3905H29.3359C28.7534 58.3905 28.2812 58.8627 28.2812 59.4452C28.2812 60.0277 28.7534 60.4999 29.3359 60.4999H52.0625C52.645 60.4999 53.1172 60.0277 53.1172 59.4452C53.1172 58.8627 52.645 58.3905 52.0625 58.3905Z" fill="black"/>
<path d="M28.5903 64.1839C28.3941 64.3801 28.2812 64.6522 28.2812 64.9296C28.2812 65.207 28.3941 65.4791 28.5903 65.6753C28.7864 65.8714 29.0586 65.9843 29.3359 65.9843C29.6133 65.9843 29.8854 65.8714 30.0816 65.6753C30.2778 65.4791 30.3906 65.207 30.3906 64.9296C30.3906 64.6522 30.2778 64.3801 30.0816 64.1839C29.8854 63.9878 29.6133 63.8749 29.3359 63.8749C29.0586 63.8749 28.7864 63.9878 28.5903 64.1839Z" fill="black"/>
<path d="M52.0618 63.8749H34.1426C33.5601 63.8749 33.0879 64.3471 33.0879 64.9296C33.0879 65.5121 33.5601 65.9843 34.1426 65.9843H52.0618C52.6443 65.9843 53.1165 65.5121 53.1165 64.9296C53.1165 64.3471 52.6443 63.8749 52.0618 63.8749Z" fill="black"/>
</g>
<defs>
<clipPath id="clip0_334_15188">
<rect width="54" height="54" fill="white" transform="translate(19 20)"/>
</clipPath>
</defs>
</svg>
