<?xml version="1.0" encoding="UTF-8"?>
<svg width="95px" height="95px" viewBox="0 0 95 95" version="1.1" xmlns="http://www.w3.org/2000/svg" xmlns:xlink="http://www.w3.org/1999/xlink">
    <title>Untitled</title>
    <g id="Page-1" stroke="none" stroke-width="1" fill="none" fill-rule="evenodd">
        <g id="advantages_2" fill-rule="nonzero">
            <path d="M88.771688,25.7560266 C98.9884966,44.4149524 96.6317446,67.9596998 81.7306738,83.1065349 C67.8171288,97.2492779 45.7686186,96.4716407 28.1840038,87.3425214 C12.6153241,79.2597468 5.50439558,61.9603093 7.26151873,44.4448615 C9.19395452,25.1816764 18.0437369,5.42221827 36.8343194,1.11388014 C57.4713451,-3.61782877 78.5700045,7.12507289 88.771688,25.7560266 Z" id="Path" fill="#63A3AF" opacity="0.2"></path>
            <path d="M86.4393712,67.70528 C96.8915839,47.9318136 92.0164898,30.9263589 76.7717098,14.874608 C62.5375646,-0.113081398 43.0213387,-4.54494581 25.0314034,5.12968115 C9.10393724,13.6951844 -1.6009751,30.4202945 0.196639336,48.9820373 C2.17363391,69.395898 14.0814794,89.2537243 33.3050357,93.8195138 C54.4176909,98.8340829 76.0026437,87.4492014 86.4393712,67.70528 Z" id="Path" fill="#63A3AF"></path>
            <path d="M66.9062726,51.1502361 C68.9256997,51.1502361 70.5624548,52.8550516 70.5624548,54.9585458 C70.5624548,57.0607214 68.9245242,58.7668555 66.9062726,58.7668555 L65.3218727,58.7668555 L65.2987243,58.8670667 C66.9183893,59.256798 68.125,60.7687257 68.125,62.575071 C68.125,64.6772466 66.486979,66.3833806 64.4687274,66.3833806 L62.0312726,66.3833806 C64.0506997,66.3833806 65.6874548,68.0881961 65.6874548,70.1916903 C65.6874548,72.2950903 64.0506997,74 62.0312726,74 C60.5780772,74 50.3104933,74 48.9247538,74 C42.249694,74 40.475224,73.1468859 34,71.4610955 L34,46.0725213 C34.1289439,45.9673183 53.5,42.2797519 53.5,30.0777148 L53.5,28.8083097 C53.5,26.7048155 55.136755,25 57.1562726,25 C59.1732583,25 60.8088378,26.7010481 60.8124548,28.8019052 C60.8368691,28.8019052 61.5997719,36.8157905 58.375,43.5336168 L69.3437274,43.5336168 C71.363245,43.5336168 73,45.2385264 73,47.3419265 C73,49.4441021 71.361979,51.1502361 69.3437274,51.1502361 L66.9062726,51.1502361 Z" id="Path" fill="#FFBFAB"></path>
            <path d="M33,45.5833813 L33,71.4167146 C33,72.8439616 31.8812531,74 30.4999536,74 L18,74 L18,43 L30.4999536,43 C31.8812531,43 33,44.1560384 33,45.5833813 Z" id="Path" fill="#7BD8E8"></path>
            <path d="M58,17.6362962 L58,11.3636026 C58,10.6106771 57.5521757,10 57.0000371,10 C56.4478243,10 56,10.6106771 56,11.3636026 L56,17.6362962 C56,18.3893229 56.4478243,19 57.0000371,19 C57.5521757,19 58,18.3893229 58,17.6362962 Z" id="Path" fill="#000000"></path>
            <path d="M28.0000371,49 C27.4480469,49 27,49.671984 27,50.5 C27,51.328016 27.4480469,52 28.0000371,52 C28.5520273,52 29,51.328016 29,50.5 C29,49.671984 28.5520273,49 28.0000371,49 Z" id="Path" fill="#000000"></path>
            <path d="M69.0434823,41.6994629 L59.7931177,41.6994629 C61.2251968,37.9080091 61.80485,33.4451945 61.6930565,29.4726206 C61.6717274,28.7145008 61.6435952,28.2760495 61.6056258,28.0000932 C61.5415468,25.2326426 59.3430935,23 56.6521419,23 C53.9191758,23 51.6956242,25.2982108 51.6956242,28.1231522 L51.6956242,29.4039165 C51.6956242,37.5044324 41.6321823,42.0557165 34.0375758,44.0073664 C33.4633468,42.650486 32.1526226,41.6994629 30.6304468,41.6994629 L18.2391065,41.6994629 C17.5549226,41.6994629 17,42.2730416 17,42.9803222 L17,73.7192357 C17,74.4265164 17.5549226,75 18.2391065,75 L30.6304468,75 C32.1424177,75 33.4456032,74.0616154 34.0258081,72.719084 C34.6546468,72.8858552 35.2383452,73.0433137 35.777271,73.188894 C40.1037548,74.3567671 42.4869065,75 48.283071,75 L61.6086597,75 C64.3417177,75 66.5651774,72.7017892 66.5651774,69.8768478 C66.5651774,68.8235764 66.2558145,67.8437603 65.7263581,67.0286248 C67.6405468,66.3366434 69.0434823,64.4461905 69.0434823,62.1921669 C69.0434823,61.1426016 68.7416581,60.1596496 68.2137645,59.3408081 C70.1194952,58.6476864 71.5216952,56.7616046 71.5216952,54.507391 C71.5216952,53.4540246 71.2123323,52.4743036 70.6828758,51.6591681 C72.5970645,50.9671867 74,49.0767337 74,46.8226152 C74,43.9977687 71.7765403,41.6994629 69.0434823,41.6994629 Z M31.8695532,71.1576121 C31.8695532,71.8638474 31.3137113,72.4384714 30.6304468,72.4384714 L19.4783048,72.4384714 L19.4783048,44.2610866 L30.6304468,44.2610866 C31.3137113,44.2610866 31.8695532,44.8356155 31.8695532,45.5418509 L31.8695532,71.1576121 Z M69.0434823,49.3842388 C66.3856274,49.3842388 65.7521,49.3842388 62.8478581,49.3842388 C62.1635823,49.3842388 61.6086597,49.9578175 61.6086597,50.6650031 C61.6086597,51.3722838 62.1635823,51.9457674 62.8478581,51.9457674 L66.5651774,51.9457674 C67.9317065,51.9457674 69.0434823,53.0949203 69.0434823,54.507391 C69.0434823,55.9221424 67.9340048,57.0690147 66.5651774,57.0690147 L60.3695532,57.0690147 C59.6852774,57.0690147 59.1304468,57.6424983 59.1304468,58.349779 C59.1304468,59.0569646 59.6852774,59.6305433 60.3695532,59.6305433 L64.0869645,59.6305433 C65.437221,59.6305433 66.5651774,60.7454867 66.5651774,62.1921669 C66.5651774,63.6069183 65.4557,64.7536955 64.0869645,64.7536955 C61.4291097,64.7536955 60.7955823,64.7536955 57.8913403,64.7536955 C57.2070645,64.7536955 56.6521419,65.3272742 56.6521419,66.0344598 C56.6521419,66.7417405 57.2070645,67.3153192 57.8913403,67.3153192 L61.6086597,67.3153192 C62.9751887,67.3153192 64.0869645,68.464377 64.0869645,69.8768478 C64.0869645,71.2893185 62.9751887,72.4384714 61.6086597,72.4384714 L48.283071,72.4384714 C42.805279,72.4384714 40.6657565,71.8609016 36.4035355,70.7104184 C35.7791097,70.5418417 35.0942823,70.3570156 34.3478581,70.1603112 L34.3478581,46.5696552 C43.3151532,44.3619094 54.173929,38.9728736 54.173929,29.4039165 L54.173929,28.1231522 C54.173929,26.7106815 55.2857048,25.5615286 56.6521419,25.5615286 C58.0161887,25.5615286 59.1278726,26.708876 59.1304468,28.1191611 L59.1304468,28.1231522 C59.1304468,28.6797212 59.8025871,35.511066 57.1074065,41.6994629 L52.9348226,41.6994629 C52.2505468,41.6994629 51.6956242,42.2730416 51.6956242,42.9803222 C51.6956242,43.6875079 52.2505468,44.2610866 52.9348226,44.2610866 C53.8000274,44.2610866 67.6310774,44.2610866 69.0434823,44.2610866 C70.4100113,44.2610866 71.5216952,45.4102394 71.5216952,46.8226152 C71.5216952,48.2374616 70.4122177,49.3842388 69.0434823,49.3842388 Z" id="Shape" fill="#000000"></path>
            <path d="M28.0000371,54 C27.4478243,54 27,54.5821802 27,55.2999711 L27,65.6999325 C27,66.4178198 27.4478243,67 28.0000371,67 C28.5521757,67 29,66.4178198 29,65.6999325 L29,55.2999711 C29,54.5821802 28.5521757,54 28.0000371,54 Z" id="Path" fill="#000000"></path>
            <path d="M41,27.5 C41,28.3283499 41.5224682,29 42.1666378,29 L46.8332756,29 C47.4775318,29 48,28.3283499 48,27.5 C48,26.6716501 47.4775318,26 46.8332756,26 L42.1666378,26 C41.5224682,26 41,26.6716501 41,27.5 Z" id="Path" fill="#000000"></path>
            <path d="M66,27.5 C66,28.3283499 66.5223881,29 67.1666522,29 L71.8333478,29 C72.4776119,29 73,28.3283499 73,27.5 C73,26.6716501 72.4776119,26 71.8333478,26 L67.1666522,26 C66.5223881,26 66,26.6716501 66,27.5 Z" id="Path" fill="#000000"></path>
            <path d="M65.8783583,15.3638278 L62.363957,18.878409 C61.878681,19.3636971 61.878681,20.150596 62.363957,20.6360685 C62.8495096,21.1213566 63.63602,21.1212644 64.1215726,20.6360685 L67.6359739,17.1215794 C68.121342,16.6361991 68.121342,15.8493003 67.6359739,15.3638278 C67.1506057,14.8787241 66.3639109,14.8787241 65.8783583,15.3638278 Z" id="Path" fill="#000000"></path>
            <path d="M50.6360444,20.6360685 C51.1213185,20.1507804 51.1213185,19.3637893 50.6360444,18.878409 L47.1215644,15.3638278 C46.6361981,14.8787241 45.8495063,14.8787241 45.3639556,15.3638278 C44.8786815,15.8492081 44.8786815,16.6361069 45.3639556,17.1215794 L48.8783434,20.6360685 C49.3640785,21.1213566 50.1505859,21.1212644 50.6360444,20.6360685 Z" id="Path" fill="#000000"></path>
        </g>
    </g>
</svg>