<svg width="92" height="95" viewBox="0 0 92 95" fill="none" xmlns="http://www.w3.org/2000/svg">
<path opacity="0.2" d="M6.51152 26.03C-4.16982 44.8874 -1.70598 68.6826 13.8726 83.9906C28.4186 98.2839 51.4692 97.498 69.8531 88.2716C86.1295 80.1029 93.5636 62.6194 91.7266 44.9177C89.7063 25.4495 80.4543 5.4799 60.8096 1.12573C39.2345 -3.65631 17.1769 7.20087 6.51152 26.03Z" fill="#12ABA5"/>
<path d="M80.8424 28.208C90.9432 46.4699 88.6133 69.5136 73.8814 84.3382C60.1259 98.1802 38.328 97.4191 20.9432 88.484C5.55148 80.5733 -1.47861 63.642 0.258547 46.4992C2.16904 27.6458 10.9182 8.30685 29.4953 4.09018C49.8978 -0.540849 70.7566 9.97347 80.8424 28.208Z" fill="#12ABA5"/>
<g clip-path="url(#clip0_334_15245)">
<path d="M59.6892 51.1428C59.4506 51.4876 59.2886 51.8794 59.2142 52.292L58.6058 55.759C58.5147 56.2849 58.2408 56.7618 57.8323 57.1055C57.4238 57.4491 56.9071 57.6374 56.3732 57.6371C56.266 57.6375 56.1588 57.6299 56.0526 57.6144L52.5679 57.125C52.4315 57.1062 52.2939 57.0966 52.1562 57.0963C51.3918 57.095 50.6572 57.392 50.1084 57.924L48.7188 59.269L62.6103 73.1562L64.4007 65.4005L72.1564 63.6101L59.6892 51.1428Z" fill="#F9B534"/>
<path d="M61.9548 53.4125L61.4316 56.2593C61.2245 57.4511 60.6029 58.5314 59.6766 59.3093C58.7502 60.0873 57.5788 60.5129 56.3691 60.5109C56.1275 60.5105 55.8862 60.4933 55.6469 60.4595L53.875 60.2064L63.4018 69.7289L64.4008 65.4005L72.1565 63.61L61.9548 53.4125Z" fill="#F9CB4E"/>
<path d="M32.311 51.1428C32.5496 51.4876 32.7115 51.8794 32.786 52.292L33.3944 55.759C33.4855 56.2849 33.7594 56.7618 34.1679 57.1055C34.5764 57.4491 35.0931 57.6374 35.6269 57.6371C35.7342 57.6375 35.8414 57.6299 35.9476 57.6144L39.4323 57.125C39.5687 57.1062 39.7063 57.0966 39.844 57.0963C40.6083 57.095 41.343 57.392 41.8918 57.924L43.2814 59.269L29.3899 73.1562L27.5995 65.4005L19.8438 63.6101L32.311 51.1428Z" fill="#F9B534"/>
<path d="M30.0455 53.4125L30.5687 56.2593C30.7757 57.4504 31.3966 58.5301 32.3221 59.308C33.2476 60.0859 34.418 60.5119 35.6269 60.5109C35.8686 60.5105 36.1099 60.4933 36.3492 60.4595L38.1211 60.2064L28.5985 69.7289L27.5995 65.4005L19.8438 63.61L30.0455 53.4125Z" fill="#F9CB4E"/>
<path d="M28.4229 39.9488L26.8772 36.7906C26.5802 36.1829 26.5311 35.4835 26.7402 34.8402C26.9493 34.1969 27.4002 33.6601 27.9977 33.343L31.1069 31.6935C31.4587 31.5077 31.7633 31.2438 31.9973 30.922C32.2313 30.6003 32.3885 30.2292 32.4569 29.8373L33.0652 26.3711C33.1819 25.7047 33.5531 25.1097 34.1004 24.712C34.6477 24.3143 35.3282 24.1449 35.9981 24.2398L39.4828 24.7326C39.8759 24.7883 40.2765 24.7535 40.654 24.6308C41.0316 24.5081 41.3761 24.3008 41.6614 24.0247L44.1926 21.5778C44.6789 21.1064 45.3295 20.8429 46.0067 20.8429C46.6839 20.8429 47.3345 21.1064 47.8207 21.5778L50.352 24.0247C50.6372 24.3008 50.9818 24.5081 51.3593 24.6308C51.7369 24.7535 52.1375 24.7883 52.5306 24.7326L56.0152 24.2398C56.6833 24.148 57.3609 24.3186 57.9058 24.7159C58.4506 25.1132 58.8203 25.7062 58.9371 26.3703L59.5455 29.8364C59.6134 30.228 59.77 30.5988 60.0032 30.9205C60.2365 31.2423 60.5402 31.5064 60.8913 31.6927L64.0005 33.3422C64.5982 33.6592 65.0493 34.1962 65.2584 34.8397C65.4674 35.4832 65.4182 36.1828 65.121 36.7906L63.5752 39.953C63.4008 40.3095 63.3101 40.7011 63.3101 41.0979C63.3101 41.4948 63.4008 41.8864 63.5752 42.2429L65.121 45.4053C65.4179 46.013 65.467 46.7124 65.258 47.3557C65.0489 47.999 64.598 48.5358 64.0005 48.8529L60.8913 50.4982C60.5402 50.6845 60.2365 50.9486 60.0032 51.2703C59.77 51.592 59.6134 51.9629 59.5455 52.3544L58.9371 55.8205C58.8205 56.487 58.4493 57.082 57.902 57.4797C57.3547 57.8774 56.6742 58.0467 56.0043 57.9519L52.5196 57.4591C52.1265 57.4034 51.7259 57.4382 51.3484 57.5609C50.9708 57.6836 50.6263 57.8909 50.341 58.167L47.8098 60.6139C47.3235 61.0852 46.6729 61.3488 45.9957 61.3488C45.3185 61.3488 44.6679 61.0852 44.1816 60.6139L41.6504 58.167C41.3652 57.8909 41.0206 57.6836 40.6431 57.5609C40.2655 57.4382 39.8649 57.4034 39.4718 57.4591L35.9871 57.9519C35.3173 58.0467 34.6367 57.8774 34.0894 57.4797C33.5421 57.082 33.1709 56.487 33.0543 55.8205L32.4459 52.3544C32.3776 51.9625 32.2203 51.5914 31.9863 51.2696C31.7523 50.9479 31.4477 50.684 31.0959 50.4982L27.9867 48.8486C27.3892 48.5316 26.9383 47.9947 26.7292 47.3515C26.5202 46.7082 26.5693 46.0088 26.8662 45.4011L28.412 42.2387C28.5881 41.8831 28.6807 41.4919 28.6826 41.095C28.6845 40.6981 28.5957 40.3061 28.4229 39.9488Z" fill="#64E1DC"/>
<path d="M42.8531 24.7317C43.2462 24.7875 43.6468 24.7526 44.0243 24.63C44.4019 24.5073 44.7464 24.3 45.0317 24.0238L47.5629 21.577C47.6026 21.5361 47.6467 21.4999 47.6945 21.469C47.2013 21.0476 46.5687 20.8253 45.9203 20.8452C45.272 20.8652 44.6543 21.1261 44.1879 21.577L41.6567 24.0238C41.4654 24.2095 41.2465 24.3643 41.0078 24.4828L42.8531 24.7317Z" fill="#50CDC8"/>
<path d="M47.5618 60.6105L45.0306 58.1636C44.7454 57.8875 44.4008 57.6802 44.0233 57.5575C43.6457 57.4348 43.2451 57.4 42.852 57.4557L41 57.7173C41.2402 57.8315 41.4613 57.982 41.6556 58.1636L44.1868 60.6105C44.6539 61.0622 45.2727 61.3231 45.9222 61.3423C46.5716 61.3615 47.2048 61.1376 47.6977 60.7143C47.6572 60.6797 47.6023 60.6485 47.5618 60.6105Z" fill="#50CDC8"/>
<path d="M36.436 55.8172L35.8277 52.3511C35.7598 51.9595 35.6032 51.5887 35.3699 51.2669C35.1367 50.9452 34.8329 50.6811 34.4819 50.4948L31.3727 48.8453C30.7752 48.5282 30.3243 47.9914 30.1152 47.3481C29.9061 46.7048 29.9552 46.0055 30.2522 45.3977L31.7979 42.2353C31.9724 41.8789 32.0631 41.4872 32.0631 41.0904C32.0631 40.6935 31.9724 40.3019 31.7979 39.9454L30.2522 36.7906C29.9552 36.1829 29.9061 35.4835 30.1152 34.8402C30.3243 34.1969 30.7752 33.6601 31.3727 33.3431L34.4819 31.6935C34.8329 31.5072 35.1367 31.2431 35.3699 30.9214C35.6032 30.5996 35.7598 30.2288 35.8277 29.8373L36.436 26.3711C36.5063 25.9721 36.669 25.5951 36.911 25.2701C37.153 24.9452 37.4677 24.6813 37.8299 24.4997L35.9939 24.2398C35.3241 24.1449 34.6437 24.3141 34.0964 24.7117C33.5491 25.1092 33.1778 25.704 33.061 26.3703L32.4527 29.8364C32.3843 30.2284 32.2271 30.5995 31.9931 30.9212C31.7591 31.243 31.4545 31.5069 31.1027 31.6927L27.9935 33.3422C27.3965 33.66 26.9463 34.1973 26.7381 34.8407C26.5298 35.4841 26.5797 36.1833 26.8772 36.7906L28.4229 39.953C28.5974 40.3095 28.6881 40.7011 28.6881 41.098C28.6881 41.4948 28.5974 41.8865 28.4229 42.2429L26.8772 45.4011C26.5802 46.0088 26.5311 46.7082 26.7402 47.3515C26.9493 47.9948 27.4002 48.5316 27.9977 48.8486L31.1069 50.4982C31.4587 50.684 31.7633 50.9479 31.9973 51.2696C32.2313 51.5914 32.3885 51.9625 32.4569 52.3544L33.0652 55.8206C33.1821 56.4869 33.5533 57.0817 34.1006 57.4794C34.6478 57.8771 35.3283 58.0465 35.9981 57.9519L37.8341 57.692C37.4707 57.5105 37.155 57.2464 36.9122 56.9208C36.6694 56.5952 36.5063 56.2172 36.436 55.8172Z" fill="#50CDC8"/>
<path d="M46 52.9062C52.5239 52.9062 57.8125 47.6176 57.8125 41.0937C57.8125 34.5699 52.5239 29.2812 46 29.2812C39.4761 29.2812 34.1875 34.5699 34.1875 41.0937C34.1875 47.6176 39.4761 52.9062 46 52.9062Z" fill="#F9CB4E"/>
<path d="M37.5623 41.0937C37.5639 38.255 38.5883 35.5119 40.4478 33.3671C42.3074 31.2223 44.8775 29.8193 47.6873 29.4154C46.0053 29.1597 44.288 29.2704 42.6527 29.7398C41.0174 30.2093 39.5028 31.0264 38.2126 32.1354C36.9223 33.2443 35.8869 34.6189 35.177 36.165C34.4671 37.7112 34.0996 39.3924 34.0996 41.0937C34.0996 42.7951 34.4671 44.4763 35.177 46.0224C35.8869 47.5686 36.9223 48.9432 38.2126 50.0521C39.5028 51.161 41.0174 51.9782 42.6527 52.4476C44.288 52.9171 46.0053 53.0278 47.6873 52.7721C44.8775 52.3681 42.3074 50.9652 40.4478 48.8203C38.5883 46.6755 37.5639 43.9324 37.5623 41.0937Z" fill="#F9B534"/>
<path d="M72.7525 63.0135L61.1088 51.3698C61.1664 51.3245 61.227 51.2831 61.2902 51.2457L64.3935 49.5945C65.1871 49.1773 65.7863 48.4665 66.0632 47.6137C66.3402 46.761 66.273 45.8337 65.8759 45.0298L64.3302 41.8683C64.2115 41.6273 64.1498 41.3623 64.1498 41.0937C64.1498 40.8251 64.2115 40.5601 64.3302 40.3192L65.8759 37.1576C66.273 36.3537 66.3402 35.4265 66.0632 34.5737C65.7863 33.721 65.1871 33.0102 64.3935 32.593L61.2868 30.9434C61.0493 30.8183 60.8437 30.6402 60.686 30.4229C60.5282 30.2057 60.4226 29.9551 60.3772 29.6905L59.7689 26.2243C59.6175 25.3408 59.1271 24.5514 58.402 24.0243C57.677 23.4972 56.7747 23.2742 55.8876 23.4028L52.4029 23.8964C52.1372 23.9334 51.8665 23.9096 51.6113 23.8267C51.3561 23.7438 51.1231 23.6041 50.9297 23.418L48.3985 20.9711C47.7566 20.3451 46.8955 19.9946 45.9989 19.9946C45.1022 19.9946 44.2411 20.3451 43.5992 20.9711L41.068 23.418C40.8747 23.6041 40.6416 23.7438 40.3864 23.8267C40.1313 23.9096 39.8606 23.9334 39.5948 23.8964L36.1093 23.4028C35.2222 23.2747 34.3202 23.4978 33.5953 24.0248C32.8703 24.5518 32.3798 25.341 32.228 26.2243L31.6197 29.6905C31.5743 29.9552 31.4686 30.2059 31.3107 30.4232C31.1528 30.6405 30.947 30.8185 30.7093 30.9434L27.606 32.593C26.8124 33.0102 26.2132 33.721 25.9362 34.5737C25.6593 35.4265 25.7265 36.3537 26.1235 37.1576L27.6692 40.3192C27.7879 40.5601 27.8496 40.8251 27.8496 41.0937C27.8496 41.3623 27.7879 41.6273 27.6692 41.8683L26.1201 45.0298C25.7231 45.8337 25.6559 46.761 25.9328 47.6137C26.2098 48.4665 26.809 49.1773 27.6026 49.5945L30.7127 51.244C30.7754 51.2816 30.8357 51.323 30.8932 51.3681L19.2495 63.0118C19.1429 63.1183 19.0667 63.2514 19.0289 63.3972C18.9911 63.5431 18.9931 63.6964 19.0346 63.8413C19.0761 63.9861 19.1556 64.1172 19.2649 64.2209C19.3742 64.3246 19.5093 64.3972 19.6562 64.431L26.8981 66.1025L28.5695 73.3444C28.6034 73.4912 28.6759 73.6263 28.7796 73.7356C28.8833 73.8449 29.0144 73.9244 29.1593 73.9659C29.3041 74.0075 29.4574 74.0094 29.6033 73.9716C29.7492 73.9338 29.8822 73.8577 29.9887 73.7511L43.0525 60.6865L43.6001 61.2172C44.2421 61.8431 45.1031 62.1934 45.9997 62.1934C46.8963 62.1934 47.7574 61.8431 48.3993 61.2172L48.9469 60.6865L62.0133 73.7528C62.1197 73.8594 62.2528 73.9355 62.3987 73.9733C62.5445 74.0111 62.6978 74.0091 62.8427 73.9676C62.9875 73.9261 63.1186 73.8466 63.2223 73.7373C63.326 73.628 63.3986 73.4929 63.4324 73.3461L65.1039 66.1042L72.3458 64.4327C72.4926 64.3989 72.6277 64.3263 72.737 64.2226C72.8463 64.1189 72.9259 63.9878 72.9674 63.843C73.0089 63.6981 73.0108 63.5448 72.9731 63.3989C72.9353 63.2531 72.8591 63.12 72.7525 63.0135ZM29.8689 71.4831L28.4219 65.2106C28.3863 65.0564 28.3082 64.9153 28.1963 64.8034C28.0844 64.6915 27.9433 64.6134 27.7891 64.5778L21.5166 63.1308L31.7015 52.9459L32.2306 55.9631C32.3827 56.8463 32.8734 57.6352 33.5982 58.1621C34.323 58.689 35.2248 58.9124 36.1118 58.7846L39.5965 58.291C39.8622 58.2544 40.1328 58.2784 40.388 58.3613C40.6431 58.4441 40.8762 58.5837 41.0697 58.7695L41.8383 59.5128L29.8689 71.4831ZM44.7737 60.0039L43.6389 58.907L42.2433 57.557C41.603 56.9338 40.7448 56.585 39.8513 56.585C39.6873 56.5853 39.5235 56.5968 39.3611 56.6196L35.8747 57.1132C35.4212 57.1798 34.9596 57.0662 34.5888 56.7967C34.2181 56.5272 33.9676 56.1232 33.8911 55.6712L33.2827 52.2051C33.2081 51.8115 33.0653 51.4341 32.8608 51.0896C32.8418 51.0486 32.8195 51.0091 32.7942 50.9715C32.4792 50.459 32.0344 50.0387 31.5049 49.7531L28.3957 48.1036C27.9898 47.8909 27.6832 47.5279 27.5413 47.0921C27.3995 46.6564 27.4336 46.1824 27.6363 45.7715L29.1821 42.6125C29.414 42.1407 29.5346 41.622 29.5346 41.0963C29.5346 40.5706 29.414 40.0518 29.1821 39.58L27.6363 36.4185C27.4336 36.0076 27.3995 35.5336 27.5413 35.0979C27.6832 34.6622 27.9898 34.2991 28.3957 34.0864L31.5041 32.4369C31.9692 32.1922 32.3719 31.8438 32.6809 31.4186C32.9899 30.9934 33.197 30.5029 33.2861 29.9849L33.8944 26.5188C33.9696 26.0666 34.2191 25.662 34.5894 25.3919C34.9597 25.1218 35.4212 25.0078 35.8747 25.0743L39.3602 25.5679C39.8804 25.6426 40.4107 25.5969 40.9104 25.4344C41.4101 25.2718 41.8658 24.9968 42.2425 24.6305L44.7737 22.1836C45.1016 21.8636 45.5416 21.6844 45.9997 21.6844C46.4579 21.6844 46.8979 21.8636 47.2257 22.1836L49.7569 24.6305C50.1334 24.9969 50.589 25.2721 51.0885 25.4347C51.5881 25.5974 52.1183 25.6432 52.6383 25.5687L56.1247 25.0743C56.5783 25.0074 57.04 25.1209 57.4108 25.3905C57.7816 25.6601 58.0321 26.0642 58.1084 26.5163L58.7167 29.9824C58.8059 30.5002 59.0129 30.9907 59.3217 31.4158C59.6306 31.841 60.033 32.1894 60.4979 32.4343L63.6071 34.0839C64.013 34.2966 64.3196 34.6596 64.4615 35.0954C64.6033 35.5311 64.5693 36.005 64.3665 36.416L62.8173 39.575C62.5855 40.0468 62.4649 40.5655 62.4649 41.0912C62.4649 41.6169 62.5855 42.1356 62.8173 42.6074L64.3631 45.769C64.5659 46.1799 64.6 46.6538 64.4581 47.0896C64.3162 47.5253 64.0096 47.8883 63.6037 48.1011L60.4953 49.7506C60.0302 49.9953 59.6276 50.3437 59.3186 50.7689C59.0096 51.194 58.8025 51.6846 58.7133 52.2025L58.105 55.6687C58.0288 56.1203 57.7791 56.5243 57.409 56.7942C57.039 57.0641 56.578 57.1786 56.1247 57.1132L52.6375 56.6187C52.1174 56.5441 51.5871 56.5898 51.0874 56.7523C50.5877 56.9149 50.132 57.1898 49.7552 57.5561L47.224 60.003C46.8964 60.3227 46.4568 60.5017 45.999 60.5018C45.5413 60.502 45.1016 60.3233 44.7737 60.0039ZM64.2104 64.5778C64.0562 64.6134 63.9151 64.6915 63.8032 64.8034C63.6913 64.9153 63.6131 65.0564 63.5776 65.2106L62.1305 71.4831L50.1602 59.5128L50.9281 58.7695C51.1217 58.5839 51.3548 58.4445 51.6099 58.3616C51.865 58.2788 52.1355 58.2547 52.4013 58.291L55.8868 58.7846C56.7738 58.9126 57.6757 58.6893 58.4006 58.1624C59.1255 57.6354 59.6161 56.8464 59.768 55.9631L60.2971 52.9459L70.4828 63.1308L64.2104 64.5778Z" fill="black"/>
<path d="M58.6563 41.0937C58.6567 38.0635 57.5693 35.1337 55.5918 32.8376C55.5225 32.7451 55.435 32.6679 55.3346 32.6106C55.2343 32.5533 55.1233 32.5172 55.0084 32.5046C54.8935 32.492 54.7773 32.5032 54.6669 32.5373C54.5566 32.5715 54.4544 32.6279 54.3667 32.7032C54.2791 32.7785 54.2078 32.871 54.1573 32.9749C54.1069 33.0789 54.0783 33.1921 54.0734 33.3075C54.0685 33.4229 54.0873 33.5382 54.1288 33.646C54.1702 33.7539 54.2334 33.8521 54.3143 33.9345C56.1249 36.0406 57.0681 38.7558 56.953 41.5308C56.8379 44.3058 55.6732 46.9336 53.6944 48.8825C51.7157 50.8315 49.0705 51.9562 46.2941 52.0291C43.5176 52.1021 40.8171 51.1179 38.7387 49.2755C36.6603 47.4331 35.3592 44.8702 35.0986 42.1051C34.8379 39.3399 35.6372 36.579 37.3346 34.3807C39.0321 32.1824 41.5012 30.7108 44.2423 30.2637C46.9835 29.8165 49.7922 30.4271 52.1003 31.9719C52.1922 32.0375 52.2963 32.0841 52.4064 32.1087C52.5166 32.1334 52.6305 32.1357 52.7416 32.1155C52.8526 32.0953 52.9585 32.0531 53.053 31.9912C53.1474 31.9294 53.2284 31.8492 53.2913 31.7555C53.3542 31.6618 53.3977 31.5564 53.4191 31.4456C53.4406 31.3348 53.4395 31.2208 53.4161 31.1103C53.3927 30.9999 53.3474 30.8953 53.2828 30.8027C53.2183 30.7101 53.1358 30.6315 53.0403 30.5713C50.6954 29.0017 47.8931 28.2606 45.0788 28.466C42.2645 28.6714 39.5996 29.8114 37.5074 31.7049C35.4152 33.5983 34.0158 36.1367 33.5316 38.9166C33.0473 41.6965 33.5059 44.5585 34.8345 47.0479C36.1632 49.5373 38.2856 51.5113 40.8647 52.6563C43.4437 53.8012 46.3315 54.0515 49.069 53.3672C51.8066 52.683 54.237 51.1035 55.974 48.8797C57.7111 46.656 58.6551 43.9155 58.6563 41.0937Z" fill="black"/>
<path d="M50.8722 37.1382L44.2977 44.062L41.1488 40.4744C41.078 40.384 40.9895 40.309 40.8887 40.2539C40.7879 40.1989 40.677 40.165 40.5626 40.1544C40.4483 40.1437 40.333 40.1565 40.2238 40.192C40.1145 40.2275 40.0137 40.2849 39.9274 40.3607C39.8412 40.4365 39.7713 40.5291 39.7221 40.6328C39.6728 40.7366 39.6453 40.8493 39.6412 40.964C39.637 41.0788 39.6564 41.1932 39.698 41.3002C39.7396 41.4072 39.8026 41.5047 39.8832 41.5865L43.637 45.8685C43.7143 45.9568 43.8091 46.0279 43.9155 46.0775C44.0218 46.127 44.1373 46.1538 44.2546 46.1562H44.2715C44.386 46.1562 44.4993 46.1328 44.6044 46.0875C44.7096 46.0423 44.8045 45.9761 44.8832 45.893L52.0931 38.2992C52.1735 38.2197 52.2371 38.1249 52.2802 38.0203C52.3233 37.9158 52.3448 37.8036 52.3437 37.6905C52.3426 37.5775 52.3187 37.4658 52.2735 37.3621C52.2284 37.2584 52.1628 37.1649 52.0808 37.087C51.9988 37.0092 51.9019 36.9486 51.796 36.909C51.6901 36.8693 51.5774 36.8513 51.4644 36.8561C51.3514 36.8609 51.2405 36.8883 51.1384 36.9368C51.0362 36.9852 50.9448 37.0537 50.8696 37.1382H50.8722Z" fill="black"/>
</g>
<defs>
<clipPath id="clip0_334_15245">
<rect width="54" height="54" fill="white" transform="translate(19 20)"/>
</clipPath>
</defs>
</svg>
