<svg width="92" height="95" viewBox="0 0 92 95" fill="none" xmlns="http://www.w3.org/2000/svg">
<path opacity="0.2" d="M6.51152 26.03C-4.16982 44.8874 -1.70598 68.6826 13.8726 83.9906C28.4186 98.2839 51.4692 97.498 69.8531 88.2716C86.1295 80.1029 93.5636 62.6194 91.7266 44.9177C89.7063 25.4495 80.4543 5.4799 60.8096 1.12573C39.2345 -3.65631 17.1769 7.20087 6.51152 26.03Z" fill="#BBE59A"/>
<path d="M5.37315 69.5294C-4.72768 51.2676 -0.0162506 35.5621 14.7157 20.7375C28.4711 6.89548 47.3308 2.80241 64.7156 11.7375C80.1074 19.6482 90.2371 31.8571 88.5 48.9999C86.5895 67.8533 77.577 88.2833 59 92.5C38.5975 97.131 15.4589 87.764 5.37315 69.5294Z" fill="#BBE69A"/>
<path d="M58.6562 67.039H69.2031V71.2578H58.6562V67.039Z" fill="#FFBB33"/>
<path d="M58.6562 62.8203H69.2031V67.039H58.6562V62.8203Z" fill="#FFDD33"/>
<path d="M58.6562 58.6015H69.2031V62.8203H58.6562V58.6015Z" fill="#FFBB33"/>
<path d="M58.6562 54.3828H69.2031V58.6015H58.6562V54.3828Z" fill="#FFDD33"/>
<path d="M58.6562 50.164H69.2031V54.3828H58.6562V50.164Z" fill="#FFBB33"/>
<path d="M58.6562 45.9453H69.2031V50.164H58.6562V45.9453Z" fill="#FFDD33"/>
<path d="M43.8906 67.039H54.4375V71.2578H43.8906V67.039Z" fill="#FFBB33"/>
<path d="M43.8906 62.8203H54.4375V67.039H43.8906V62.8203Z" fill="#FFDD33"/>
<path d="M43.8906 58.6015H54.4375V62.8203H43.8906V58.6015Z" fill="#FFBB33"/>
<path d="M43.8906 54.3828H54.4375V58.6015H43.8906V54.3828Z" fill="#FFDD33"/>
<path d="M29.125 67.039H39.6719V71.2578H29.125V67.039Z" fill="#FFDD33"/>
<path d="M29.125 62.8203H39.6719V67.039H29.125V62.8203Z" fill="#FFBB33"/>
<path d="M29.125 58.6015H39.6719V62.8203H29.125V58.6015Z" fill="#FFDD33"/>
<path d="M29.125 54.3828H39.6719V58.6015H29.125V54.3828Z" fill="#FFBB33"/>
<path d="M29.125 50.164H39.6719V54.3828H29.125V50.164Z" fill="#FFDD33"/>
<path d="M29.125 45.9453H39.6719V50.164H29.125V45.9453Z" fill="#FFBB33"/>
<path d="M29.125 41.7265H39.6719V45.9453H29.125V41.7265Z" fill="#FFDD33"/>
<path d="M29.125 37.5078H39.6719V41.7265H29.125V37.5078Z" fill="#FFBB33"/>
<path d="M29.125 33.289H39.6719V37.5078H29.125V33.289Z" fill="#FFDD33"/>
<path d="M70.2578 72.3125H69.2031C68.6207 72.3125 68.1484 71.8402 68.1484 71.2578C68.1484 70.6754 68.6207 70.2031 69.2031 70.2031H70.2578C70.8402 70.2031 71.3125 70.6754 71.3125 71.2578C71.3125 71.8402 70.8402 72.3125 70.2578 72.3125Z" fill="black"/>
<path d="M58.6562 72.3125H54.4375C53.8551 72.3125 53.3828 71.8402 53.3828 71.2578C53.3828 70.6754 53.8551 70.2031 54.4375 70.2031H58.6562C59.2386 70.2031 59.7109 70.6754 59.7109 71.2578C59.7109 71.8402 59.2386 72.3125 58.6562 72.3125Z" fill="black"/>
<path d="M43.8906 72.3125H39.6719C39.0895 72.3125 38.6172 71.8402 38.6172 71.2578C38.6172 70.6754 39.0895 70.2031 39.6719 70.2031H43.8906C44.473 70.2031 44.9453 70.6754 44.9453 71.2578C44.9453 71.8402 44.473 72.3125 43.8906 72.3125Z" fill="black"/>
<path d="M29.125 72.3125H24.9062C24.3239 72.3125 23.8516 71.8402 23.8516 71.2578V22.7422C23.8516 22.1597 24.3239 21.6875 24.9062 21.6875C25.4886 21.6875 25.9609 22.1597 25.9609 22.7422V70.2031H29.125C29.7074 70.2031 30.1797 70.6754 30.1797 71.2578C30.1797 71.8402 29.7074 72.3125 29.125 72.3125Z" fill="black"/>
<path d="M24.9062 69.1484H21.7422C21.1598 69.1484 20.6875 68.6761 20.6875 68.0937C20.6875 67.5113 21.1598 67.039 21.7422 67.039H24.9062C25.4886 67.039 25.9609 67.5113 25.9609 68.0937C25.9609 68.6761 25.4886 69.1484 24.9062 69.1484Z" fill="black"/>
<path d="M24.9062 63.875H21.7422C21.1598 63.875 20.6875 63.4027 20.6875 62.8203C20.6875 62.2379 21.1598 61.7656 21.7422 61.7656H24.9062C25.4886 61.7656 25.9609 62.2379 25.9609 62.8203C25.9609 63.4027 25.4886 63.875 24.9062 63.875Z" fill="black"/>
<path d="M24.9062 58.6015H21.7422C21.1598 58.6015 20.6875 58.1292 20.6875 57.5468C20.6875 56.9644 21.1598 56.4922 21.7422 56.4922H24.9062C25.4886 56.4922 25.9609 56.9644 25.9609 57.5468C25.9609 58.1292 25.4886 58.6015 24.9062 58.6015Z" fill="black"/>
<path d="M24.9062 53.3281H21.7422C21.1598 53.3281 20.6875 52.8558 20.6875 52.2734C20.6875 51.691 21.1598 51.2187 21.7422 51.2187H24.9062C25.4886 51.2187 25.9609 51.691 25.9609 52.2734C25.9609 52.8558 25.4886 53.3281 24.9062 53.3281Z" fill="black"/>
<path d="M24.9062 48.0547H21.7422C21.1598 48.0547 20.6875 47.5825 20.6875 47C20.6875 46.4175 21.1598 45.9453 21.7422 45.9453H24.9062C25.4886 45.9453 25.9609 46.4175 25.9609 47C25.9609 47.5825 25.4886 48.0547 24.9062 48.0547Z" fill="black"/>
<path d="M24.9062 42.7812H21.7422C21.1598 42.7812 20.6875 42.309 20.6875 41.7265C20.6875 41.144 21.1598 40.6718 21.7422 40.6718H24.9062C25.4886 40.6718 25.9609 41.144 25.9609 41.7265C25.9609 42.309 25.4886 42.7812 24.9062 42.7812Z" fill="black"/>
<path d="M24.9062 37.5078H21.7422C21.1598 37.5078 20.6875 37.0356 20.6875 36.4531C20.6875 35.8706 21.1598 35.3984 21.7422 35.3984H24.9062C25.4886 35.3984 25.9609 35.8706 25.9609 36.4531C25.9609 37.0356 25.4886 37.5078 24.9062 37.5078Z" fill="black"/>
<path d="M24.9062 32.2343H21.7422C21.1598 32.2343 20.6875 31.7622 20.6875 31.1797C20.6875 30.5972 21.1598 30.125 21.7422 30.125H24.9062C25.4886 30.125 25.9609 30.5972 25.9609 31.1797C25.9609 31.7622 25.4886 32.2343 24.9062 32.2343Z" fill="black"/>
<path d="M24.9062 26.9609H21.7422C21.1598 26.9609 20.6875 26.4887 20.6875 25.9062C20.6875 25.3237 21.1598 24.8515 21.7422 24.8515H24.9062C25.4886 24.8515 25.9609 25.3237 25.9609 25.9062C25.9609 26.4887 25.4886 26.9609 24.9062 26.9609Z" fill="black"/>
<path d="M39.6719 72.3125H29.125C28.5426 72.3125 28.0703 71.8402 28.0703 71.2578V67.039C28.0703 66.4566 28.5426 65.9843 29.125 65.9843C29.7074 65.9843 30.1797 66.4566 30.1797 67.039V70.2031H38.6172V67.039C38.6172 66.4566 39.0895 65.9843 39.6719 65.9843C40.2543 65.9843 40.7266 66.4566 40.7266 67.039V71.2578C40.7266 71.8402 40.2543 72.3125 39.6719 72.3125Z" fill="black"/>
<path d="M54.4375 72.3125H43.8906C43.3082 72.3125 42.8359 71.8402 42.8359 71.2578V67.039C42.8359 66.4566 43.3082 65.9843 43.8906 65.9843C44.473 65.9843 44.9453 66.4566 44.9453 67.039V70.2031H53.3828V67.039C53.3828 66.4566 53.8551 65.9843 54.4375 65.9843C55.0199 65.9843 55.4922 66.4566 55.4922 67.039V71.2578C55.4922 71.8402 55.0199 72.3125 54.4375 72.3125Z" fill="black"/>
<path d="M69.2031 72.3125H58.6562C58.0739 72.3125 57.6016 71.8402 57.6016 71.2578V67.039C57.6016 66.4566 58.0739 65.9843 58.6562 65.9843C59.2386 65.9843 59.7109 66.4566 59.7109 67.039V70.2031H68.1484V67.039C68.1484 66.4566 68.6207 65.9843 69.2031 65.9843C69.7855 65.9843 70.2578 66.4566 70.2578 67.039V71.2578C70.2578 71.8402 69.7855 72.3125 69.2031 72.3125Z" fill="black"/>
<path d="M39.6719 68.0937H29.125C28.5426 68.0937 28.0703 67.6214 28.0703 67.039V62.8203C28.0703 62.2379 28.5426 61.7656 29.125 61.7656C29.7074 61.7656 30.1797 62.2379 30.1797 62.8203V65.9843H38.6172V62.8203C38.6172 62.2379 39.0895 61.7656 39.6719 61.7656C40.2543 61.7656 40.7266 62.2379 40.7266 62.8203V67.039C40.7266 67.6214 40.2543 68.0937 39.6719 68.0937Z" fill="black"/>
<path d="M54.4375 68.0937H43.8906C43.3082 68.0937 42.8359 67.6214 42.8359 67.039V62.8203C42.8359 62.2379 43.3082 61.7656 43.8906 61.7656C44.473 61.7656 44.9453 62.2379 44.9453 62.8203V65.9843H53.3828V62.8203C53.3828 62.2379 53.8551 61.7656 54.4375 61.7656C55.0199 61.7656 55.4922 62.2379 55.4922 62.8203V67.039C55.4922 67.6214 55.0199 68.0937 54.4375 68.0937Z" fill="black"/>
<path d="M69.2031 68.0937H58.6562C58.0739 68.0937 57.6016 67.6214 57.6016 67.039V62.8203C57.6016 62.2379 58.0739 61.7656 58.6562 61.7656C59.2386 61.7656 59.7109 62.2379 59.7109 62.8203V65.9843H68.1484V62.8203C68.1484 62.2379 68.6207 61.7656 69.2031 61.7656C69.7855 61.7656 70.2578 62.2379 70.2578 62.8203V67.039C70.2578 67.6214 69.7855 68.0937 69.2031 68.0937Z" fill="black"/>
<path d="M39.6719 63.875H29.125C28.5426 63.875 28.0703 63.4027 28.0703 62.8203V58.6015C28.0703 58.0191 28.5426 57.5468 29.125 57.5468C29.7074 57.5468 30.1797 58.0191 30.1797 58.6015V61.7656H38.6172V58.6015C38.6172 58.0191 39.0895 57.5468 39.6719 57.5468C40.2543 57.5468 40.7266 58.0191 40.7266 58.6015V62.8203C40.7266 63.4027 40.2543 63.875 39.6719 63.875Z" fill="black"/>
<path d="M54.4375 63.875H43.8906C43.3082 63.875 42.8359 63.4027 42.8359 62.8203V58.6015C42.8359 58.0191 43.3082 57.5468 43.8906 57.5468C44.473 57.5468 44.9453 58.0191 44.9453 58.6015V61.7656H53.3828V58.6015C53.3828 58.0191 53.8551 57.5468 54.4375 57.5468C55.0199 57.5468 55.4922 58.0191 55.4922 58.6015V62.8203C55.4922 63.4027 55.0199 63.875 54.4375 63.875Z" fill="black"/>
<path d="M69.2031 63.875H58.6562C58.0739 63.875 57.6016 63.4027 57.6016 62.8203V58.6015C57.6016 58.0191 58.0739 57.5468 58.6562 57.5468C59.2386 57.5468 59.7109 58.0191 59.7109 58.6015V61.7656H68.1484V58.6015C68.1484 58.0191 68.6207 57.5468 69.2031 57.5468C69.7855 57.5468 70.2578 58.0191 70.2578 58.6015V62.8203C70.2578 63.4027 69.7855 63.875 69.2031 63.875Z" fill="black"/>
<path d="M39.6719 59.6562H29.125C28.5426 59.6562 28.0703 59.1839 28.0703 58.6015V54.3828C28.0703 53.8004 28.5426 53.3281 29.125 53.3281C29.7074 53.3281 30.1797 53.8004 30.1797 54.3828V57.5468H38.6172V54.3828C38.6172 53.8004 39.0895 53.3281 39.6719 53.3281C40.2543 53.3281 40.7266 53.8004 40.7266 54.3828V58.6015C40.7266 59.1839 40.2543 59.6562 39.6719 59.6562Z" fill="black"/>
<path d="M54.4375 59.6562H43.8906C43.3082 59.6562 42.8359 59.1839 42.8359 58.6015V54.3828C42.8359 53.8004 43.3082 53.3281 43.8906 53.3281H54.4375C55.0199 53.3281 55.4922 53.8004 55.4922 54.3828V58.6015C55.4922 59.1839 55.0199 59.6562 54.4375 59.6562ZM44.9453 57.5468H53.3828V55.4375H44.9453V57.5468Z" fill="black"/>
<path d="M69.2031 59.6562H58.6562C58.0739 59.6562 57.6016 59.1839 57.6016 58.6015V54.3828C57.6016 53.8004 58.0739 53.3281 58.6562 53.3281C59.2386 53.3281 59.7109 53.8004 59.7109 54.3828V57.5468H68.1484V54.3828C68.1484 53.8004 68.6207 53.3281 69.2031 53.3281C69.7855 53.3281 70.2578 53.8004 70.2578 54.3828V58.6015C70.2578 59.1839 69.7855 59.6562 69.2031 59.6562Z" fill="black"/>
<path d="M39.6719 55.4375H29.125C28.5426 55.4375 28.0703 54.9652 28.0703 54.3828V50.164C28.0703 49.5816 28.5426 49.1093 29.125 49.1093C29.7074 49.1093 30.1797 49.5816 30.1797 50.164V53.3281H38.6172V50.164C38.6172 49.5816 39.0895 49.1093 39.6719 49.1093C40.2543 49.1093 40.7266 49.5816 40.7266 50.164V54.3828C40.7266 54.9652 40.2543 55.4375 39.6719 55.4375Z" fill="black"/>
<path d="M69.2031 55.4375H58.6562C58.0739 55.4375 57.6016 54.9652 57.6016 54.3828V50.164C57.6016 49.5816 58.0739 49.1093 58.6562 49.1093C59.2386 49.1093 59.7109 49.5816 59.7109 50.164V53.3281H68.1484V50.164C68.1484 49.5816 68.6207 49.1093 69.2031 49.1093C69.7855 49.1093 70.2578 49.5816 70.2578 50.164V54.3828C70.2578 54.9652 69.7855 55.4375 69.2031 55.4375Z" fill="black"/>
<path d="M39.6719 51.2187H29.125C28.5426 51.2187 28.0703 50.7464 28.0703 50.164V45.9453C28.0703 45.3628 28.5426 44.8906 29.125 44.8906C29.7074 44.8906 30.1797 45.3628 30.1797 45.9453V49.1093H38.6172V45.9453C38.6172 45.3628 39.0895 44.8906 39.6719 44.8906C40.2543 44.8906 40.7266 45.3628 40.7266 45.9453V50.164C40.7266 50.7464 40.2543 51.2187 39.6719 51.2187Z" fill="black"/>
<path d="M69.2031 51.2187H58.6562C58.0739 51.2187 57.6016 50.7464 57.6016 50.164V45.9453C57.6016 45.3628 58.0739 44.8906 58.6562 44.8906H69.2031C69.7855 44.8906 70.2578 45.3628 70.2578 45.9453V50.164C70.2578 50.7464 69.7855 51.2187 69.2031 51.2187ZM59.7109 49.1093H68.1484V47H59.7109V49.1093Z" fill="black"/>
<path d="M39.6719 47H29.125C28.5426 47 28.0703 46.5278 28.0703 45.9453V41.7265C28.0703 41.144 28.5426 40.6718 29.125 40.6718C29.7074 40.6718 30.1797 41.144 30.1797 41.7265V44.8906H38.6172V41.7265C38.6172 41.144 39.0895 40.6718 39.6719 40.6718C40.2543 40.6718 40.7266 41.144 40.7266 41.7265V45.9453C40.7266 46.5278 40.2543 47 39.6719 47Z" fill="black"/>
<path d="M39.6719 42.7812H29.125C28.5426 42.7812 28.0703 42.309 28.0703 41.7265V37.5078C28.0703 36.9253 28.5426 36.4531 29.125 36.4531C29.7074 36.4531 30.1797 36.9253 30.1797 37.5078V40.6718H38.6172V37.5078C38.6172 36.9253 39.0895 36.4531 39.6719 36.4531C40.2543 36.4531 40.7266 36.9253 40.7266 37.5078V41.7265C40.7266 42.309 40.2543 42.7812 39.6719 42.7812Z" fill="black"/>
<path d="M39.6719 38.5625H29.125C28.5426 38.5625 28.0703 38.0903 28.0703 37.5078V33.289C28.0703 32.7065 28.5426 32.2343 29.125 32.2343H39.6719C40.2543 32.2343 40.7266 32.7065 40.7266 33.289V37.5078C40.7266 38.0903 40.2543 38.5625 39.6719 38.5625ZM30.1797 36.4531H38.6172V34.3437H30.1797V36.4531Z" fill="black"/>
<path d="M55.4922 25.9062H54.4375C53.8551 25.9062 53.3828 25.434 53.3828 24.8515C53.3828 24.269 53.8551 23.7968 54.4375 23.7968H55.4922C56.0746 23.7968 56.5469 24.269 56.5469 24.8515C56.5469 25.434 56.0746 25.9062 55.4922 25.9062Z" fill="black"/>
<path d="M68.1484 25.9062H59.7109C59.1285 25.9062 58.6562 25.434 58.6562 24.8515C58.6562 24.269 59.1285 23.7968 59.7109 23.7968H68.1484C68.7308 23.7968 69.2031 24.269 69.2031 24.8515C69.2031 25.434 68.7308 25.9062 68.1484 25.9062Z" fill="black"/>
<path d="M55.4922 30.125H54.4375C53.8551 30.125 53.3828 29.6528 53.3828 29.0703C53.3828 28.4878 53.8551 28.0156 54.4375 28.0156H55.4922C56.0746 28.0156 56.5469 28.4878 56.5469 29.0703C56.5469 29.6528 56.0746 30.125 55.4922 30.125Z" fill="black"/>
<path d="M68.1484 30.125H59.7109C59.1285 30.125 58.6562 29.6528 58.6562 29.0703C58.6562 28.4878 59.1285 28.0156 59.7109 28.0156H68.1484C68.7308 28.0156 69.2031 28.4878 69.2031 29.0703C69.2031 29.6528 68.7308 30.125 68.1484 30.125Z" fill="black"/>
<path d="M55.4922 34.3437H54.4375C53.8551 34.3437 53.3828 33.8715 53.3828 33.289C53.3828 32.7065 53.8551 32.2343 54.4375 32.2343H55.4922C56.0746 32.2343 56.5469 32.7065 56.5469 33.289C56.5469 33.8715 56.0746 34.3437 55.4922 34.3437Z" fill="black"/>
<path d="M68.1484 34.3437H59.7109C59.1285 34.3437 58.6562 33.8715 58.6562 33.289C58.6562 32.7065 59.1285 32.2343 59.7109 32.2343H68.1484C68.7308 32.2343 69.2031 32.7065 69.2031 33.289C69.2031 33.8715 68.7308 34.3437 68.1484 34.3437Z" fill="black"/>
</svg>
