<?xml version="1.0" encoding="UTF-8"?>
<svg width="92px" height="95px" viewBox="0 0 92 95" version="1.1" xmlns="http://www.w3.org/2000/svg" xmlns:xlink="http://www.w3.org/1999/xlink">
    <title>Untitled</title>
    <g id="Page-1" stroke="none" stroke-width="1" fill="none" fill-rule="evenodd">
        <g id="advantages_1" fill-rule="nonzero">
            <path d="M6.51152071,26.0299916 C-4.16981803,44.8873869 -1.70597832,68.682581 13.8725998,83.9905772 C28.4185981,98.2838737 51.4691954,97.4979739 69.8530932,88.2715762 C86.1294913,80.1028782 93.5635904,62.6193825 91.7265906,44.9176869 C89.7062909,25.4494917 80.454292,5.47989668 60.8095943,1.12572776 C39.2344968,-3.65631106 17.1768995,7.20086625 6.51152071,26.0299916 Z" id="Path" fill="#FD6F00" opacity="0.2"></path>
            <path d="M80.8423788,28.2079992 C90.943176,46.4698992 88.6132766,69.5135992 73.8813807,84.3381992 C60.1258845,98.1801991 38.3279906,97.4190991 20.9431954,88.4839992 C5.55147964,80.5732992 -1.47860842,63.6419992 0.258548103,46.4991992 C2.16904057,27.6457992 10.9181982,8.30684921 29.495293,4.09017921 C49.8977874,-0.540849784 70.7565816,9.97346921 80.8423788,28.2079992 Z" id="Path" fill="#FE9747"></path>
            <path d="M62.8283967,38.8284618 C64.3905344,37.2663092 64.3905344,34.7336654 62.8283967,33.1716144 C61.2663606,31.6094619 58.7336394,31.6094619 57.1716033,33.1716144 C55.6094656,34.7336654 55.6094656,37.2663092 57.1716033,38.8284618 C58.7336394,40.3905127 61.2663606,40.3905127 62.8283967,38.8284618 Z" id="Path" fill="#F3F3F1"></path>
            <path d="M43.6648774,36.8241171 L33,48.7710668 L47.2297076,63 L59.1773074,52.3357029 C67.3561107,45.347034 73.2438418,33.7626716 72.9922328,23.007627 C62.2367036,22.7583482 50.6539267,28.6457589 43.6648774,36.8241171 Z M56.3331588,39.668111 C54.7853303,38.1203668 54.7853303,35.6095504 56.3331588,34.0594896 C57.8809872,32.5094289 60.3919403,32.5117454 61.9420854,34.0594896 C63.4899138,35.6072338 63.4899138,38.118151 61.9420854,39.668111 C60.3942569,41.2158552 57.8832032,41.2158552 56.3331588,39.668111 Z" id="Shape" fill="#2FDF84"></path>
            <path d="M35.373038,68.4770626 C33.2061143,70.6442418 22,74 22,74 C22,74 25.3553624,62.7925637 27.522286,60.6253845 C29.6892097,58.4582052 33.2061143,58.4582052 35.373038,60.6253845 C37.5423207,62.7925637 37.5423207,66.307524 35.373038,68.4770626 Z" id="Path" fill="#2FDF84"></path>
            <path d="M61.7661913,38.8354516 C60.3404221,37.2707405 60.3404221,34.7323995 61.7661913,33.1653464 C61.8393029,33.0852119 61.922806,33.0278856 62,32.9545732 C60.5638393,31.6212035 58.4219845,31.6785297 57.0693269,33.1653464 C55.6435577,34.7300576 55.6435577,37.2685004 57.0693269,38.8354516 C58.4219845,40.3200283 60.5658805,40.3795946 62,39.0462249 C61.9248472,38.9729124 61.8393029,38.915688 61.7661913,38.8354516 Z" id="Path" fill="#D5DBE1"></path>
            <path d="M33.6755802,60.6119868 C34.0733149,60.2123508 34.526336,59.9120076 35,59.6578711 C32.909951,58.5396706 30.2634618,58.8400137 28.5021673,60.6119868 C26.3431382,62.781337 23,74 23,74 C23,74 25.7430615,73.1730039 28.7734895,72.0779067 C29.8334341,68.7764939 32.07759,62.2176161 33.6755802,60.6119868 Z" id="Path" fill="#00B871"></path>
            <path d="M37.8163376,48.7724955 L48.4825746,36.8248848 C54.4367369,29.8584922 63.7249922,24.5690579 72.9951149,23.3045654 C72.9927979,23.2070643 73.0018642,23.1073473 73,23.0076303 C62.242647,22.7583377 50.6561773,28.6437575 43.666237,36.8226689 L33,48.7702796 L47.2315216,63 L49.7767431,60.7291713 L37.8163376,48.7724955 Z" id="Path" fill="#00B871"></path>
            <path d="M47.7813765,64 C47.3502645,64 46.9191525,63.8338361 46.5913278,63.5059993 L43.4973008,60.4118584 L45.5315108,58.421884 L47.7813765,60.4118584 L59.0322022,50.9370251 C66.6640822,44.4164156 71.6417293,33.2852329 72.00548,23.9915331 C62.7121224,24.3574928 51.5588957,29.8590637 45.06098,37.4642791 L35.5805077,48.4420721 L42.5661189,55.4279404 L40.6411838,57.5557361 L32.4929674,49.4071199 C31.8620669,48.7761962 31.8328272,47.7612493 32.4278016,47.0943983 L42.9943368,35.2588405 C50.4779222,26.4995596 62.6251016,20.7670559 73.3488131,21.0072699 C74.2468633,21.027529 74.9721693,21.7527619 74.9923278,22.6509449 C75.239319,33.3120786 69.5025356,45.5203824 60.7143374,53.0289932 L48.9062595,63.5711675 C48.5829255,63.8585861 48.1832488,64 47.7813765,64 Z" id="Path" fill="#000000"></path>
            <path d="M52.2506135,72 C52.0780218,72 51.9055323,71.9758962 51.7421428,71.9231997 C51.1210989,71.7255876 50.6333842,71.2490742 50.5413625,70.6321342 L49,60.3631378 L51.7421428,59.6697878 L53.3395363,67.9646152 C56.6844208,63.7423529 59.4743126,57.3244009 59.4743126,52 L62,52 C62,59.3641478 58.9979472,66.2847663 53.5480164,71.4862086 C53.2076386,71.8090238 52.7267744,72 52.2506135,72 Z" id="Path" fill="#000000"></path>
            <path d="M36.2384883,47 L25.4803333,45.4590185 C24.8316543,45.3670135 24.2911396,44.9138377 24.0863635,44.2905549 C23.8816897,43.6672722 24.0473099,42.9840839 24.5142157,42.5218099 C30.0347859,37.0016121 37.2850647,34 45,34 L45,36.5254351 C39.3943705,36.5254351 32.660888,39.8443621 28.2721579,43.1702407 L36.4509319,43.6813796 L36.2384883,47 Z" id="Path" fill="#000000"></path>
            <path d="M59.4999625,41 C58.3454593,41 57.1927561,40.5606 56.3156537,39.6837 C54.5614488,37.9281 54.5614488,35.0723 56.3156537,33.3167 C58.0717585,31.5611 60.9282665,31.5611 62.6842713,33.3167 C64.4385762,35.0723 64.4385762,37.9281 62.6842713,39.6837 C61.8053689,40.5624 60.6526657,41 59.4999625,41 Z M59.4999625,34.7014 C59.0388612,34.7014 58.5760599,34.8761 58.224859,35.2272 C57.522357,35.9294 57.522357,37.071 58.224859,37.7751 C58.9254609,38.4773 60.0709641,38.4773 60.771566,37.7751 C61.473968,37.0728 61.473968,35.9312 60.771566,35.229 C60.4221651,34.8761 59.9610638,34.7014 59.4999625,34.7014 Z" id="Shape" fill="#000000"></path>
            <path d="M22.6864921,75 C22.2454541,75 21.8134168,74.8261355 21.4939892,74.5031007 C21.0551513,74.0627175 20.8931374,73.4167485 21.0709527,72.8182609 C21.6357014,70.9188008 24.5811556,61.3243286 26.8807541,59.0183145 C29.5651858,56.3261244 34.2409893,56.3283328 36.9209206,59.0183145 C38.2619363,60.3666682 39,62.1555055 39,64.059483 C39,65.9634604 38.2619363,67.7522977 36.9209206,69.0983426 C34.6235223,71.4043567 25.0626972,74.3608571 23.1725341,74.9300326 C23.0128203,74.9774137 22.8485061,75 22.6864921,75 Z M31.9989958,59.9430491 C31.0449135,59.9430491 29.2254564,60.2173977 28.4986937,60.9468859 C27.5176091,61.9316499 25.8124619,67.5391831 24.4983485,71.4871732 C28.4315879,70.1682319 34.0181701,67.9546712 34.9992547,66.9699072 C36.4528802,65.5109307 36.4528802,62.4037544 34.9992547,60.9468859 C34.272492,60.2173977 32.9530781,59.9430491 31.9989958,59.9430491 Z" id="Shape" fill="#000000"></path>
        </g>
    </g>
</svg>