<svg width="92" height="95" viewBox="0 0 92 95" fill="none" xmlns="http://www.w3.org/2000/svg">
<path opacity="0.2" d="M6.51152 26.03C-4.16982 44.8874 -1.70598 68.6826 13.8726 83.9906C28.4186 98.2839 51.4692 97.498 69.8531 88.2716C86.1295 80.1029 93.5636 62.6194 91.7266 44.9177C89.7063 25.4495 80.4543 5.4799 60.8096 1.12573C39.2345 -3.65631 17.1769 7.20087 6.51152 26.03Z" fill="#FD6F00"/>
<path d="M80.8424 28.208C90.9432 46.4699 88.6133 69.5136 73.8814 84.3382C60.1259 98.1802 38.328 97.4191 20.9432 88.484C5.55148 80.5733 -1.47861 63.642 0.258547 46.4992C2.16904 27.6458 10.9182 8.30685 29.4953 4.09018C49.8978 -0.540849 70.7566 9.97347 80.8424 28.208Z" fill="#FE9747"/>
<path d="M62.3261 39.2373C63.8638 37.6996 63.8638 35.2066 62.3261 33.669C60.7885 32.1313 58.2954 32.1313 56.7578 33.669C55.2201 35.2066 55.2201 37.6996 56.7578 39.2373C58.2954 40.7749 60.7885 40.7749 62.3261 39.2373Z" fill="#F3F3F1"/>
<path d="M44.1868 36.4127L33.5986 48.2744L47.726 62.4018L59.5877 51.8136C67.7077 44.8748 73.5531 33.3731 73.3033 22.6948C62.6251 22.4473 51.1256 28.2927 44.1868 36.4127ZM56.764 39.2364C55.2273 37.6997 55.2273 35.2068 56.764 33.6678C58.3007 32.1288 60.7936 32.1311 62.3326 33.6678C63.8693 35.2045 63.8693 37.6975 62.3326 39.2364C60.7959 40.7731 58.3029 40.7731 56.764 39.2364Z" fill="#2FDF84"/>
<path d="M35.7259 67.9278C33.6132 70.0405 22.6875 73.3119 22.6875 73.3119C22.6875 73.3119 25.9589 62.3862 28.0716 60.2735C30.1843 58.1608 33.6132 58.1608 35.7259 60.2735C37.8409 62.3862 37.8409 65.8128 35.7259 67.9278Z" fill="#2FDF84"/>
<path d="M61.8262 39.2365C60.2895 37.6998 60.2895 35.2069 61.8262 33.6679C61.905 33.5892 61.995 33.5329 62.0782 33.4609C60.5303 32.1514 58.2218 32.2077 56.7639 33.6679C55.2272 35.2046 55.2272 37.6976 56.7639 39.2365C58.2218 40.6945 60.5325 40.753 62.0782 39.4435C61.9972 39.3715 61.905 39.3153 61.8262 39.2365Z" fill="#D5DBE1"/>
<path d="M33.134 60.2735C33.5232 59.8843 33.9665 59.5918 34.43 59.3443C32.3848 58.2553 29.7951 58.5478 28.0716 60.2735C25.9589 62.3862 22.6875 73.3119 22.6875 73.3119C22.6875 73.3119 25.3717 72.5065 28.3371 71.44C29.3743 68.2248 31.5703 61.8372 33.134 60.2735Z" fill="#00B871"/>
<path d="M38.3797 48.2744L48.9679 36.4127C54.8785 29.4964 64.0988 24.245 73.3011 22.9896C73.2988 22.8928 73.3078 22.7938 73.3056 22.6948C62.6273 22.4473 51.1256 28.2904 44.1868 36.4105L33.5986 48.2722L47.726 62.3996L50.2526 60.1451L38.3797 48.2744Z" fill="#00B871"/>
<path d="M47.726 64.0894C47.294 64.0894 46.862 63.9229 46.5335 63.5944L43.4331 60.494L45.4715 58.5L47.726 60.494L59 51C66.6476 44.4662 71.6355 33.3125 72 24C62.6875 24.3667 51.5113 29.8794 45 37.5L35.5 48.5L42.5 55.5L40.5711 57.6321L32.4061 49.467C31.7739 48.8348 31.7446 47.8178 32.3408 47.1496L42.9291 35.2901C50.4281 26.5131 62.6003 20.769 73.3461 21.0097C74.246 21.03 74.9728 21.7567 74.993 22.6567C75.2405 33.3394 69.4919 45.5724 60.6856 53.0962L48.8532 63.6597C48.5292 63.9477 48.1287 64.0894 47.726 64.0894Z" fill="black"/>
<path d="M51.9352 72.1351C51.7664 72.1351 51.5977 72.1104 51.4379 72.0564C50.8305 71.8539 50.3535 71.3656 50.2635 70.7334L48.756 60.2104L51.4379 59.4999L53.0002 67.9999C56.2716 63.6732 59.0002 57.0965 59.0002 51.6404H61.4704C61.4704 59.1867 58.5343 66.2785 53.2041 71.6086C52.8712 71.9394 52.4009 72.1351 51.9352 72.1351Z" fill="black"/>
<path d="M35.7922 47.2462L25.2692 45.7388C24.6347 45.6488 24.106 45.2055 23.9057 44.5958C23.7055 43.9861 23.8675 43.3178 24.3242 42.8656C29.7241 37.4657 36.8159 34.5295 44.3622 34.5295V36.9999C38.8791 36.9999 32.2928 40.2465 28 43.4999L36 43.9999L35.7922 47.2462Z" fill="black"/>
<path d="M59.4998 41C58.3453 41 57.1926 40.5606 56.3155 39.6837C54.5613 37.9281 54.5613 35.0723 56.3155 33.3167C58.0716 31.5611 60.9281 31.5611 62.6841 33.3167C64.4384 35.0723 64.4384 37.9281 62.6841 39.6837C61.8052 40.5624 60.6525 41 59.4998 41ZM59.4998 34.7014C59.0387 34.7014 58.5759 34.8761 58.2247 35.2272C57.5222 35.9294 57.5222 37.071 58.2247 37.7751C58.9253 38.4773 60.0708 38.4773 60.7714 37.7751C61.4738 37.0728 61.4738 35.9312 60.7714 35.229C60.422 34.8761 59.9609 34.7014 59.4998 34.7014Z" fill="black"/>
<path d="M22.6883 74.9993C22.2473 74.9993 21.8153 74.8261 21.4959 74.5043C21.0571 74.0656 20.8951 73.4221 21.0729 72.8259C21.6376 70.9337 24.5828 61.3759 26.8822 59.0787C29.5664 56.3968 34.2418 56.399 36.9215 59.0787C38.2624 60.4219 39.0004 62.2039 39.0004 64.1006C39.0004 65.9973 38.2624 67.7793 36.9215 69.1202C34.6243 71.4174 25.0643 74.3626 23.1743 74.9296C23.0146 74.9768 22.8503 74.9993 22.6883 74.9993ZM32 59.9999C31.046 59.9999 29.2267 60.2732 28.5 60.9999C27.519 61.9809 25.814 67.567 24.5 71.4999C28.4329 70.186 34.019 67.9809 35 66.9999C36.4535 65.5465 36.4535 62.4512 35 60.9999C34.2733 60.2732 32.954 59.9999 32 59.9999Z" fill="black"/>
</svg>
