<svg width="98" height="97" viewBox="0 0 98 97" fill="none" xmlns="http://www.w3.org/2000/svg">
<path opacity="0.2" d="M12.5115 26.03C1.83018 44.8874 4.29402 68.6826 19.8726 83.9906C34.4186 98.2839 57.4692 97.498 75.8531 88.2716C92.1295 80.1029 99.5636 62.6194 97.7266 44.9177C95.7063 25.4495 86.4543 5.4799 66.8096 1.12573C45.2345 -3.65631 23.1769 7.20087 12.5115 26.03Z" fill="#66BB83"/>
<path d="M11.3732 69.5294C1.27232 51.2676 5.98375 35.5621 20.7157 20.7375C34.4711 6.89548 53.3308 2.80241 70.7156 11.7375C86.1074 19.6482 96.2371 31.8571 94.5 48.9999C92.5895 67.8533 83.577 88.2833 65 92.5C44.5975 97.131 21.4589 87.764 11.3732 69.5294Z" fill="#66BB83"/>
<path d="M61.2668 76.4334H74.8335C77.5581 76.4334 79.7668 74.2247 79.7668 71.5001V27.1001C79.7668 24.3755 77.5581 22.1667 74.8335 22.1667H13.1668C10.4422 22.1667 8.23346 24.3755 8.23346 27.1001V71.5001C8.23346 74.2247 10.4422 76.4334 13.1668 76.4334H51.4001" fill="#FFDC00"/>
<path d="M74.8329 22.1667H71.1329C73.8575 22.1667 76.0662 24.3755 76.0662 27.1001V71.5001C76.0662 74.2247 73.8575 76.4334 71.1329 76.4334H74.8329C77.5575 76.4334 79.7662 74.2247 79.7662 71.5001V27.1001C79.7662 24.3755 77.5575 22.1667 74.8329 22.1667Z" fill="#FEC108"/>
<path d="M53.8662 66.5668H20.5662C17.8416 66.5668 15.6329 64.3581 15.6329 61.6334V36.9668C15.6329 34.2422 17.8416 32.0334 20.5662 32.0334H53.8662V66.5668Z" fill="#F5F5F5"/>
<path d="M50.1661 32.0334H53.8661V66.5668H50.1661V32.0334Z" fill="#CFD8DC"/>
<path d="M74.3279 43.1828C74.6544 43.5298 74.8354 43.9889 74.8335 44.4654C74.8355 45.2027 74.4063 45.8731 73.7359 46.1798C73.0629 46.492 72.6305 47.1646 72.6259 47.9064C72.6238 48.1303 72.6657 48.3524 72.7492 48.5601C72.8306 48.7684 72.8724 48.9901 72.8725 49.2138C72.8673 50.23 72.0627 51.0618 71.0472 51.1008C70.0613 51.1369 69.2704 51.9279 69.2342 52.9138C69.2233 53.3998 69.0191 53.8614 68.6669 54.1964C68.3156 54.544 67.8414 54.739 67.3472 54.7391C67.1235 54.739 66.9019 54.6971 66.6935 54.6158C66.4858 54.5323 66.2637 54.4904 66.0399 54.4924C65.298 54.4971 64.6254 54.9294 64.3132 55.6024C64.0065 56.2729 63.3361 56.7021 62.5989 56.7001C62.1223 56.702 61.6633 56.521 61.3162 56.1944C60.6128 55.5346 59.5227 55.5186 58.8002 56.1574C58.7879 56.1698 58.7632 56.1821 58.7509 56.1944C58.4038 56.521 57.9447 56.702 57.4682 56.7001C56.7309 56.7021 56.0606 56.2729 55.7539 55.6024C55.4417 54.9294 54.7691 54.4971 54.0272 54.4924C53.8033 54.4904 53.5812 54.5323 53.3735 54.6158C53.1652 54.6971 52.9435 54.739 52.7199 54.7391C52.2257 54.739 51.7515 54.544 51.4002 54.1964C51.0479 53.8614 50.8438 53.3998 50.8329 52.9138C50.7967 51.9279 50.0058 51.1369 49.0199 51.1008C48.0044 51.0618 47.1997 50.23 47.1945 49.2138C47.1947 48.9901 47.2365 48.7684 47.3179 48.5601C47.4014 48.3524 47.4433 48.1303 47.4412 47.9064C47.4366 47.1646 47.0042 46.492 46.3312 46.1798C45.6608 45.8731 45.2315 45.2027 45.2335 44.4654C45.2317 43.9889 45.4127 43.5298 45.7392 43.1828C46.4134 42.4606 46.4134 41.3396 45.7392 40.6174C45.4127 40.2704 45.2317 39.8113 45.2335 39.3348C45.2315 38.5975 45.6608 37.9272 46.3312 37.6204C47.0042 37.3082 47.4366 36.6357 47.4412 35.8938C47.4433 35.6699 47.4014 35.4478 47.3179 35.2401C47.2365 35.0318 47.1947 34.8101 47.1945 34.5864C47.1997 33.5702 48.0044 32.7384 49.0199 32.6994C50.0058 32.6633 50.7967 31.8724 50.8329 30.8864C50.8718 29.871 51.7037 29.0663 52.7199 29.0611C52.9435 29.0613 53.1652 29.1031 53.3735 29.1844C53.5812 29.268 53.8033 29.3099 54.0272 29.3078C54.7691 29.3032 55.4417 28.8708 55.7539 28.1978C56.0606 27.5273 56.7309 27.0981 57.4682 27.1001C57.9447 27.0982 58.4038 27.2792 58.7509 27.6058C59.4731 28.28 60.594 28.28 61.3162 27.6058C61.7593 27.1945 62.3726 27.0204 62.9657 27.1375C63.5587 27.2547 64.0598 27.6489 64.3132 28.1978C64.6254 28.8708 65.298 29.3032 66.0399 29.3078C66.2637 29.3099 66.4858 29.268 66.6935 29.1844C66.9019 29.1031 67.1235 29.0613 67.3472 29.0611C68.3634 29.0663 69.1953 29.871 69.2342 30.8864C69.2704 31.8724 70.0613 32.6633 71.0472 32.6994C72.0627 32.7384 72.8673 33.5702 72.8725 34.5864C72.8724 34.8101 72.8306 35.0318 72.7492 35.2401C72.6657 35.4478 72.6238 35.6699 72.6259 35.8938C72.6305 36.6357 73.0629 37.3082 73.7359 37.6204C74.4063 37.9272 74.8355 38.5975 74.8335 39.3348C74.8354 39.8113 74.6544 40.2704 74.3279 40.6174C73.6536 41.3396 73.6536 42.4606 74.3279 43.1828Z" fill="#E91E63"/>
<path d="M73.8225 41.8999C73.8264 41.4245 74.0066 40.9674 74.3282 40.6173C74.6547 40.2702 74.8357 39.8111 74.8339 39.3346C74.8359 38.5973 74.4066 37.927 73.7362 37.6203C73.0632 37.3081 72.6308 36.6355 72.6262 35.8936C72.6241 35.6697 72.666 35.4476 72.7495 35.2399C72.8309 35.0316 72.8727 34.8099 72.8729 34.5863C72.8677 33.57 72.063 32.7382 71.0475 32.6993C70.0616 32.6631 69.2707 31.8722 69.2345 30.8863C69.1956 29.8708 68.3637 29.0661 67.3475 29.0609C67.1239 29.0611 66.9022 29.1029 66.6939 29.1843C66.4862 29.2678 66.2641 29.3097 66.0402 29.3076C65.2983 29.303 64.6257 28.8706 64.3135 28.1976C64.0601 27.6487 63.5591 27.2545 62.966 27.1374C62.3729 27.0202 61.7596 27.1943 61.3165 27.6056C61.0834 27.8074 60.805 27.9499 60.505 28.0212C60.5445 28.0779 60.5807 28.1368 60.6135 28.1976C60.9257 28.8706 61.5983 29.303 62.3402 29.3076C62.5641 29.3097 62.7862 29.2678 62.9939 29.1843C63.2022 29.1029 63.4239 29.0611 63.6475 29.0609C64.6637 29.0661 65.4956 29.8708 65.5345 30.8863C65.5707 31.8722 66.3616 32.6631 67.3475 32.6993C68.363 32.7382 69.1677 33.57 69.1729 34.5863C69.1727 34.8099 69.1309 35.0316 69.0495 35.2399C68.966 35.4476 68.9241 35.6697 68.9262 35.8936C68.9308 36.6355 69.3632 37.3081 70.0362 37.6203C70.7066 37.927 71.1359 38.5973 71.1339 39.3346C71.1357 39.8111 70.9547 40.2702 70.6282 40.6173C69.954 41.3395 69.954 42.4604 70.6282 43.1826C70.9547 43.5296 71.1357 43.9887 71.1339 44.4653C71.1359 45.2025 70.7066 45.8729 70.0362 46.1796C69.3632 46.4918 68.9308 47.1644 68.9262 47.9063C68.9241 48.1301 68.966 48.3522 69.0495 48.5599C69.1309 48.7683 69.1727 48.9899 69.1729 49.2136C69.1677 50.2298 68.363 51.0617 67.3475 51.1006C66.3616 51.1368 65.5707 51.9277 65.5345 52.9136C65.5236 53.3996 65.3195 53.8612 64.9672 54.1963C64.6159 54.5438 64.1417 54.7388 63.6475 54.7389C63.4239 54.7388 63.2022 54.6969 62.9939 54.6156C62.7862 54.5321 62.5641 54.4902 62.3402 54.4923C61.5983 54.4969 60.9257 54.9293 60.6135 55.6023C60.579 55.6627 60.5411 55.7212 60.5001 55.7774C60.802 55.848 61.0822 55.9911 61.3165 56.1943C61.6636 56.5208 62.1227 56.7018 62.5992 56.6999C63.3365 56.7019 64.0068 56.2727 64.3135 55.6023C64.6257 54.9293 65.2983 54.4969 66.0402 54.4923C66.2641 54.4902 66.4862 54.5321 66.6939 54.6156C66.9022 54.6969 67.1239 54.7388 67.3475 54.7389C67.8417 54.7388 68.3159 54.5438 68.6672 54.1963C69.0195 53.8612 69.2236 53.3996 69.2345 52.9136C69.2707 51.9277 70.0616 51.1368 71.0475 51.1006C72.063 51.0617 72.8677 50.2298 72.8729 49.2136C72.8727 48.9899 72.8309 48.7683 72.7495 48.5599C72.666 48.3522 72.6241 48.1301 72.6262 47.9063C72.6308 47.1644 73.0632 46.4918 73.7362 46.1796C74.4066 45.8729 74.8359 45.2025 74.8339 44.4653C74.8357 43.9887 74.6547 43.5296 74.3282 43.1826C74.0066 42.8324 73.8264 42.3754 73.8225 41.8999Z" fill="#AD1457"/>
<path d="M60.0328 50.5335C64.8009 50.5335 68.6661 46.6682 68.6661 41.9002C68.6661 37.1321 64.8009 33.2668 60.0328 33.2668C55.2648 33.2668 51.3995 37.1321 51.3995 41.9002C51.3995 46.6682 55.2648 50.5335 60.0328 50.5335Z" fill="#FFDC00"/>
<path d="M60.0338 33.2669C59.4116 33.2678 58.7914 33.3361 58.1838 33.4704C62.1384 34.3445 64.9537 37.8501 64.9537 41.9002C64.9537 45.9502 62.1384 49.4559 58.1838 50.33C61.4166 51.0446 64.7733 49.8475 66.8243 47.2486C68.8754 44.6496 69.2595 41.1067 67.8131 38.1285C66.3667 35.1504 63.3446 33.2617 60.0338 33.2669Z" fill="#FEC108"/>
<path d="M61.2661 69.0333V83.8333L56.3328 78.9L51.3995 83.8333V54.1963C51.7508 54.5438 52.225 54.7388 52.7191 54.739C52.9428 54.7388 53.1645 54.697 53.3728 54.6156C53.5805 54.5321 53.8026 54.4902 54.0265 54.4923C54.7684 54.4969 55.4409 54.9293 55.7531 55.6023C56.0598 56.2727 56.7302 56.702 57.4675 56.7C57.944 56.7018 58.4031 56.5208 58.7501 56.1943C58.7625 56.182 58.7871 56.1696 58.7995 56.1573V71.5L61.2661 69.0333Z" fill="#E91E63"/>
<path d="M68.6675 54.1963V71.5L63.7342 66.5666L58.8008 71.5V56.1573C59.5234 55.5184 60.6134 55.5345 61.3168 56.1943C61.6639 56.5208 62.123 56.7018 62.5995 56.7C63.3368 56.702 64.0071 56.2727 64.3138 55.6023C64.6261 54.9293 65.2986 54.4969 66.0405 54.4923C66.2644 54.4902 66.4865 54.5321 66.6942 54.6156C66.9025 54.697 67.1242 54.7388 67.3478 54.739C67.842 54.7388 68.3162 54.5438 68.6675 54.1963Z" fill="#E91E63"/>
<path d="M67.3473 54.7392C67.1236 54.739 66.9019 54.6972 66.6936 54.6159C66.4859 54.5323 66.2638 54.4904 66.0399 54.4925C65.6553 54.4971 65.2811 54.6184 64.9669 54.8403V67.8002L68.6669 71.5002V54.1965C68.3156 54.5441 67.8414 54.7391 67.3473 54.7392Z" fill="#AD1457"/>
<path d="M74.8333 20.9333H13.1667C9.7626 20.9374 7.00408 23.696 7 27.1V71.5C7.00408 74.9041 9.7626 77.6626 13.1667 77.6667H50.1667V83.8334C50.1668 84.3321 50.4673 84.7817 50.9281 84.9726C51.3889 85.1634 51.9192 85.0579 52.272 84.7053L56.3333 80.644L60.3947 84.7053C60.7474 85.0579 61.2778 85.1634 61.7386 84.9726C62.1994 84.7817 62.4999 84.3321 62.5 83.8334V77.6667H74.8333C78.2374 77.6626 80.9959 74.9041 81 71.5V27.1C80.9959 23.696 78.2374 20.9374 74.8333 20.9333ZM46.849 45.0635C46.6584 44.9756 46.5213 44.8017 46.4803 44.5958C46.4394 44.3899 46.4994 44.1768 46.6418 44.0226C47.7454 42.8232 47.7454 40.9781 46.6418 39.7787C46.4989 39.6243 46.4388 39.4107 46.48 39.2044C46.5213 38.9981 46.659 38.8241 46.8502 38.7365C48.3276 38.049 49.0328 36.345 48.4733 34.8145C48.4005 34.6175 48.4264 34.3975 48.543 34.2228C48.6597 34.048 48.8529 33.9397 49.0628 33.9314C50.6916 33.863 51.9963 32.5582 52.0648 30.9295C52.0729 30.7193 52.1814 30.5257 52.3564 30.409C52.5315 30.2924 52.7519 30.2667 52.9491 30.34C54.4798 30.8962 56.1818 30.1913 56.8711 28.7157C56.9583 28.5247 57.132 28.3872 57.3379 28.3461C57.5439 28.3051 57.757 28.3655 57.9108 28.5085C59.1106 29.6122 60.9561 29.6122 62.1559 28.5085C62.3101 28.3656 62.5235 28.3054 62.7296 28.3467C62.9358 28.388 63.1095 28.5257 63.1968 28.7169C63.8847 30.1932 65.5875 30.8981 67.1176 30.34C67.3148 30.2667 67.5352 30.2924 67.7102 30.409C67.8853 30.5257 67.9937 30.7193 68.0019 30.9295C68.0711 32.5605 69.3789 33.8662 71.01 33.9327C71.2198 33.9406 71.4131 34.0486 71.5298 34.2231C71.6465 34.3977 71.6724 34.6176 71.5995 34.8145C71.0396 36.3453 71.7455 38.0499 73.2238 38.7365C73.4145 38.8245 73.5515 38.9983 73.5925 39.2042C73.6335 39.4101 73.5735 39.6232 73.431 39.7775C72.3275 40.9769 72.3275 42.8219 73.431 44.0213C73.5739 44.1758 73.6341 44.3893 73.5928 44.5956C73.5516 44.8019 73.4139 44.9759 73.2226 45.0635C71.7452 45.751 71.04 47.4551 71.5995 48.9855C71.6723 49.1826 71.6464 49.4026 71.5298 49.5773C71.4131 49.752 71.2199 49.8603 71.01 49.8686C69.3766 49.9341 68.0674 51.2433 68.0019 52.8767C67.9937 53.0869 67.8853 53.2805 67.7102 53.3972C67.5352 53.5138 67.3148 53.5395 67.1176 53.4662C65.5869 52.9094 63.8844 53.6145 63.1956 55.0905C63.1116 55.2833 62.9374 55.422 62.7306 55.4605C62.5242 55.5037 62.3096 55.4434 62.1559 55.299C60.9559 54.1958 59.1108 54.1958 57.9108 55.299C57.7569 55.4432 57.5425 55.5035 57.336 55.4605C57.129 55.4219 56.9544 55.2834 56.8698 55.0905C56.1824 53.6138 54.4792 52.9087 52.9491 53.4674C52.7519 53.5408 52.5315 53.5151 52.3564 53.3984C52.1814 53.2817 52.0729 53.0881 52.0648 52.8779C51.9993 51.2441 50.6905 49.9341 49.0567 49.8673C48.8468 49.8595 48.6535 49.7514 48.5368 49.5769C48.4202 49.4023 48.3942 49.1824 48.4671 48.9855C49.028 47.4563 48.3249 45.7524 46.849 45.0635ZM60.3959 68.1601L60.0333 68.5227V56.9294C60.1984 56.929 60.3575 56.9911 60.4786 57.1033C61.0501 57.6391 61.8042 57.9371 62.5876 57.937C62.7971 57.9366 63.0061 57.916 63.2116 57.8754C64.193 57.6838 65.0206 57.0282 65.4316 56.1166C65.5761 55.8057 65.935 55.6576 66.2567 55.7762C66.632 55.9092 67.0293 55.9691 67.4272 55.9526V68.5227L64.5991 65.6947C64.1175 65.2132 63.3368 65.2132 62.8552 65.6947L60.3959 68.1601ZM60.0333 80.8561L57.2053 78.028C56.7237 77.5466 55.943 77.5466 55.4614 78.028L52.6333 80.8561V55.9501C53.0312 55.9667 53.4285 55.9068 53.8038 55.7738C54.1248 55.6545 54.4836 55.8022 54.6276 56.1129C55.0398 57.0268 55.8706 57.6833 56.855 57.8729C57.0893 57.9193 57.328 57.9395 57.5667 57.9333V71.5C57.5668 71.9988 57.8673 72.4484 58.3281 72.6392C58.7889 72.8301 59.3192 72.7246 59.672 72.372L60.0333 72.0106V80.8561ZM78.5333 71.5C78.5333 73.5435 76.8768 75.2 74.8333 75.2H62.5V69.544L63.7333 68.3106L67.7947 72.372C68.1474 72.7246 68.6778 72.8301 69.1386 72.6392C69.5994 72.4484 69.8999 71.9988 69.9 71.5V54.612C70.2442 54.1287 70.4409 53.5559 70.4661 52.963C70.4812 52.6209 70.7554 52.3472 71.0976 52.3328C72.0974 52.2942 73.0183 51.7789 73.574 50.9468C74.1298 50.1147 74.2532 49.0667 73.9059 48.1283C73.7881 47.8073 73.9361 47.4497 74.2463 47.3057C75.1559 46.8878 75.8101 46.0591 76.0054 45.0773C76.2007 44.0954 75.9134 43.0795 75.2329 42.3452C75.0011 42.0932 75.0011 41.7056 75.2329 41.4536C75.9135 40.7196 76.2007 39.7038 76.0054 38.7221C75.8101 37.7404 75.1559 36.9119 74.2463 36.4943C73.9352 36.3512 73.7864 35.993 73.9046 35.6717C74.252 34.7333 74.1286 33.6853 73.5728 32.8532C73.017 32.0212 72.0962 31.5058 71.0963 31.4672C70.7542 31.4529 70.4799 31.1791 70.4649 30.837C70.4275 29.8368 69.9127 28.9152 69.0807 28.3588C68.2487 27.8024 67.2003 27.6787 66.2617 28.0262C65.9406 28.1475 65.5805 27.9992 65.4378 27.6871C65.0199 26.7774 64.1912 26.1232 63.2093 25.9279C62.2275 25.7326 61.2115 26.0199 60.4773 26.7004C60.2257 26.9321 59.8385 26.9321 59.5869 26.7004C58.8529 26.0199 57.8371 25.7326 56.8554 25.9279C55.8737 26.1232 55.0452 26.7774 54.6276 27.6871C54.4845 27.9994 54.1243 28.148 53.8025 28.0275C52.8639 27.68 51.8155 27.8036 50.9835 28.36C50.1515 28.9164 49.6367 29.838 49.5993 30.8383C49.5843 31.1804 49.31 31.4541 48.9679 31.4685C47.968 31.507 47.0472 32.0224 46.4914 32.8545C45.9356 33.6865 45.8122 34.7345 46.1596 35.6729C46.2773 35.9939 46.1293 36.3516 45.8192 36.4956C44.9095 36.9135 44.2553 37.7422 44.06 38.724C43.8647 39.7059 44.152 40.7218 44.8325 41.456C45.0643 41.708 45.0643 42.0957 44.8325 42.3477C44.152 43.0817 43.8647 44.0975 44.06 45.0792C44.2553 46.0609 44.9095 46.8893 45.8192 47.307C46.1302 47.45 46.279 47.8082 46.1608 48.1296C45.8135 49.068 45.9369 50.116 46.4926 50.948C47.0484 51.7801 47.9692 52.2955 48.9691 52.334C49.3112 52.3484 49.5855 52.6221 49.6006 52.9643C49.626 53.5567 49.8227 54.129 50.1667 54.612V75.2H13.1667C11.1232 75.2 9.46667 73.5435 9.46667 71.5V27.1C9.46667 25.0566 11.1232 23.4 13.1667 23.4H74.8333C76.8768 23.4 78.5333 25.0566 78.5333 27.1V71.5Z" fill="black"/>
<path d="M20.5661 65.3334C18.5226 65.3334 16.8661 63.6768 16.8661 61.6334V36.9667C16.8661 34.9233 18.5226 33.2667 20.5661 33.2667H42.7661C43.4472 33.2667 43.9994 32.7145 43.9994 32.0334C43.9994 31.3522 43.4472 30.8 42.7661 30.8H20.5661C17.162 30.8041 14.4035 33.5626 14.3994 36.9667V61.6334C14.4035 65.0374 17.162 67.796 20.5661 67.8H43.9994C44.6806 67.8 45.2327 67.2479 45.2327 66.5667C45.2327 65.8856 44.6806 65.3334 43.9994 65.3334H20.5661Z" fill="black"/>
<path d="M21.8007 50.5333H39.0674C39.7485 50.5333 40.3007 49.9811 40.3007 49.3C40.3007 48.6188 39.7485 48.0667 39.0674 48.0667H21.8007C21.1196 48.0667 20.5674 48.6188 20.5674 49.3C20.5674 49.9811 21.1196 50.5333 21.8007 50.5333Z" fill="black"/>
<path d="M21.8007 45.6H39.0674C39.7485 45.6 40.3007 45.0478 40.3007 44.3666C40.3007 43.6855 39.7485 43.1333 39.0674 43.1333H21.8007C21.1196 43.1333 20.5674 43.6855 20.5674 44.3666C20.5674 45.0478 21.1196 45.6 21.8007 45.6Z" fill="black"/>
<path d="M21.8007 40.6666H39.0674C39.7485 40.6666 40.3007 40.1144 40.3007 39.4333C40.3007 38.7521 39.7485 38.2 39.0674 38.2H21.8007C21.1196 38.2 20.5674 38.7521 20.5674 39.4333C20.5674 40.1144 21.1196 40.6666 21.8007 40.6666Z" fill="black"/>
<path d="M20.6693 62.1267C20.8656 62.5763 21.3097 62.8669 21.8003 62.8667C21.9701 62.8674 22.1381 62.8326 22.2936 62.7643C23.4354 62.3401 24.4848 61.6999 25.3843 60.8785C25.7183 60.5453 26.0103 60.1726 26.2538 59.7685C26.7248 60.298 27.2783 60.7478 27.8929 61.1006C28.7501 61.661 29.817 61.7974 30.7876 61.4705C31.1596 61.3261 31.4962 61.1032 31.7742 60.8169C32.3323 61.1656 32.9472 61.414 33.5909 61.5507L34.5233 61.7715C36.4265 62.3289 38.4039 62.591 40.3866 62.5485C40.8261 62.5168 41.2153 62.253 41.4076 61.8565C41.5999 61.46 41.5661 60.991 41.3188 60.6262C41.0716 60.2614 40.6485 60.0563 40.209 60.088C38.4789 60.1106 36.7555 59.8694 35.0981 59.3726L34.1447 59.1469C32.994 58.8818 32.698 58.418 32.5759 58.0912C32.361 57.5174 31.7573 57.1884 31.1586 57.3187C30.5598 57.449 30.1476 57.9992 30.1906 58.6104C30.2044 58.8316 30.0997 59.0434 29.9156 59.1667C29.6275 59.2033 29.3362 59.1283 29.1016 58.957C28.1042 58.3361 27.3541 57.3871 26.9803 56.2733C26.7681 55.6997 26.1676 55.3683 25.5693 55.4944C24.9709 55.6205 24.5552 56.1661 24.5925 56.7765C24.6133 57.6588 24.2677 58.5102 23.6379 59.1284C22.9531 59.7274 22.1626 60.1933 21.3069 60.5024C21.0069 60.6331 20.7711 60.8777 20.6515 61.1824C20.5319 61.487 20.5383 61.8268 20.6693 62.1267Z" fill="black"/>
<path d="M60.0327 51.7665C65.4819 51.7665 69.8993 47.3491 69.8993 41.8999C69.8993 36.4507 65.4819 32.0332 60.0327 32.0332C54.5835 32.0332 50.166 36.4507 50.166 41.8999C50.1721 47.3465 54.586 51.7604 60.0327 51.7665ZM60.0327 34.4999C64.1196 34.4999 67.4327 37.813 67.4327 41.8999C67.4327 45.9868 64.1196 49.2999 60.0327 49.2999C55.9458 49.2999 52.6327 45.9868 52.6327 41.8999C52.6368 37.8147 55.9475 34.5039 60.0327 34.4999Z" fill="black"/>
</svg>
