<?xml version="1.0" encoding="UTF-8"?>
<svg width="95px" height="95px" viewBox="0 0 95 95" version="1.1" xmlns="http://www.w3.org/2000/svg" xmlns:xlink="http://www.w3.org/1999/xlink">
    <title>Untitled</title>
    <g id="Page-1" stroke="none" stroke-width="1" fill="none" fill-rule="evenodd">
        <g id="advantages_6" fill-rule="nonzero">
            <path d="M88.771688,25.7560266 C98.9884966,44.4149524 96.6317446,67.9596998 81.7306738,83.1065349 C67.8171288,97.2492779 45.7686186,96.4716407 28.1840038,87.3425214 C12.6153241,79.2597468 5.50439558,61.9603093 7.26151873,44.4448615 C9.19395452,25.1816764 18.0437369,5.42221827 36.8343194,1.11388014 C57.4713451,-3.61782877 78.5700045,7.12507289 88.771688,25.7560266 Z" id="Path" fill="#FFA0A9" opacity="0.2"></path>
            <path d="M86.4393712,67.70528 C96.8915839,47.9318136 92.0164898,30.9263589 76.7717098,14.874608 C62.5375646,-0.113081398 43.0213387,-4.54494581 25.0314034,5.12968115 C9.10393724,13.6951844 -1.6009751,30.4202945 0.196639336,48.9820373 C2.17363391,69.395898 14.0814794,89.2537243 33.3050357,93.8195138 C54.4176909,98.8340829 76.0026437,87.4492014 86.4393712,67.70528 Z" id="Path" fill="#FFA0A9"></path>
            <g id="Group" transform="translate(23.000000, 23.000000)">
                <polygon id="Path" fill="#D5F5FB" points="32.9261634 5.78266095 26.3785881 5.78266095 26.3785881 9.71849655 32.9261634 9.71849655"></polygon>
                <path d="M26.20854,5.78266095 L33.0992058,5.78266095 C34.3677606,5.78266095 35.3961247,4.71135667 35.3961247,3.38983247 C35.3961247,2.06830827 34.3677606,0.99700399 33.0992058,0.99700399 L26.20854,0.99700399 C24.9398946,0.99700399 23.9116212,2.06830827 23.9116212,3.38983247 C23.9116212,4.71135667 24.9398946,5.78266095 26.20854,5.78266095 Z" id="Path" fill="#FF7480"></path>
                <path d="M29.66821,48.0035632 C39.8166477,48.0035632 48.04347,39.433129 48.04347,28.8610299 C48.04347,18.2888362 39.8166477,9.71849655 29.66821,9.71849655 C19.519863,9.71849655 11.2929499,18.2888362 11.2929499,28.8610299 C11.2929499,39.433129 19.519863,48.0035632 29.66821,48.0035632 Z" id="Path" fill="#5DDEF5"></path>
                <path d="M29.6681192,43.330491 C37.3390641,43.330491 43.5576137,36.8522811 43.5576137,28.8610299 C43.5576137,20.8697787 37.3390641,14.3915687 29.6681192,14.3915687 C21.9971743,14.3915687 15.7786247,20.8697787 15.7786247,28.8610299 C15.7786247,36.8522811 21.9971743,43.330491 29.6681192,43.330491 Z" id="Path" fill="#FFFFFF"></path>
                <path d="M29.6679377,30.9620454 C30.7817796,30.9620454 31.6848309,30.0213811 31.6848309,28.8609353 C31.6848309,27.7005842 30.7817796,26.7599198 29.6679377,26.7599198 C28.5540959,26.7599198 27.6511354,27.7005842 27.6511354,28.8609353 C27.6511354,30.0213811 28.5540959,30.9620454 29.6679377,30.9620454 Z" id="Path" fill="#FF838E"></path>
                <path d="M48.9055065,26.8578525 C48.4655957,22.2478316 46.4886285,17.9018319 43.3385657,14.6201414 C40.646562,11.8159199 37.3516771,10.0138071 33.8846572,9.21247945 L33.8846572,6.67927448 C35.3007562,6.31231046 36.3532574,4.97698493 36.3532574,3.38983247 C36.3532574,1.52069813 34.8936028,0 33.0992966,0 L26.2086308,0 C24.4143246,0 22.95467,1.52069813 22.95467,3.38983247 C22.95467,4.9768904 24.0071711,6.31221593 25.4231795,6.67927448 L25.4231795,9.21956918 C21.9667762,10.0242999 18.6827802,11.8238604 15.9984894,14.6202359 C15.4110342,15.2322207 14.8693124,15.8741714 14.3735053,16.5413615 C14.349459,16.5394709 14.3254127,16.5375804 14.3009127,16.5375804 L7.48093393,16.5375804 C6.95246021,16.5375804 6.52389197,16.9839493 6.52389197,17.5345843 C6.52389197,18.0852194 6.95246021,18.5315883 7.48093393,18.5315883 L13.071195,18.5315883 C12.3694974,19.7554634 11.8037292,21.0406883 11.3730739,22.3637249 L0.957041958,22.3637249 C0.428568235,22.3637249 0,22.8100938 0,23.3607289 C0,23.911364 0.428568235,24.3577329 0.957041958,24.3577329 L10.8322595,24.3577329 C10.5564078,25.6190417 10.3980653,26.9026596 10.357232,28.189964 L6.12508668,28.189964 C5.59661296,28.189964 5.16804472,28.6363329 5.16804472,29.186968 C5.16804472,29.7376031 5.59661296,30.183972 6.12508668,30.183972 L10.3878116,30.183972 C10.4685708,31.4744905 10.6677466,32.7582029 10.985339,34.0161086 L4.78520979,34.0161086 C4.25673607,34.0161086 3.82816783,34.4624775 3.82816783,35.0132071 C3.82816783,35.5638422 4.25673607,36.0102111 4.78520979,36.0102111 L11.5961145,36.0102111 C12.5350084,38.5974871 14.0022852,41.0225501 15.9984894,43.1021074 C19.1515466,46.386823 23.3277049,48.4468126 27.7574835,48.902729 C28.3896738,48.9677654 29.0224085,49 29.6542359,49 C33.3888501,49 37.0759162,47.8740576 40.2045641,45.7516784 C40.6474694,45.4511687 40.7726915,44.8335121 40.4843176,44.372113 C40.195853,43.9106193 39.6029534,43.7801685 39.1600481,44.0806781 C32.3116675,48.7264313 23.1400532,47.7219594 17.3518867,41.6921035 C10.5604912,34.617128 10.5604912,23.1054044 17.3518867,16.0303344 C24.1431914,8.95545339 35.1935008,8.95545339 41.984987,16.0303344 C47.7654406,22.0522498 48.7350047,31.5987024 44.2901632,38.7295449 C44.0022431,39.1913222 44.1282819,39.8088842 44.5715501,40.1086377 C45.0149998,40.4085802 45.6076272,40.2772785 45.8954566,39.8154068 C48.270231,36.0053901 49.3392469,31.4036878 48.9055065,26.8578525 Z M24.8687539,3.389927 C24.8687539,2.62026677 25.4697294,1.99419704 26.2086308,1.99419704 L33.0992966,1.99419704 C33.8381979,1.99419704 34.4391735,2.62026677 34.4391735,3.389927 C34.4391735,4.15968176 33.8381979,4.78575149 33.0992966,4.78575149 L32.9276152,4.78575149 L26.3802214,4.78575149 L26.2086308,4.78575149 C25.4697294,4.78575149 24.8687539,4.15958723 24.8687539,3.389927 Z M27.3372634,8.87680474 L27.3372634,6.77975947 L31.9705733,6.77975947 L31.9705733,8.87321262 C30.432065,8.68254636 28.8754994,8.68377524 27.3372634,8.87680474 Z" id="Shape" fill="#000000"></path>
                <path d="M42.6622754,41.3996288 C42.4096534,41.3996288 42.1636554,41.5062582 41.9858037,41.6917254 C41.8067723,41.8771925 41.7052335,42.1344076 41.7052335,42.3966328 C41.7052335,42.658858 41.8067723,42.9160731 41.9858037,43.1014457 C42.1636554,43.2879527 42.4097441,43.3936368 42.6622754,43.3936368 C42.9139901,43.3936368 43.1599881,43.2879527 43.3389287,43.1014457 C43.5169619,42.9160731 43.6193174,42.658858 43.6193174,42.3966328 C43.6193174,42.1344076 43.5170526,41.8771925 43.3389287,41.6917254 C43.1599881,41.5062582 42.9138993,41.3996288 42.6622754,41.3996288 Z" id="Path" fill="#000000"></path>
                <path d="M29.6681192,13.3945647 C21.4817672,13.3945647 14.8215828,20.3327559 14.8215828,28.8610299 C14.8215828,37.3893039 21.4817672,44.327495 29.6681192,44.327495 C37.8544712,44.327495 44.5146557,37.3893039 44.5146557,28.8610299 C44.5146557,20.3327559 37.8544712,13.3945647 29.6681192,13.3945647 Z M29.6681192,42.333487 C22.5370814,42.333487 16.7356667,36.2897352 16.7356667,28.8610299 C16.7356667,21.4323245 22.5370814,15.3885727 29.6681192,15.3885727 C36.7991571,15.3885727 42.6005718,21.4323245 42.6005718,28.8610299 C42.6005718,36.2897352 36.7991571,42.333487 29.6681192,42.333487 Z" id="Shape" fill="#000000"></path>
                <path d="M35.7220652,21.1443873 L30.9818628,26.0825205 C30.5854168,25.8783365 30.1395171,25.7629158 29.66821,25.7629158 C29.1967214,25.7629158 28.7510032,25.8783365 28.3545571,26.0825205 L26.23304,23.8724178 C25.8592792,23.4830503 25.2534036,23.4830503 24.879552,23.8724178 C24.5057912,24.2617853 24.5057912,24.8930542 24.879552,25.2824217 L27.0009784,27.4924299 C26.8048878,27.9054299 26.6942749,28.3699485 26.6942749,28.8609353 C26.6942749,30.5691803 28.0283444,31.9590494 29.66821,31.9590494 C31.3080756,31.9590494 32.642145,30.5691803 32.642145,28.8609353 C32.642145,28.3699485 32.5313507,27.9054299 32.3353508,27.4924299 L36.9364477,22.6992106 L37.0755532,22.5543912 C37.4492233,22.1650237 37.4492233,21.5337548 37.0755532,21.1443873 C36.7017923,20.7551142 36.0960076,20.7551142 35.7220652,21.1443873 Z M29.66821,29.9651359 C29.08384,29.9651359 28.6083588,29.4698007 28.6083588,28.8610299 C28.6083588,28.2522591 29.08384,27.7569238 29.66821,27.7569238 C30.25258,27.7569238 30.7280611,28.2522591 30.7280611,28.8610299 C30.7280611,29.4698007 30.25258,29.9651359 29.66821,29.9651359 Z" id="Shape" fill="#000000"></path>
                <path d="M39.9016717,27.8762202 L39.0149538,27.8762202 C38.4864801,27.8762202 38.0579118,28.3225891 38.0579118,28.8732242 C38.0579118,29.4238593 38.4864801,29.8701337 39.0149538,29.8701337 L39.9016717,29.8701337 C40.4301454,29.8701337 40.8587137,29.4238593 40.8587137,28.8732242 C40.8587137,28.3225891 40.4301454,27.8762202 39.9016717,27.8762202 Z" id="Path" fill="#000000"></path>
                <path d="M20.3231902,27.8518316 L19.436563,27.8518316 C18.9080893,27.8518316 18.4795211,28.2982005 18.4795211,28.8488355 C18.4795211,29.3994706 18.9080893,29.8458395 19.436563,29.8458395 L20.3231902,29.8458395 C20.851664,29.8458395 21.2802322,29.3994706 21.2802322,28.8488355 C21.2802322,28.2982005 20.851664,27.8518316 20.3231902,27.8518316 Z" id="Path" fill="#000000"></path>
                <path d="M29.6803692,20.1217657 C30.2088429,20.1217657 30.6374112,19.6753968 30.6374112,19.1247617 L30.6374112,18.2011127 C30.6374112,17.6504777 30.2088429,17.2041088 29.6803692,17.2041088 C29.1518955,17.2041088 28.7233273,17.6504777 28.7233273,18.2011127 L28.7233273,19.1247617 C28.7233273,19.6753968 29.1518955,20.1217657 29.6803692,20.1217657 Z" id="Path" fill="#000000"></path>
                <path d="M29.6573211,37.600294 C29.1288474,37.600294 28.7002791,38.0466629 28.7002791,38.597298 L28.7002791,39.520947 C28.7002791,40.0715821 29.1288474,40.517951 29.6573211,40.517951 C30.1857948,40.517951 30.614363,40.0715821 30.614363,39.520947 L30.614363,38.597298 C30.614363,38.0466629 30.1857948,37.600294 29.6573211,37.600294 Z" id="Path" fill="#000000"></path>
                <path d="M0.957041958,34.0157305 C0.70532731,34.0157305 0.458421918,34.1224545 0.280388703,34.3079216 C0.102446228,34.4932942 0,34.7505093 0,35.0127345 C0,35.2759995 0.102264747,35.5321748 0.280388703,35.7176419 C0.458512659,35.9031091 0.70532731,36.0097385 0.957041958,36.0097385 C1.20875661,36.0097385 1.455662,35.9031091 1.63351373,35.7176419 C1.81154695,35.5321748 1.91408392,35.2749597 1.91408392,35.0127345 C1.91408392,34.7505093 1.81163769,34.4932942 1.63351373,34.3079216 C1.455662,34.1224545 1.20875661,34.0157305 0.957041958,34.0157305 Z" id="Path" fill="#000000"></path>
            </g>
        </g>
    </g>
</svg>