<svg width="92" height="95" viewBox="0 0 92 95" fill="none" xmlns="http://www.w3.org/2000/svg">
<path opacity="0.2" d="M6.51152 26.03C-4.16982 44.8874 -1.70598 68.6826 13.8726 83.9906C28.4186 98.2839 51.4692 97.498 69.8531 88.2716C86.1295 80.1029 93.5636 62.6194 91.7266 44.9177C89.7063 25.4495 80.4543 5.4799 60.8096 1.12573C39.2345 -3.65631 17.1769 7.20087 6.51152 26.03Z" fill="#9B99F2"/>
<path d="M5.37315 69.5294C-4.72768 51.2676 -0.0162506 35.5621 14.7157 20.7375C28.4711 6.89548 47.3308 2.80241 64.7156 11.7375C80.1074 19.6482 90.2371 31.8571 88.5 48.9999C86.5895 67.8533 77.577 88.2833 59 92.5C38.5975 97.131 15.4589 87.764 5.37315 69.5294Z" fill="#9B99F2"/>
<path d="M52.8912 11.1877H66.966L52.8912 30.3395H38.8165L52.8912 11.1877Z" fill="#C32430"/>
<path d="M38.8169 11.1877H24.7421L38.8169 30.3395H52.8916L38.8169 11.1877Z" fill="#DA4A54"/>
<path d="M45.854 76.8121C57.9289 76.8121 67.7175 67.0234 67.7175 54.9485C67.7175 42.8736 57.9289 33.085 45.854 33.085C33.7791 33.085 23.9904 42.8736 23.9904 54.9485C23.9904 67.0234 33.7791 76.8121 45.854 76.8121Z" fill="#F4DD45"/>
<path d="M45.8542 71.004C54.7214 71.004 61.9097 63.8158 61.9097 54.9486C61.9097 46.0814 54.7214 38.8931 45.8542 38.8931C36.987 38.8931 29.7987 46.0814 29.7987 54.9486C29.7987 63.8158 36.987 71.004 45.8542 71.004Z" fill="#EAB14D"/>
<path d="M70.0601 50.5055L74.8891 49.4477C76.3838 49.1202 76.3838 46.9888 74.8891 46.6615L70.0601 45.6037C69.5161 45.4846 69.0913 45.0597 68.9721 44.5157L67.9143 39.6867C67.5868 38.192 65.4554 38.192 65.1281 39.6867L64.0703 44.5157C63.9512 45.0597 63.5263 45.4845 62.9823 45.6037L58.1533 46.6615C56.6586 46.9888 56.6586 49.1203 58.1533 49.4477L62.9823 50.5055C63.5263 50.6246 63.9511 51.0495 64.0703 51.5935L65.1281 56.4225C65.4556 57.9172 67.587 57.9172 67.9143 56.4225L68.9721 51.5935C69.0912 51.0495 69.5161 50.6246 70.0601 50.5055Z" fill="#FBF4AF"/>
<path d="M75.1017 45.6945L70.2733 44.6372C70.1068 44.6004 69.9756 44.4692 69.9391 44.3043L68.8815 39.4741C68.6326 38.338 67.684 37.5747 66.5211 37.5747C65.3581 37.5747 64.4095 38.338 64.1606 39.4742L63.8556 40.8673C62.2558 38.8173 60.3459 37.0824 58.2131 35.7101V30.743C58.2131 29.2901 57.5189 27.9967 56.4454 27.1753L67.7636 11.7742C67.9847 11.4734 68.0178 11.0737 67.8492 10.7406C67.6806 10.4075 67.339 10.1975 66.9657 10.1975H52.8915C52.5765 10.1975 52.2802 10.3475 52.0936 10.6014L45.8537 19.0914L39.6143 10.6014C39.4276 10.3475 39.1313 10.1975 38.8162 10.1975H24.742C24.3686 10.1975 24.027 10.4075 23.8584 10.7406C23.6898 11.0736 23.7229 11.4733 23.944 11.7742L27.8695 17.1166C28.1934 17.5573 28.8132 17.652 29.254 17.3282C29.6947 17.0043 29.7895 16.3845 29.4656 15.9438L26.6986 12.1781H38.315L50.9337 29.3487H39.3173L32.0469 19.4561C31.723 19.0153 31.1031 18.9206 30.6625 19.2445C30.2217 19.5684 30.127 20.1882 30.4509 20.629L35.2638 27.1777C34.1743 28.0146 33.495 29.3314 33.495 30.743V35.7333C27.1857 39.8053 23 46.8972 23 54.9487C23 67.5503 33.2522 77.8023 45.8536 77.8023C51.5762 77.8023 57.0518 75.6771 61.2717 71.8183C65.3984 68.0447 67.9844 62.9339 68.5756 57.4025C68.7153 57.173 68.8198 56.9152 68.8814 56.6342L69.9388 51.8071C69.9756 51.6402 70.106 51.5091 70.272 51.4729L70.9996 51.3131C71.5338 51.1957 71.8717 50.6676 71.7544 50.1335C71.6372 49.5992 71.1092 49.2616 70.5748 49.3786L69.8483 49.5381C68.9311 49.7384 68.2074 50.4615 68.0044 51.3817L66.9467 56.2104C66.8813 56.5085 66.652 56.553 66.521 56.553C66.39 56.553 66.1607 56.5085 66.0953 56.2105L65.0378 51.3823C64.837 50.4629 64.1131 49.7391 63.1942 49.5384L58.3655 48.4807C58.0674 48.4154 58.0229 48.186 58.0229 48.055C58.0229 47.924 58.0674 47.6947 58.3655 47.6293L63.1958 46.5713C64.1144 46.3685 64.8375 45.6448 65.0377 44.7281L66.0953 39.8982C66.1607 39.6001 66.39 39.5556 66.521 39.5556C66.6519 39.5556 66.8813 39.6001 66.9467 39.8982L68.0047 44.73C68.2072 45.6463 68.93 46.3691 69.8479 46.5718L74.6776 47.6295C74.9509 47.6894 75.0147 47.8843 75.0199 48.0371C75.0235 48.1395 75.0016 48.3868 74.7221 48.4688C74.1972 48.6228 73.8965 49.173 74.0504 49.6979C74.2042 50.2227 74.7545 50.5231 75.2794 50.3696C76.3471 50.0565 77.0383 49.0917 76.9994 47.9685C76.9605 46.8488 76.198 45.9351 75.1017 45.6945ZM53.3926 12.1781H65.009L54.602 26.3394C54.3174 26.2826 54.0235 26.2523 53.7224 26.2523H51.1162L47.0826 20.7637L53.3926 12.1781ZM52.891 28.6674L52.5717 28.2329H53.2102L52.891 28.6674ZM35.4756 30.743C35.4756 29.966 35.8431 29.2399 36.4353 28.7715L38.0182 30.9254C38.2048 31.1793 38.501 31.3293 38.8161 31.3293H52.8903C53.2087 31.3293 53.5029 31.1757 53.6876 30.9242L53.6893 30.9254L55.2717 28.7721C55.8556 29.2321 56.2323 29.9437 56.2323 30.7429V34.5714C53.076 32.9648 49.5366 32.095 45.8535 32.095C42.1192 32.095 38.5914 32.9955 35.4755 34.5903V30.743H35.4756ZM60.3815 50.9496C60.7379 52.2457 60.9185 53.5883 60.9185 54.9487C60.9185 63.2553 54.1605 70.0133 45.854 70.0133C37.5467 70.0133 30.7882 63.2553 30.7882 54.9487C30.7882 46.6414 37.5467 39.8829 45.854 39.8829C50.5725 39.8829 54.9326 42.0476 57.7769 45.7378C56.7328 46.039 56.0423 46.9495 56.0423 48.0549C56.0423 49.2178 56.8056 50.1664 57.9417 50.4153L60.3815 50.9496ZM63.1029 44.3049C63.0668 44.47 62.9357 44.6004 62.7704 44.6369L59.8841 45.2691C56.6948 40.6437 51.502 37.9023 45.8541 37.9023C36.4547 37.9023 28.8077 45.5493 28.8077 54.9487C28.8077 64.3474 36.4547 71.9939 45.8541 71.9939C55.2528 71.9939 62.8993 64.3474 62.8993 54.9487C62.8993 53.7558 62.7734 52.5749 62.5299 51.4202L62.7711 51.473C62.9365 51.5092 63.0668 51.6394 63.1031 51.8054L64.1608 56.6342C64.4023 57.7369 65.3037 58.4861 66.4197 58.5294C65.6355 63.0628 63.3695 67.2162 59.9353 70.3566C56.0812 73.8809 51.0803 75.8217 45.8536 75.8217C34.3441 75.8217 24.9806 66.4581 24.9806 54.9487C24.9806 43.4394 34.3443 34.0757 45.8536 34.0757C52.9191 34.0757 59.4044 37.5806 63.2857 43.4697L63.1029 44.3049Z" fill="black"/>
</svg>
