<svg width="92" height="95" viewBox="0 0 92 95" fill="none" xmlns="http://www.w3.org/2000/svg">
<path opacity="0.2" d="M6.51152 26.03C-4.16982 44.8874 -1.70598 68.6826 13.8726 83.9906C28.4186 98.2839 51.4692 97.498 69.8531 88.2716C86.1295 80.1029 93.5636 62.6194 91.7266 44.9177C89.7063 25.4495 80.4543 5.4799 60.8096 1.12573C39.2345 -3.65631 17.1769 7.20087 6.51152 26.03Z" fill="#F97D7D"/>
<path d="M5.37315 69.5294C-4.72768 51.2676 -0.0162506 35.5621 14.7157 20.7375C28.4711 6.89548 47.3308 2.80241 64.7156 11.7375C80.1074 19.6482 90.2371 31.8571 88.5 48.9999C86.5895 67.8533 77.577 88.2833 59 92.5C38.5975 97.131 15.4589 87.764 5.37315 69.5294Z" fill="#F97D7D"/>
<g clip-path="url(#clip0_334_15218)">
<path fill-rule="evenodd" clip-rule="evenodd" d="M30.3603 33.1313H37.9831C39.5561 29.3632 39.6548 26.5491 39.6578 22.0124C34.3886 23.059 30.3455 27.6286 30.1152 33.1432C30.1958 33.1343 30.2766 33.1313 30.3603 33.1313Z" fill="#FFDA8F"/>
<path fill-rule="evenodd" clip-rule="evenodd" d="M44.4961 22.0663C44.5021 26.57 44.6038 29.3752 46.1737 33.1313H53.5512C53.632 33.1313 53.7127 33.1343 53.7935 33.1432C53.5691 27.7153 49.6456 23.2026 44.4961 22.0663Z" fill="#FFDA8F"/>
<path fill-rule="evenodd" clip-rule="evenodd" d="M30.3595 37.961H53.5506C53.6612 37.961 53.7719 37.952 53.8796 37.937C55.0549 37.7756 55.964 36.7618 55.964 35.5446C55.964 34.2975 55.0101 33.2657 53.793 33.1431C53.7122 33.1341 53.6315 33.1312 53.5507 33.1312H46.1732H37.9824H30.3596C30.2759 33.1312 30.1951 33.1342 30.1144 33.1431C28.9002 33.2657 27.9434 34.2974 27.9434 35.5446C27.9434 36.7617 28.8554 37.7756 30.0307 37.937C30.1382 37.952 30.2458 37.961 30.3595 37.961Z" fill="#FFDA8F"/>
<path fill-rule="evenodd" clip-rule="evenodd" d="M37.9824 33.1313H46.1733C44.6033 29.3751 44.5016 26.57 44.4957 22.0663C44.4957 21.9018 44.4957 21.7373 44.4957 21.5698C44.4957 21.2827 44.2594 21.0465 43.9723 21.0465H40.1804C39.8933 21.0465 39.657 21.2828 39.657 21.5698V22.0125C39.6541 26.5491 39.5554 29.3632 37.9824 33.1313Z" fill="#FFE6B4"/>
<path fill-rule="evenodd" clip-rule="evenodd" d="M41.9543 52.51C42.8994 52.507 43.8474 52.3067 44.9269 51.9059C46.1739 51.4454 47.3641 50.7516 48.4467 49.9052C51.6345 47.4112 53.8804 43.5803 53.8804 40.3654V37.937C53.7727 37.952 53.6621 37.961 53.5514 37.961H30.3603C30.2466 37.961 30.1389 37.952 30.0312 37.937V40.3654C30.0312 43.5803 32.2771 47.4112 35.465 49.9052C36.5416 50.7486 37.7258 51.4394 38.9668 51.9029C40.0525 52.3067 41.0035 52.51 41.9543 52.51Z" fill="#F5C6AF"/>
<path fill-rule="evenodd" clip-rule="evenodd" d="M23.7385 70.3727H41.9535H59.6721C58.479 68.9911 57.4472 67.4001 56.9807 66.5328C55.3209 63.4435 54.8006 60.9404 54.8813 57.4894C56.218 57.3727 57.6176 56.9093 58.9633 56.2155C57.0494 53.8798 54.4716 51.8732 51.0057 50.6351C52.0464 54.7232 49.9979 57.2473 48.5834 58.9548L41.9535 52.5101L35.3266 58.9548C33.9091 57.2473 31.8637 54.7232 32.9014 50.6351C24.9437 53.476 21.6572 60.3753 20.4101 66.0034C19.6804 69.305 20.5117 70.3727 23.7385 70.3727Z" fill="#ECF2F3"/>
<path fill-rule="evenodd" clip-rule="evenodd" d="M32.9022 50.635C31.8645 54.7231 33.91 57.2471 35.3274 58.9547L41.9542 52.51C41.0032 52.51 40.0523 52.3067 38.9668 51.903C37.7257 51.4394 36.5414 50.7487 35.465 49.9053C34.5618 50.1027 33.7096 50.3479 32.9022 50.635Z" fill="#B5CDCD"/>
<path fill-rule="evenodd" clip-rule="evenodd" d="M41.9531 52.51L48.583 58.9547C49.9975 57.2471 52.046 54.7231 51.0053 50.635C50.2009 50.3479 49.3486 50.1027 48.4455 49.9053C47.363 50.7517 46.1728 51.4455 44.9257 51.906C43.8461 52.3067 42.8982 52.5071 41.9531 52.51Z" fill="#B5CDCD"/>
<path fill-rule="evenodd" clip-rule="evenodd" d="M54.883 57.4894C54.8022 60.9405 55.3226 63.4436 56.9823 66.5328C57.4488 67.4001 58.4805 68.9911 59.6738 70.3727C60.8819 71.7693 62.2485 72.9535 63.355 72.9535C65.5531 72.9535 68.7888 68.2822 69.7277 66.5328C71.3845 63.4435 71.9048 60.9404 71.8271 57.4894C68.8845 57.2322 65.6339 55.3033 63.355 52.9079C62.111 54.2148 60.5769 55.3841 58.965 56.2154C57.6192 56.9091 56.2197 57.3727 54.883 57.4894Z" fill="#E0EF9B"/>
<path d="M61.7621 63.0517C61.3027 62.7005 60.6461 62.7886 60.2952 63.2477C59.9442 63.7069 60.032 64.3636 60.4912 64.7146L62.2794 66.0813C62.4685 66.2258 62.692 66.2964 62.9144 66.2964C63.2006 66.2964 63.4848 66.1794 63.6904 65.9524L67.1085 62.1783C67.4964 61.7499 67.4638 61.0882 67.0354 60.7002C66.6071 60.3123 65.9452 60.3451 65.5573 60.7734L62.7855 63.834L61.7621 63.0517Z" fill="black"/>
<path d="M72.8718 57.4658C72.8599 56.9322 72.4483 56.4934 71.9169 56.4469C69.4275 56.2294 66.3642 54.5571 64.1123 52.1871C63.9148 51.9793 63.6407 51.8615 63.354 51.8614C63.3539 51.8614 63.3538 51.8614 63.3537 51.8614C63.0671 51.8614 62.7931 51.9789 62.5955 52.1866C61.5848 53.249 60.4115 54.1706 59.2008 54.8844C57.0763 52.5127 54.4615 50.7654 51.3968 49.6655C51.3701 49.6547 51.3431 49.6451 51.3154 49.6365C51.0768 49.5519 50.8352 49.4713 50.5911 49.3944C53.1829 46.8095 54.9263 43.4126 54.9263 40.3653V38.7212C56.1515 38.1877 57.0107 36.9649 57.0107 35.5445C57.0107 34.0692 56.0821 32.8073 54.7789 32.3107C54.2411 27.0889 50.5621 22.6993 45.5086 21.2471C45.3592 20.5358 44.7273 19.9999 43.9724 19.9999H40.1804C39.4523 19.9999 38.8403 20.4989 38.6636 21.1725C36.1778 21.8354 33.9072 23.2504 32.2049 25.2177C30.477 27.2145 29.4025 29.7081 29.1296 32.3113C27.8259 32.8081 26.897 34.0697 26.897 35.5446C26.897 36.9655 27.7574 38.1887 28.9843 38.7218V40.3654C28.9843 43.4099 30.728 46.8081 33.3197 49.3948C33.0827 49.4693 32.8479 49.5472 32.6159 49.6291C32.5703 49.642 32.5259 49.658 32.4827 49.677C29.0525 50.9144 26.1887 52.9627 23.946 55.7913C21.7891 58.5118 20.2557 61.8714 19.3887 65.7776C19.0801 67.1735 18.848 68.9278 19.7998 70.1129C20.7296 71.2706 22.3932 71.419 23.7388 71.419H30.5841C31.162 71.419 31.6305 70.9504 31.6305 70.3726C31.6305 69.7947 31.162 69.3261 30.5841 69.3261H23.7388C22.487 69.3261 21.7107 69.1499 21.4316 68.8024C21.136 68.4343 21.1362 67.5685 21.4319 66.2301C22.5195 61.3316 25.1787 55.3371 31.5857 52.3104C31.3887 55.8456 33.3042 58.1564 34.5217 59.6229C34.7081 59.8475 34.9797 59.984 35.2712 59.9996C35.5624 60.0157 35.8472 59.9083 36.0564 59.7049L41.9539 53.9696L47.8543 59.7051C48.05 59.8953 48.3119 60.0011 48.5836 60.0011C48.6024 60.0011 48.6211 60.0006 48.64 59.9996C48.9315 59.9839 49.2032 59.8471 49.3895 59.6222C50.6053 58.1544 52.518 55.8423 52.3228 52.3145C54.1815 53.1963 55.8238 54.3755 57.2361 55.8445C56.3928 56.1709 55.5636 56.3794 54.7904 56.447C54.2592 56.4934 53.8478 56.9319 53.8354 57.4651C53.7478 61.2064 54.3714 63.8869 56.0584 67.0242C56.0727 67.0508 56.6428 68.0727 57.5311 69.3263H40.0578C39.4798 69.3263 39.0113 69.7949 39.0113 70.3728C39.0113 70.9506 39.4798 71.4192 40.0578 71.4192H59.193C60.4546 72.8135 61.9425 74.0001 63.3536 74.0001C66.7578 74.0001 70.6112 67.094 70.6483 67.0249C72.3326 63.8871 72.956 61.207 72.8718 57.4658ZM52.643 32.0848H46.8815C45.793 29.2413 45.587 26.8966 45.5501 23.4545C49.3245 24.7895 52.0684 28.1199 52.643 32.0848ZM40.7031 22.0928H43.4496C43.4562 26.1434 43.5588 28.8867 44.6554 32.0848H39.4994C40.5941 28.8866 40.6966 26.1429 40.7031 22.0928ZM38.6037 23.372C38.5691 26.8593 38.369 29.2185 37.2738 32.0849H31.2671C31.864 28.0684 34.7513 24.6477 38.6037 23.372ZM30.3597 34.1777H37.3602C37.4218 34.2277 37.4815 34.2341 37.5315 34.1777H53.5508C54.3046 34.1777 54.9178 34.7908 54.9178 35.5446C54.9178 36.3001 54.3047 36.9146 53.5508 36.9146H30.3597C29.6044 36.9146 28.9898 36.3001 28.9898 35.5446C28.9898 34.7909 29.6043 34.1777 30.3597 34.1777ZM31.0772 40.3654V39.0074H52.8333V40.3654C52.8333 44.355 48.9682 49.2893 44.5619 50.925C42.6338 51.6415 41.2649 51.6408 39.3324 50.9227C34.9347 49.2803 31.0772 44.3469 31.0772 40.3654ZM35.4201 57.4043C34.337 55.9903 33.2941 54.134 33.7954 51.4393C34.257 51.2903 34.7339 51.1543 35.2285 51.0341C36.2837 51.8083 37.4218 52.4432 38.6017 52.8839C38.9814 53.025 39.3468 53.1412 39.7043 53.2379L35.4201 57.4043ZM48.4894 57.4037L44.2026 53.2366C44.5555 53.1409 44.9161 53.0261 45.2905 52.8869C46.4762 52.4468 47.6199 51.8106 48.68 51.0339C49.1685 51.1528 49.6462 51.2875 50.1123 51.4383C50.6147 54.1293 49.5722 55.9875 48.4894 57.4037ZM68.8039 66.0356C67.5664 68.3452 64.6683 71.9071 63.3536 71.9071C62.0388 71.9071 59.1407 68.3452 57.9025 66.0341C56.5196 63.4628 55.9521 61.3186 55.9213 58.399C57.0502 58.1842 58.2255 57.7629 59.3812 57.1746C59.4218 57.1569 59.4613 57.1361 59.5002 57.1129C60.8496 56.4114 62.1694 55.4831 63.3531 54.3799C65.5818 56.4591 68.2951 57.9255 70.7849 58.3991C70.752 61.3191 70.1846 63.4638 68.8039 66.0356Z" fill="black"/>
<path d="M35.3199 69.3261C34.7419 69.3261 34.2734 69.7947 34.2734 70.3726C34.2734 70.9504 34.7419 71.419 35.3199 71.419H35.3258C35.9038 71.419 36.3692 70.9504 36.3692 70.3726C36.3692 69.7947 35.8978 69.3261 35.3199 69.3261Z" fill="black"/>
</g>
<defs>
<clipPath id="clip0_334_15218">
<rect width="54" height="54" fill="white" transform="translate(19 20)"/>
</clipPath>
</defs>
</svg>
