<svg width="226" height="44" viewBox="0 0 226 44" fill="none" xmlns="http://www.w3.org/2000/svg">
<path opacity="0.5" d="M225.53 38.5303C225.823 38.2374 225.823 37.7626 225.53 37.4697L220.757 32.6967C220.464 32.4038 219.99 32.4038 219.697 32.6967C219.404 32.9896 219.404 33.4645 219.697 33.7574L223.939 38L219.697 42.2426C219.404 42.5355 219.404 43.0104 219.697 43.3033C219.99 43.5962 220.464 43.5962 220.757 43.3033L225.53 38.5303ZM0 1.75H51.2945V0.25H0V1.75ZM88.413 10.2551L129.434 30.0953L130.087 28.7449L89.0661 8.90473L88.413 10.2551ZM167.205 38.75H225V37.25H167.205V38.75ZM129.434 30.0953C141.211 35.7913 154.123 38.75 167.205 38.75V37.25C154.35 37.25 141.66 34.3425 130.087 28.7449L129.434 30.0953ZM51.2945 1.75C64.1504 1.75 76.8397 4.65756 88.413 10.2551L89.0661 8.90473C77.2892 3.20872 64.3766 0.25 51.2945 0.25V1.75Z" fill="#2D4246"/>
</svg>
