<svg width="226" height="44" viewBox="0 0 226 44" fill="none" xmlns="http://www.w3.org/2000/svg">
<path opacity="0.5" d="M225.53 5.46967C225.823 5.76256 225.823 6.23744 225.53 6.53033L220.757 11.3033C220.464 11.5962 219.99 11.5962 219.697 11.3033C219.404 11.0104 219.404 10.5355 219.697 10.2426L223.939 6L219.697 1.75736C219.404 1.46447 219.404 0.989594 219.697 0.696697C219.99 0.403805 220.464 0.403805 220.757 0.696697L225.53 5.46967ZM0 42.25H51.2945V43.75H0V42.25ZM88.413 33.7449L129.434 13.9047L130.087 15.2551L89.0661 35.0953L88.413 33.7449ZM167.205 5.25H225V6.75H167.205V5.25ZM129.434 13.9047C141.211 8.20871 154.123 5.25 167.205 5.25V6.75C154.35 6.75 141.66 9.65755 130.087 15.2551L129.434 13.9047ZM51.2945 42.25C64.1504 42.25 76.8397 39.3424 88.413 33.7449L89.0661 35.0953C77.2892 40.7913 64.3766 43.75 51.2945 43.75V42.25Z" fill="#2D4246"/>
</svg>
