<svg width="295" height="241" viewBox="0 0 295 241" fill="none" xmlns="http://www.w3.org/2000/svg">
<path opacity="0.2" d="M415.453 356.537C445.68 316.22 457.802 276.542 454.92 236.873C452.036 197.18 434.119 157.376 404.042 116.848C347.978 41.303 261.103 9.06328 172.422 40.0902C93.8047 67.5961 34.2045 134.545 30.8495 217.644C27.1485 309.313 69.5238 404.759 154.867 437.396C248.73 473.292 355.088 437.053 415.453 356.537Z" stroke="white" stroke-width="2"/>
<path d="M416.697 288.844C458.62 212.664 439.065 147.148 377.921 85.3066C320.83 27.5643 242.553 10.49 170.398 47.7628C106.515 80.7626 63.5787 145.198 70.7887 216.71C78.7182 295.357 126.479 371.862 203.582 389.452C288.262 408.771 374.836 364.91 416.697 288.844Z" fill="#1A8FA5"/>
</svg>
