<svg width="168" height="86" viewBox="0 0 168 86" fill="none" xmlns="http://www.w3.org/2000/svg">
<g clip-path="url(#clip0_446_10922)">
<path d="M3.73272 65.396H16.7973V79.216H18.6637V85.8791H14.4332L14.1844 82.6709H4.47927L4.23043 85.8791H0V79.216H1.61752C2.09862 78.673 2.45531 78.0643 2.68756 77.3897C2.93642 76.6987 3.07742 76.0735 3.11061 75.5142L3.73272 65.396ZM12.318 79.216V68.8509H7.7143L7.34103 75.0205C7.29127 76.0242 7.04241 77.036 6.59448 78.0561C6.412 78.4838 6.20462 78.8705 5.97237 79.216H12.318Z" fill="white"/>
<path d="M57.9893 82.6714H53.51V75.6381H47.2888V82.6714H42.8096V65.3965H47.2888V72.183H53.51V65.3965H57.9893V82.6714Z" fill="white"/>
<path d="M62.4775 75.7611V72.3062H72.6804V75.7611H62.4775Z" fill="white"/>
<path d="M90.5925 82.4247C86.8929 82.7537 83.8238 82.9182 81.3851 82.9182C79.7593 82.9182 78.5648 82.5398 77.8016 81.7829C77.0385 81.0262 76.657 79.8416 76.657 78.2293V70.3322C76.657 68.6047 77.0469 67.3543 77.8265 66.581C78.6228 65.7913 79.892 65.3965 81.634 65.3965H90.5925V68.8514H82.6293C81.634 68.8514 81.1362 69.345 81.1362 70.3322V78.2293C81.1362 78.6077 81.2441 78.9121 81.4597 79.1424C81.692 79.3563 81.9823 79.4632 82.3307 79.4632C82.6791 79.4632 83.0606 79.4632 83.4755 79.4632C83.8902 79.4467 84.3215 79.4303 84.7694 79.4139C85.2174 79.3974 85.6653 79.3809 86.1132 79.3645C86.5777 79.3481 87.1666 79.3151 87.8801 79.2658C88.61 79.2165 89.5142 79.1588 90.5925 79.093V82.4247Z" fill="white"/>
<path d="M103.284 82.6714H98.8052V68.8514H93.5793V65.3965H108.51V68.8514H103.284V82.6714Z" fill="white"/>
<path d="M112.496 65.3965H122.948C124.69 65.3965 125.951 65.7913 126.73 66.581C127.526 67.3543 127.924 68.6047 127.924 70.3322V72.8C127.924 74.5275 127.526 75.7861 126.73 76.5758C125.951 77.349 124.69 77.7357 122.948 77.7357H116.975V82.6714H112.496V65.3965ZM123.445 70.3322C123.445 69.345 122.948 68.8514 121.952 68.8514H116.975V74.2808H121.952C122.948 74.2808 123.445 73.7871 123.445 72.8V70.3322Z" fill="white"/>
<path d="M143.601 70.0851C143.601 69.098 143.104 68.6045 142.108 68.6045H137.878C136.882 68.6045 136.385 69.098 136.385 70.0851V77.9823C136.385 78.9694 136.882 79.4629 137.878 79.4629H142.108C143.104 79.4629 143.601 78.9694 143.601 77.9823V70.0851ZM148.081 77.9823C148.081 79.7098 147.683 80.9684 146.886 81.7581C146.107 82.5313 144.846 82.918 143.104 82.918H136.882C135.141 82.918 133.872 82.5313 133.076 81.7581C132.296 80.9684 131.906 79.7098 131.906 77.9823V70.0851C131.906 68.3576 132.296 67.1072 133.076 66.334C133.872 65.5443 135.141 65.1494 136.882 65.1494H143.104C144.846 65.1494 146.107 65.5443 146.886 66.334C147.683 67.1072 148.081 68.3576 148.081 70.0851V77.9823Z" fill="white"/>
<path d="M163.521 82.6713V72.0595L157.548 82.6713H152.82V65.3964H157.299V76.0081L163.271 65.3964H168V82.6713H163.521ZM159.041 64.1625C156.885 64.1625 155.806 63.093 155.806 60.9542V60.2139H159.041V60.8308C159.041 61.0776 159.124 61.2832 159.289 61.4478C159.456 61.6123 159.663 61.6946 159.912 61.6946H160.658C160.908 61.6946 161.115 61.6123 161.281 61.4478C161.446 61.2832 161.529 61.0776 161.529 60.8308V60.2139H164.765V60.9542C164.765 63.093 163.686 64.1625 161.529 64.1625H159.041Z" fill="white"/>
<path d="M26.0118 82.6714H21.1593L27.7537 65.3965H32.7308L39.3252 82.6714H34.4727L33.3528 79.5866H27.1317L26.0118 82.6714ZM28.2515 76.3784H32.2331L30.2423 70.579L28.2515 76.3784Z" fill="white"/>
<path fill-rule="evenodd" clip-rule="evenodd" d="M81.7793 0.189495C81.8498 0.119462 81.9703 0.169158 81.9703 0.268295V54.7281C81.9703 54.7896 81.9203 54.8395 81.8583 54.8395H26.9675C26.8677 54.8395 26.8177 54.7194 26.8884 54.6493L81.7793 0.189495ZM45.5417 47.0949H74.1646V18.6968L45.5417 47.0949Z" fill="white"/>
<path fill-rule="evenodd" clip-rule="evenodd" d="M128.252 47.095V41.9289C128.252 41.8298 128.372 41.7801 128.443 41.8499L141.398 54.6492C141.468 54.7192 141.419 54.8395 141.318 54.8395H86.4157C86.3538 54.8395 86.3037 54.7896 86.3037 54.7281V0.269761C86.3037 0.170637 86.4242 0.120934 86.4948 0.190941L114.775 28.2362C114.846 28.3063 114.797 28.4263 114.696 28.4263H103.962C103.933 28.4263 103.904 28.4146 103.883 28.3938L94.1094 18.6969V47.095H128.252Z" fill="white"/>
</g>
<defs>
<clipPath id="clip0_446_10922">
<rect width="168" height="86" fill="white"/>
</clipPath>
</defs>
</svg>
