<svg width="130" height="67" viewBox="0 0 130 67" fill="none" xmlns="http://www.w3.org/2000/svg">
<g clip-path="url(#clip0_442_7544)">
<path d="M2.88842 50.9828H12.9979V61.7569H14.4421V66.9515H11.1686L10.976 64.4504H3.4661L3.27355 66.9515H0V61.7569H1.25165C1.62393 61.3336 1.89994 60.8591 2.07966 60.3332C2.27223 59.7944 2.38134 59.3071 2.40702 58.871L2.88842 50.9828ZM9.53177 61.7569V53.6763H5.9694L5.68056 58.4862C5.64205 59.2686 5.44949 60.0574 5.10287 60.8527C4.96167 61.1861 4.8012 61.4876 4.62147 61.7569H9.53177Z" fill="#0F697C"/>
<path d="M44.8723 64.4505H41.4063V58.9673H36.5922V64.4505H33.1261V50.983H36.5922V56.2737H41.4063V50.983H44.8723V64.4505Z" fill="#E46B17"/>
<path d="M48.3457 59.0633V56.3698H56.2408V59.0633H48.3457Z" fill="#E46B17"/>
<path d="M70.1013 64.2582C67.2386 64.5147 64.8636 64.6429 62.9766 64.6429C61.7185 64.6429 60.7942 64.3479 60.2037 63.7579C59.6131 63.1679 59.3179 62.2444 59.3179 60.9874V54.8308C59.3179 53.4841 59.6196 52.5093 60.2229 51.9064C60.8391 51.2908 61.8212 50.983 63.1691 50.983H70.1013V53.6764H63.9393C63.1691 53.6764 62.784 54.0612 62.784 54.8308V60.9874C62.784 61.2824 62.8675 61.5197 63.0343 61.6993C63.214 61.8661 63.4387 61.9494 63.7083 61.9494C63.9779 61.9494 64.2731 61.9494 64.5941 61.9494C64.915 61.9365 65.2488 61.9238 65.5954 61.9109C65.942 61.8981 66.2886 61.8852 66.6352 61.8725C66.9947 61.8596 67.4504 61.8339 68.0025 61.7955C68.5673 61.757 69.2669 61.7121 70.1013 61.6608V64.2582Z" fill="#E46B17"/>
<path d="M79.9225 64.4505H76.4564V53.6764H72.4126V50.983H83.9663V53.6764H79.9225V64.4505Z" fill="#E46B17"/>
<path d="M87.0502 50.9829H95.1379C96.4856 50.9829 97.4614 51.2907 98.0646 51.9063C98.6808 52.5092 98.9885 53.484 98.9885 54.8308V56.7547C98.9885 58.1014 98.6808 59.0827 98.0646 59.6983C97.4614 60.3011 96.4856 60.6026 95.1379 60.6026H90.516V64.4504H87.0502V50.9829ZM95.5227 54.8308C95.5227 54.0612 95.1379 53.6764 94.3674 53.6764H90.516V57.9091H94.3674C95.1379 57.9091 95.5227 57.5243 95.5227 56.7547V54.8308Z" fill="#E46B17"/>
<path d="M111.12 54.6383C111.12 53.8688 110.735 53.484 109.965 53.484H106.691C105.921 53.484 105.536 53.8688 105.536 54.6383V60.795C105.536 61.5645 105.921 61.9493 106.691 61.9493H109.965C110.735 61.9493 111.12 61.5645 111.12 60.795V54.6383ZM114.587 60.795C114.587 62.1417 114.278 63.123 113.662 63.7386C113.059 64.3414 112.083 64.6429 110.735 64.6429H105.921C104.573 64.6429 103.591 64.3414 102.975 63.7386C102.372 63.123 102.07 62.1417 102.07 60.795V54.6383C102.07 53.2916 102.372 52.3168 102.975 51.714C103.591 51.0983 104.573 50.7905 105.921 50.7905H110.735C112.083 50.7905 113.059 51.0983 113.662 51.714C114.278 52.3168 114.587 53.2916 114.587 54.6383V60.795Z" fill="#E46B17"/>
<path d="M126.534 64.4505V56.1776L121.912 64.4505H118.254V50.983H121.72V59.2559L126.341 50.983H130V64.4505H126.534ZM123.067 50.021C121.399 50.021 120.564 49.1873 120.564 47.5199V46.9427H123.067V47.4236C123.067 47.6161 123.131 47.7764 123.26 47.9047C123.389 48.0329 123.549 48.0971 123.741 48.0971H124.319C124.512 48.0971 124.672 48.0329 124.801 47.9047C124.929 47.7764 124.993 47.6161 124.993 47.4236V46.9427H127.497V47.5199C127.497 49.1873 126.662 50.021 124.993 50.021H123.067Z" fill="#E46B17"/>
<path d="M20.1282 64.4505H16.3733L21.4761 50.983H25.3274L30.4302 64.4505H26.6753L25.8087 62.0456H20.9948L20.1282 64.4505ZM21.8613 59.5445H24.9423L23.4018 55.0233L21.8613 59.5445Z" fill="#0F697C"/>
<path fill-rule="evenodd" clip-rule="evenodd" d="M63.2816 0.14773C63.3362 0.0931321 63.4294 0.131875 63.4294 0.209162V42.6661C63.4294 42.714 63.3907 42.7529 63.3428 42.7529H20.8677C20.7905 42.7529 20.7518 42.6593 20.8065 42.6046L63.2816 0.14773ZM35.2406 36.7152H57.3893V14.576L35.2406 36.7152Z" fill="#E46B17"/>
<path fill-rule="evenodd" clip-rule="evenodd" d="M99.2426 36.7155V32.6879C99.2426 32.6107 99.3353 32.572 99.3899 32.6264L109.415 42.6047C109.469 42.6593 109.431 42.753 109.353 42.753H66.8689C66.821 42.753 66.7823 42.7142 66.7823 42.6663V0.210445C66.7823 0.133167 66.8755 0.0944189 66.9301 0.148997L88.814 22.0131C88.8686 22.0678 88.8305 22.1613 88.7525 22.1613H80.4467C80.4237 22.1613 80.4017 22.1522 80.3855 22.136L72.8224 14.5763V36.7155H99.2426Z" fill="#0F697C"/>
</g>
<defs>
<clipPath id="clip0_442_7544">
<rect width="130" height="67" fill="white"/>
</clipPath>
</defs>
</svg>
