<svg width="94" height="96" viewBox="0 0 94 96" fill="none" xmlns="http://www.w3.org/2000/svg">
<path d="M88.8008 22.7862C98.9016 41.445 92.9143 69.2458 78.1824 84.3927C64.4269 98.5356 37.1861 97.9155 19.8014 88.7862C4.4096 80.7035 2.82239 63.2465 4.55955 45.731C6.47004 26.4678 15.2192 6.70842 33.7963 2.40008C54.1988 -2.33162 78.715 4.1552 88.8008 22.7862Z" fill="#387B88"/>
<path d="M6.15763 69.792C-3.94321 51.5301 -1.61327 28.4864 13.1186 13.6618C26.8741 -0.180209 48.672 0.580928 66.0568 9.51597C81.4485 17.4267 88.4786 34.358 86.7415 51.5008C84.831 70.3542 76.0818 89.6932 57.5047 93.9098C37.1022 98.5408 16.2434 88.0265 6.15763 69.792Z" fill="#6AACB9"/>
<path d="M53.0625 54.0938H49.248V60H46.4531V54.0938H33.9551V51.5449L46.1543 34.1602H49.248V51.4395H53.0625V54.0938ZM46.4531 51.4395V42.8965C46.4531 41.2207 46.5117 39.3281 46.6289 37.2188H46.4883C45.9258 38.3438 45.3984 39.2754 44.9062 40.0137L36.873 51.4395H46.4531Z" fill="white"/>
</svg>
