<svg width="87" height="94" viewBox="0 0 87 94" fill="none" xmlns="http://www.w3.org/2000/svg">
<path d="M6.15763 68.244C-3.94321 49.5851 -1.61327 26.0404 13.1186 10.8935C26.8741 -3.24935 48.672 -2.47166 66.0568 6.65762C81.4485 14.7403 88.4786 32.0397 86.7415 49.5552C84.831 68.8184 76.0818 88.5778 57.5047 92.8861C37.1022 97.6178 16.2434 86.8749 6.15763 68.244Z" fill="#387B88"/>
<path d="M80.8424 68.792C90.9432 50.5301 88.6133 27.4864 73.8814 12.6618C60.1259 -1.18021 38.328 -0.419075 20.9432 8.51597C5.55148 16.4267 -1.47861 33.358 0.258547 50.5008C2.16904 69.3542 10.9182 88.6932 29.4953 92.9098C49.8978 97.5408 70.7566 87.0265 80.8424 68.792Z" fill="#6AACB9"/>
<path d="M45.7676 59H42.9199V40.6836C42.9199 39.1602 42.9668 37.7188 43.0605 36.3594C42.8145 36.6055 42.5391 36.8633 42.2344 37.1328C41.9297 37.4023 40.5352 38.5449 38.0508 40.5605L36.5039 38.5566L43.3066 33.3008H45.7676V59Z" fill="white"/>
</svg>
