<svg width="90" height="96" viewBox="0 0 90 96" fill="none" xmlns="http://www.w3.org/2000/svg">
<path d="M84.8008 22.7862C94.9016 41.445 88.9143 69.2458 74.1824 84.3927C60.4269 98.5356 33.1861 97.9155 15.8014 88.7862C0.409595 80.7035 -1.17761 63.2465 0.559547 45.731C2.47004 26.4678 11.2192 6.70842 29.7963 2.40008C50.1988 -2.33162 74.715 4.1552 84.8008 22.7862Z" fill="#387B88"/>
<path d="M9.15763 69.792C-0.943207 51.5301 1.38673 28.4864 16.1186 13.6618C29.8741 -0.180206 51.672 0.580925 69.0568 9.51597C84.4485 17.4267 91.4786 34.358 89.7415 51.5008C87.831 70.3542 79.0818 89.6932 60.5047 93.9098C40.1022 98.5408 19.2434 88.0265 9.15763 69.792Z" fill="#6AACB9"/>
<path d="M53.8828 40.3477C53.8828 41.9883 53.4199 43.3301 52.4941 44.373C51.5801 45.416 50.2793 46.1133 48.5918 46.4648V46.6055C50.6543 46.8633 52.1836 47.5195 53.1797 48.5742C54.1758 49.6289 54.6738 51.0117 54.6738 52.7227C54.6738 55.1719 53.8242 57.0586 52.125 58.3828C50.4258 59.6953 48.0117 60.3516 44.8828 60.3516C43.5234 60.3516 42.2754 60.2461 41.1387 60.0352C40.0137 59.8359 38.918 59.4785 37.8516 58.9629V56.1855C38.9648 56.7363 40.1484 57.1582 41.4023 57.4512C42.668 57.7324 43.8633 57.873 44.9883 57.873C49.4297 57.873 51.6504 56.1328 51.6504 52.6523C51.6504 49.5352 49.2012 47.9766 44.3027 47.9766H41.7715V45.4629H44.3379C46.3418 45.4629 47.9297 45.0234 49.1016 44.1445C50.2734 43.2539 50.8594 42.0234 50.8594 40.4531C50.8594 39.1992 50.4258 38.2148 49.5586 37.5C48.7031 36.7852 47.5371 36.4277 46.0605 36.4277C44.9355 36.4277 43.875 36.5801 42.8789 36.8848C41.8828 37.1895 40.7461 37.752 39.4688 38.5723L37.9922 36.6035C39.0469 35.7715 40.2598 35.1211 41.6309 34.6523C43.0137 34.1719 44.4668 33.9316 45.9902 33.9316C48.4863 33.9316 50.4258 34.5059 51.8086 35.6543C53.1914 36.791 53.8828 38.3555 53.8828 40.3477Z" fill="white"/>
</svg>
