<svg width="91" height="96" viewBox="0 0 91 96" fill="none" xmlns="http://www.w3.org/2000/svg">
<path d="M5.50003 73.5C-4.60081 54.8411 1.38655 27.0403 16.1185 11.8935C29.8739 -2.24942 57.1147 -1.62935 74.4994 7.49993C89.8912 15.5826 91.4784 33.0396 89.7413 50.5551C87.8308 69.8183 79.0816 89.5777 60.5046 93.886C40.102 98.6178 15.5858 92.1309 5.50003 73.5Z" fill="#387B88"/>
<path d="M9.15766 69.792C-0.943176 51.5301 1.38676 28.4864 16.1187 13.6618C29.8741 -0.180206 51.672 0.580925 69.0568 9.51597C84.4486 17.4267 91.4786 34.358 89.7415 51.5008C87.831 70.3542 79.0818 89.6932 60.5048 93.9098C40.1023 98.5408 19.2434 88.0265 9.15766 69.792Z" fill="#6AACB9"/>
<path d="M54.8496 60H37.9571V57.4863L44.7246 50.6836C46.7871 48.5977 48.1465 47.1094 48.8028 46.2188C49.459 45.3281 49.9512 44.4609 50.2793 43.6172C50.6075 42.7734 50.7715 41.8652 50.7715 40.8926C50.7715 39.5215 50.3555 38.4375 49.5235 37.6406C48.6914 36.832 47.5371 36.4277 46.0606 36.4277C44.9942 36.4277 43.9805 36.6035 43.0196 36.9551C42.0703 37.3066 41.0098 37.9453 39.8379 38.8711L38.291 36.8848C40.6582 34.916 43.2364 33.9316 46.0254 33.9316C48.4395 33.9316 50.3321 34.5527 51.7032 35.7949C53.0742 37.0254 53.7598 38.6836 53.7598 40.7695C53.7598 42.3984 53.3028 44.0098 52.3887 45.6035C51.4746 47.1973 49.7637 49.2129 47.2559 51.6504L41.6309 57.1523V57.293H54.8496V60Z" fill="white"/>
</svg>
