<svg width="745" height="248" viewBox="0 0 745 248" fill="none" xmlns="http://www.w3.org/2000/svg">
<rect y="3.05176e-05" width="745" height="248" rx="16" fill="#ED64A6"/>
<path d="M80.3228 -5.96065C79.7098 -48.0424 55.7903 -70.9092 15.2561 -82.2653C-22.5914 -92.8687 -59.609 -81.2935 -81.0331 -48.33C-100.001 -19.1455 -102.627 18.24 -82.4645 46.586C-60.2897 77.7604 -21.8729 98.4901 14.7746 87.4129C55.0233 75.2472 80.9348 36.0582 80.3228 -5.96065Z" fill="#CB4183"/>
<path d="M775.323 242.039C774.71 199.958 750.79 177.091 710.256 165.735C672.409 155.131 635.391 166.706 613.967 199.67C594.999 228.855 592.373 266.24 612.535 294.586C634.71 325.76 673.127 346.49 709.775 335.413C750.023 323.247 775.935 284.058 775.323 242.039Z" fill="#E24892"/>
<path d="M764.436 -18.1941C764.149 -37.8765 752.962 -48.5716 734.003 -53.8831C716.301 -58.8425 698.988 -53.4286 688.967 -38.011C680.096 -24.3609 678.867 -6.87505 688.298 6.38282C698.669 20.9636 716.637 30.6592 733.778 25.4782C752.603 19.7881 764.722 1.45881 764.436 -18.1941Z" fill="#E24892"/>
<path opacity="0.2" d="M820.823 206.047C820.518 185.106 814.418 168.991 803.388 156.699C792.35 144.397 776.334 135.879 756.121 130.216C718.458 119.664 681.677 131.184 660.386 163.942C641.506 192.991 638.922 230.15 658.943 258.296C681.042 289.364 719.259 309.928 755.63 298.934C795.644 286.84 821.432 247.866 820.823 206.047Z" stroke="white"/>
<path opacity="0.35" d="M255.252 -8.35374C293.525 32.0086 297.525 90.3408 292.321 145.793C287.057 201.885 273.848 261.008 227.061 292.199C179.523 323.89 117.738 317.699 63.7655 298.183C11.6308 279.331 -32.0207 242.574 -52.197 191.187C-73.0096 138.179 -70.941 78.2213 -41.8215 29.3271C-12.2198 -20.3768 39.7343 -52.5847 97.3356 -59.8885C155.16 -67.2206 215.256 -50.5342 255.252 -8.35374Z" stroke="white"/>
</svg>
