<svg width="745" height="248" viewBox="0 0 745 248" fill="none" xmlns="http://www.w3.org/2000/svg">
<mask id="mask0_618_19629" style="mask-type:alpha" maskUnits="userSpaceOnUse" x="0" y="0" width="745" height="248">
<rect width="745" height="248" rx="16" fill="white"/>
</mask>
<g mask="url(#mask0_618_19629)">
<rect width="745" height="248" rx="16" fill="#1A8FA5"/>
<path d="M80.3228 -5.96068C79.7098 -48.0425 55.7903 -70.9092 15.2561 -82.2653C-22.5914 -92.8688 -59.609 -81.2936 -81.0331 -48.33C-100.001 -19.1455 -102.627 18.24 -82.4645 46.5859C-60.2897 77.7604 -21.8729 98.49 14.7746 87.4129C55.0233 75.2472 80.9348 36.0582 80.3228 -5.96068Z" fill="#0A8299"/>
<path d="M816.323 223.039C815.71 180.958 791.79 158.091 751.256 146.735C713.409 136.131 676.391 147.706 654.967 180.67C635.999 209.855 633.373 247.24 653.535 275.586C675.71 306.76 714.127 327.49 750.775 316.413C791.023 304.247 816.935 265.058 816.323 223.039Z" fill="#1CA0B8"/>
<path opacity="0.2" d="M820.823 206.047C820.518 185.106 814.418 168.991 803.388 156.699C792.35 144.397 776.334 135.879 756.121 130.216C718.458 119.664 681.677 131.184 660.386 163.942C641.506 192.991 638.922 230.15 658.943 258.296C681.042 289.364 719.259 309.928 755.63 298.934C795.644 286.84 821.432 247.866 820.823 206.047Z" stroke="white"/>
</g>
</svg>
