<svg width="745" height="248" viewBox="0 0 745 248" fill="none" xmlns="http://www.w3.org/2000/svg">
<rect width="745" height="248" rx="16" fill="#ED870F"/>
<path d="M80.3228 -5.96068C79.7098 -48.0425 55.7903 -70.9092 15.2561 -82.2653C-22.5914 -92.8688 -59.609 -81.2936 -81.0331 -48.33C-100.001 -19.1455 -102.627 18.24 -82.4645 46.5859C-60.2897 77.7604 -21.8729 98.49 14.7746 87.4129C55.0233 75.2472 80.9348 36.0582 80.3228 -5.96068Z" fill="#CB4183"/>
<path d="M819.323 219.039C818.71 176.958 794.79 154.091 754.256 142.735C716.409 132.131 679.391 143.706 657.967 176.67C638.999 205.855 636.373 243.24 656.535 271.586C678.71 302.76 717.127 323.49 753.775 312.413C794.023 300.247 819.935 261.058 819.323 219.039Z" fill="#FF9921"/>
<path d="M764.436 -18.1942C764.149 -37.8765 752.962 -48.5717 734.003 -53.8831C716.301 -58.8425 698.988 -53.4286 688.967 -38.011C680.096 -24.3609 678.867 -6.87508 688.298 6.38279C698.669 20.9636 716.637 30.6592 733.778 25.4782C752.603 19.7881 764.722 1.45878 764.436 -18.1942Z" fill="#DA7C0F"/>
<path opacity="0.2" d="M789.823 239.047C789.518 218.106 783.418 201.991 772.388 189.699C761.35 177.397 745.334 168.879 725.121 163.216C687.458 152.664 650.677 164.184 629.386 196.942C610.506 225.991 607.922 263.15 627.943 291.296C650.042 322.364 688.259 342.928 724.63 331.934C764.644 319.84 790.432 280.866 789.823 239.047Z" stroke="#5C390F"/>
<path opacity="0.2" d="M255.252 23.1802C293.525 63.5425 297.525 121.875 292.321 177.327C287.057 233.419 273.848 292.542 227.061 323.733C179.523 355.424 117.738 349.232 63.7655 329.717C11.6308 310.865 -32.0207 274.108 -52.197 222.721C-73.0096 169.713 -70.941 109.755 -41.8215 60.861C-12.2198 11.1571 39.7343 -21.0508 97.3356 -28.3546C155.16 -35.6867 215.256 -19.0003 255.252 23.1802Z" stroke="#5C390F"/>
</svg>
