<svg width="51" height="12" viewBox="0 0 51 12" fill="none" xmlns="http://www.w3.org/2000/svg">
<path d="M20.8466 0.992798L18.287 10.9868H22.3782L24.9362 0.992798H20.8466ZM33.187 5.06382C31.7574 4.62083 30.8809 4.32185 30.8809 3.86877C30.8984 3.45682 31.6221 3.03478 33.2381 3.03478C34.5673 3.01383 35.5442 3.20982 36.2853 3.40483L36.6566 3.5088L37.2128 1.4178C36.4047 1.2218 35.1235 1.00585 33.5408 1.00585C29.5007 1.00585 26.6559 2.32385 26.6382 4.20888C26.6048 5.59992 28.675 6.37183 30.2242 6.83489C31.8068 7.3099 32.3456 7.61788 32.3456 8.03992C32.3281 8.68789 31.0659 8.98688 29.8881 8.98688C28.2561 8.98688 27.3795 8.83289 26.0488 8.47183L25.51 8.31784L24.9379 10.4909C25.899 10.7589 27.6664 10.9949 29.5009 11.0069C33.7945 11.0069 36.5883 9.70888 36.6234 7.69992C36.6374 6.59788 35.5458 5.7538 33.187 5.06382ZM47.7013 1.02373H44.536C43.5606 1.02373 42.8195 1.19976 42.3972 1.82777L36.3201 10.9868H40.6137L41.7962 9.00388H46.5999L47.2134 10.9949H51.0003L47.7013 1.02373ZM42.987 7.0027C43.0698 7.00774 44.635 3.76567 44.635 3.76567L45.8813 7.0027C45.8813 7.0027 43.7951 7.0027 42.987 7.0027ZM14.8685 0.992798L10.8602 7.78284L10.4235 6.44378C9.68237 4.89875 7.35877 3.2198 4.76562 2.38581L8.43605 10.9769H12.7648L19.1972 0.993894H14.8685V0.992798Z" fill="#2394BC"/>
<path d="M9.07485 2.28195C8.76249 1.51991 7.76631 1.00596 6.41337 0.994995H0.0653748L0 1.17991C4.95188 1.9459 9.10824 4.30287 10.4566 6.5199L9.07485 2.28195Z" fill="#EFC75E"/>
</svg>
